<?xml version="1.0" encoding="UTF-8" standalone="no"?>
<!-- Created with Inkscape (http://www.inkscape.org/) -->

<svg
   xmlns:dc="http://purl.org/dc/elements/1.1/"
   xmlns:cc="http://creativecommons.org/ns#"
   xmlns:rdf="http://www.w3.org/1999/02/22-rdf-syntax-ns#"
   xmlns:svg="http://www.w3.org/2000/svg"
   xmlns="http://www.w3.org/2000/svg"
   xmlns:sodipodi="http://sodipodi.sourceforge.net/DTD/sodipodi-0.dtd"
   xmlns:inkscape="http://www.inkscape.org/namespaces/inkscape"
   id="svg3390"
   version="1.1"
   inkscape:version="0.91 r13725"
   width="307.20001"
   height="172.8"
   viewBox="0 0 307.20001 172.8"
   sodipodi:docname="logoDatasociete.svg">
  <metadata
     id="metadata3396">
    <rdf:RDF>
      <cc:Work
         rdf:about="">
        <dc:format>image/svg+xml</dc:format>
        <dc:type
           rdf:resource="http://purl.org/dc/dcmitype/StillImage" />
        <dc:title></dc:title>
      </cc:Work>
    </rdf:RDF>
  </metadata>
  <defs
     id="defs3394" />
  <sodipodi:namedview
     pagecolor="#ffffff"
     bordercolor="#666666"
     borderopacity="1"
     objecttolerance="10"
     gridtolerance="10"
     guidetolerance="10"
     inkscape:pageopacity="0"
     inkscape:pageshadow="2"
     inkscape:window-width="1440"
     inkscape:window-height="824"
     id="namedview3392"
     showgrid="false"
     inkscape:zoom="4.0803539"
     inkscape:cx="171.29168"
     inkscape:cy="72.842472"
     inkscape:window-x="0"
     inkscape:window-y="24"
     inkscape:window-maximized="1"
     inkscape:current-layer="layer5" />
  <g
     inkscape:groupmode="layer"
     id="layer5"
     inkscape:label="Layer 3" />
  <g
     inkscape:groupmode="layer"
     id="layer2"
     inkscape:label="Layer 1"
     style="display:inline"
     sodipodi:insensitive="true">
    <path
       style="fill:#000000;fill-rule:evenodd;stroke:#000000;stroke-width:1px;stroke-linecap:butt;stroke-linejoin:miter;stroke-opacity:1"
       d="m 126.27306,66.890297 35.00367,5.549121 1.03196,18.936577 -29.58368,13.945475 16.27013,-19.355847 z"
       id="path3402"
       inkscape:connector-curvature="0"
       sodipodi:nodetypes="cccccc" />
    <path
       d="m 156.94885,85.756602 c -1.40254,-0.804443 -1.8222,-1.400936 -2.23913,-3.182626 -0.19897,-0.850226 0.36532,-3.284717 0.76136,-3.284717 0.13424,0 0.24406,-0.17809 0.24406,-0.395755 0,-0.782553 3.92024,-2.169212 4.64765,-1.643957 0.20019,0.144555 0.25888,1.728827 0.17687,4.774777 l -0.12272,4.558441 -1.01843,-0.0026 c -0.60885,-0.0016 -1.59402,-0.33277 -2.44966,-0.823531 l 0,5e-6 z"
       id="path3404"
       inkscape:connector-curvature="0"
       style="fill:#000000" />
    <path
       style="fill:#000000"
       d=""
       id="path3406"
       inkscape:connector-curvature="0" />
    <ellipse
       style="display:inline;fill:#000000"
       id="path3413-3-7"
       cx="159.31688"
       cy="82.002983"
       rx="10.417845"
       ry="10.282853" />
    <g
       id="g4492"
       transform="translate(-874.00322,-254.28615)">
      <path
         id="path4010"
         d="m 987.90455,318.31518 c -0.72294,-0.43255 -1.44012,-0.86169 -2.2309,-1.33445 3.28374,-5.46731 7.50022,-9.98598 12.67533,-13.59751 6.80982,-4.75177 14.38382,-7.3421 22.77142,-7.88871 0.027,0.4518 0.053,0.87374 0.078,1.29581 0.025,0.43281 0.05,0.86524 0.076,1.30905 -14.4322,1.24226 -25.49001,7.97789 -33.36846,20.21581 z"
         inkscape:connector-curvature="0"
         style="fill:#2d2d2d" />
      <path
         id="path4012"
         d="m 969.42535,371.90483 c 0.83625,-0.48978 1.53813,-0.9019 2.294,-1.34453 5.89726,9.7094 13.79678,17.24296 23.78326,22.60354 -0.0551,0.15087 -0.0843,0.2741 -0.1417,0.38344 -0.32922,0.63304 -0.66507,1.26255 -1.05233,1.99461 -10.47297,-5.60351 -18.7159,-13.45542 -24.88323,-23.63706 z"
         inkscape:connector-curvature="0"
         style="fill:#2d2d2d" />
      <path
         id="path4014"
         d="m 1063.6077,327.84139 c 0.8673,-0.25354 1.67,-0.48796 2.5542,-0.74634 3.0908,11.09218 2.2093,21.75627 -2.7215,32.19798 -0.8184,-0.39497 -1.5677,-0.75641 -2.3972,-1.15675 4.621,-9.75143 5.4813,-19.8143 2.5645,-30.29489 z"
         inkscape:connector-curvature="0"
         style="fill:#2d2d2d" />
      <path
         id="path4016"
         d="m 1059.3441,378.7857 c 0.6251,0.68608 1.1726,1.28835 1.7923,1.96907 -8.1347,7.3468 -17.5303,11.89704 -28.3325,13.77064 -0.1474,-0.89798 -0.2829,-1.7234 -0.4323,-2.63276 5.0281,-0.86 9.8218,-2.36496 14.388,-4.57694 4.5765,-2.21671 8.7324,-5.05782 12.5845,-8.53001 z"
         inkscape:connector-curvature="0"
         style="fill:#2d2d2d" />
      <path
         id="path4018"
         d="m 979.93503,305.44238 c 0.71761,0.56038 1.358,1.06101 2.09409,1.63578 -5.50207,7.10717 -9.01866,15.05651 -10.53229,23.98358 -0.86077,-0.1396 -1.70451,-0.27657 -2.62925,-0.42653 1.57597,-9.33002 5.23219,-17.66948 11.06745,-25.19283 z"
         inkscape:connector-curvature="0"
         style="fill:#2d2d2d" />
      <path
         id="path4020"
         d="m 1029.5535,380.91453 c 0.1263,0.87336 0.2469,1.70402 0.3824,2.63486 -9.0433,1.21017 -17.6173,-0.15192 -25.8787,-4.1296 0.4034,-0.82307 0.7713,-1.57358 1.1737,-2.39494 3.788,1.83889 7.7227,3.10983 11.8487,3.7696 4.1312,0.66067 8.2701,0.68712 12.4739,0.12008 z"
         inkscape:connector-curvature="0"
         style="fill:#2d2d2d" />
      <path
         id="path4022"
         d="m 1091.1957,347.17742 c 0.891,0.0973 1.7256,0.18884 2.6467,0.29007 -0.9213,8.24217 -3.184,16.03371 -6.8676,23.53479 -0.8044,-0.39968 -1.5666,-0.77828 -2.3846,-1.18438 3.526,-7.19817 5.7153,-14.71064 6.6055,-22.64048 z"
         inkscape:connector-curvature="0"
         style="fill:#2d2d2d" />
      <path
         id="path4024"
         d="m 968.98322,314.03695 c -0.8274,-0.38736 -1.58361,-0.74173 -2.41274,-1.12976 3.40343,-7.22332 7.97003,-13.5124 13.74055,-18.98876 0.63326,0.63332 1.21957,1.21962 1.87449,1.87479 -5.51798,5.26735 -9.9176,11.28954 -13.2023,18.24373 z"
         inkscape:connector-curvature="0"
         style="fill:#2d2d2d" />
      <path
         id="path4026"
         d="m 1077.8751,366.44995 c 3.1314,-6.40772 5.0669,-13.06385 5.8596,-20.12007 0.8731,0.093 1.7044,0.18202 2.646,0.28247 -0.8141,7.36383 -2.8374,14.33466 -6.1052,20.98937 -0.2263,-0.0931 -0.3925,-0.15113 -0.5501,-0.22878 -0.5932,-0.29165 -1.1831,-0.58956 -1.8503,-0.92299 z"
         inkscape:connector-curvature="0"
         style="fill:#2d2d2d" />
      <path
         id="path4028"
         d="m 1082.5923,365.19997 c 0.8303,0.35724 1.5801,0.68006 2.4423,1.05145 -2.8767,6.68731 -6.7617,12.67964 -11.6685,18.17328 -0.665,-0.59546 -1.2986,-1.16224 -1.9875,-1.77866 4.6833,-5.2291 8.4058,-10.99068 11.2137,-17.44607 z"
         inkscape:connector-curvature="0"
         style="fill:#2d2d2d" />
      <path
         id="path4030"
         d="m 1012.906,406.76633 c -0.1453,0.91081 -0.2777,1.74068 -0.4192,2.62687 -7.0209,-1.13003 -13.67763,-3.24708 -20.14309,-6.42959 0.38812,-0.78706 0.76361,-1.54908 1.17555,-2.38407 6.15975,3.02366 12.57324,5.08414 19.38674,6.18679 z"
         inkscape:connector-curvature="0"
         style="fill:#2d2d2d" />
      <path
         id="path4032"
         d="m 995.19428,397.21879 c -0.39577,0.80447 -0.76455,1.55525 -1.17263,2.38499 -6.04772,-2.99328 -11.45806,-6.7943 -16.36695,-11.45322 0.64675,-0.64668 1.23436,-1.2344 1.87621,-1.8761 4.67631,4.39741 9.86585,8.06092 15.66337,10.94433 z"
         inkscape:connector-curvature="0"
         style="fill:#2d2d2d" />
      <path
         id="path4034"
         d="m 1052.6709,401.3328 c 0.3123,0.66762 0.6659,1.42377 1.0571,2.25992 -5.9133,2.78257 -12.0383,4.67373 -18.5003,5.74836 -0.1474,-0.87859 -0.2851,-1.70257 -0.413,-2.46579 3.057,-0.77997 6.1067,-1.43084 9.0723,-2.35027 2.9488,-0.915 5.8134,-2.10031 8.7839,-3.19222 z"
         inkscape:connector-curvature="0"
         style="fill:#2d2d2d" />
      <path
         id="path4036"
         d="m 976.79401,389.04866 c -0.0318,0.0424 -0.0952,0.15204 -0.18124,0.23926 -0.48452,0.49109 -0.97427,0.97798 -1.46187,1.46527 -2.15558,-1.12479 -10.33024,-11.25496 -12.13225,-15.06671 0.70772,-0.42181 1.42291,-0.84847 2.09796,-1.25038 1.82859,2.54658 3.53507,5.13324 5.46185,7.54495 1.93262,2.41916 4.08526,4.66284 6.21555,7.06761 z"
         inkscape:connector-curvature="0"
         style="fill:#2d2d2d" />
      <path
         id="path4038"
         d="m 1017.7196,269.3766 c 0.078,0.93661 0.1478,1.7712 0.2218,2.65384 -6.2437,0.53535 -12.2446,1.88866 -18.07353,4.04841 -0.0778,-0.13633 -0.13922,-0.217 -0.17306,-0.30776 -0.2605,-0.69328 -0.51446,-1.38827 -0.8017,-2.16576 6.08439,-2.27773 12.31839,-3.66837 18.82649,-4.22873 z"
         inkscape:connector-curvature="0"
         style="fill:#2d2d2d" />
      <path
         id="path4040"
         d="m 1074.4712,354.5228 c 0.8848,0.25667 1.6887,0.48991 2.5588,0.74252 -1.8337,6.28449 -4.658,12.00718 -8.5018,17.25671 -0.136,-0.0573 -0.2382,-0.0803 -0.3153,-0.13633 -0.5978,-0.43595 -1.1908,-0.87806 -1.8644,-1.3774 3.6435,-5.02102 6.3647,-10.46816 8.1227,-16.4855 z"
         inkscape:connector-curvature="0"
         style="fill:#2d2d2d" />
      <path
         id="path4042"
         d="m 1078.3493,295.04847 c -0.7153,0.58616 -1.3587,1.11314 -2.0618,1.68882 -3.9824,-4.84606 -8.4934,-9.02726 -13.5732,-12.63014 0.1038,-0.18753 0.1639,-0.32594 0.2488,-0.44708 0.3935,-0.56337 0.794,-1.12203 1.2411,-1.7513 5.3131,3.72468 9.9607,8.0828 14.1451,13.1397 z"
         inkscape:connector-curvature="0"
         style="fill:#2d2d2d" />
      <path
         id="path4044"
         d="m 1078.9079,345.83826 c -0.8743,-0.0936 -1.7094,-0.18256 -2.6428,-0.28247 0.6529,-6.16481 0.2857,-12.24487 -1.1718,-18.33828 0.4417,-0.11169 0.8515,-0.21792 1.263,-0.31863 0.4185,-0.10255 0.8389,-0.19997 1.3185,-0.31391 1.5327,6.37093 1.9309,12.74695 1.2331,19.25329 z"
         inkscape:connector-curvature="0"
         style="fill:#2d2d2d" />
      <path
         id="path4046"
         d="m 1013.6711,401.97738 c -6.3016,-1.01453 -12.2463,-2.91118 -17.98276,-5.73919 0.3833,-0.79085 0.74727,-1.54333 1.15645,-2.38708 5.45761,2.66929 11.16011,4.51526 17.23701,5.49888 -0.1344,0.8609 -0.263,1.68396 -0.4107,2.62739 z"
         inkscape:connector-curvature="0"
         style="fill:#2d2d2d" />
      <path
         id="path4048"
         d="m 1034.1847,403.01507 c 5.8836,-0.98584 11.4198,-2.70858 16.8164,-5.22111 0.3817,0.81036 0.7449,1.58143 1.1338,2.40685 -5.6191,2.63368 -11.4089,4.43106 -17.5138,5.43746 -0.1491,-0.89771 -0.2866,-1.72379 -0.4364,-2.6232 z"
         inkscape:connector-curvature="0"
         style="fill:#2d2d2d" />
      <path
         id="path4050"
         d="m 1060.5235,287.14745 c 0.5545,-0.7809 1.0247,-1.44275 1.5368,-2.16419 5.0391,3.54997 9.4615,7.65194 13.3743,12.43447 -0.6937,0.5689 -1.3354,1.09573 -2.0522,1.68346 -3.7603,-4.56568 -8.0222,-8.52018 -12.8589,-11.95374 z"
         inkscape:connector-curvature="0"
         style="fill:#2d2d2d" />
      <path
         id="path4052"
         d="m 1065.4678,370.32811 c -0.7386,-0.54294 -1.4097,-1.03639 -2.143,-1.57528 3.3974,-4.68249 5.9021,-9.72735 7.5367,-15.30034 0.8557,0.2458 1.6741,0.481 2.5571,0.73492 -1.7053,5.85954 -4.3301,11.17299 -7.9508,16.1407 z"
         inkscape:connector-curvature="0"
         style="fill:#2d2d2d" />
      <path
         id="path4054"
         d="m 1075.1658,345.40636 c -0.7685,-0.0808 -1.4533,-0.15086 -2.138,-0.22642 -0.1495,-0.0165 -0.2967,-0.0526 -0.3222,-0.0573 0,-2.88904 0.1447,-5.73499 -0.034,-8.56052 -0.1775,-2.80117 -0.6785,-5.58138 -1.0508,-8.47488 0.6878,-0.1688 1.5184,-0.3723 2.4019,-0.58904 1.4158,5.91389 1.7899,11.83248 1.1426,17.90809 z"
         inkscape:connector-curvature="0"
         style="fill:#2d2d2d" />
      <path
         id="path4056"
         d="m 1068.7898,344.66868 c 0.2384,0.0136 0.4158,0.016 0.5918,0.035 0.6616,0.07 1.3224,0.14642 2.0531,0.2284 -0.6597,6.01092 -2.3748,11.65633 -5.1949,17.09654 -0.773,-0.40256 -1.5281,-0.79542 -2.3612,-1.2285 2.6403,-5.10104 4.2767,-10.45848 4.9112,-16.1314 z"
         inkscape:connector-curvature="0"
         style="fill:#2d2d2d" />
      <path
         id="path4058"
         d="m 1034.0178,401.93036 c -0.1511,-0.92312 -0.2865,-1.74893 -0.4296,-2.62568 5.5139,-0.9243 10.7502,-2.55354 15.8265,-4.91927 0.3791,0.80683 0.7337,1.56192 1.1301,2.40594 -5.2747,2.48255 -10.7387,4.17295 -16.527,5.13901 z"
         inkscape:connector-curvature="0"
         style="fill:#2d2d2d" />
      <path
         id="path4060"
         d="m 1018.622,279.50861 c -5.5954,0.47629 -10.9267,1.68423 -16.1647,3.6182 -0.1723,-0.45324 -0.3253,-0.85331 -0.4752,-1.25378 -0.1426,-0.38108 -0.2822,-0.7636 -0.4559,-1.23348 5.4675,-2.04935 11.0588,-3.28951 16.8736,-3.78649 0.074,0.89954 0.1451,1.73674 0.2222,2.65555 z"
         inkscape:connector-curvature="0"
         style="fill:#2d2d2d" />
      <path
         id="path4062"
         d="m 1070.474,301.47321 c -3.5583,-4.26605 -7.5201,-7.99806 -12.0671,-11.21279 0.5103,-0.7327 0.9858,-1.41538 1.5166,-2.17728 4.7524,3.32826 8.8874,7.22016 12.5954,11.70099 -0.7017,0.58015 -1.3441,1.11013 -2.0449,1.68908 z"
         inkscape:connector-curvature="0"
         style="fill:#2d2d2d" />
      <path
         id="path4064"
         d="m 979.8021,345.63292 c 0.92276,-0.12428 1.75498,-0.23663 2.63828,-0.35634 0.72612,5.26211 2.36752,10.16331 4.94612,14.80926 -0.78407,0.43936 -1.5119,0.84781 -2.31335,1.29739 -2.7682,-4.92306 -4.48388,-10.12808 -5.27105,-15.75031 z"
         inkscape:connector-curvature="0"
         style="fill:#2d2d2d" />
      <path
         id="path4066"
         d="m 1031.1138,392.2292 c 0.1049,0.77684 0.2167,1.60633 0.3362,2.48897 -5.5655,0.77578 -11.043,0.71346 -16.5846,-0.15715 0.1422,-0.89378 0.2738,-1.72064 0.3952,-2.48124 2.6751,0.17509 5.3005,0.4611 7.9284,0.48625 2.6076,0.0258 5.2186,-0.21072 7.9248,-0.33683 z"
         inkscape:connector-curvature="0"
         style="fill:#2d2d2d" />
      <path
         id="path4068"
         d="m 1002.8859,284.14225 c 0.3213,0.86248 0.6137,1.64666 0.93,2.49644 -4.8806,1.83863 -9.39133,4.28045 -13.63936,7.376 -0.52742,-0.71882 -1.01916,-1.38892 -1.56694,-2.1355 4.41389,-3.27131 9.14448,-5.80035 14.2763,-7.73694 z"
         inkscape:connector-curvature="0"
         style="fill:#2d2d2d" />
      <path
         id="path4070"
         d="m 1086.589,314.04731 c 0.866,-0.35149 1.6396,-0.66528 2.4612,-0.99869 2.0151,4.93708 3.4132,9.95508 4.2915,15.24548 -0.875,0.14418 -1.7168,0.28274 -2.6231,0.4319 -0.8391,-5.04695 -2.1957,-9.89458 -4.1296,-14.67869 z"
         inkscape:connector-curvature="0"
         style="fill:#2d2d2d" />
      <path
         id="path4072"
         d="m 1030.9758,390.98459 c -5.1957,0.72118 -10.2976,0.676 -15.5115,-0.14417 0.1405,-0.87572 0.2754,-1.71646 0.4208,-2.6219 4.922,0.76466 9.7957,0.81403 14.713,0.13017 0.1268,0.88514 0.2459,1.71685 0.3777,2.6359 z"
         inkscape:connector-curvature="0"
         style="fill:#2d2d2d" />
      <path
         id="path4074"
         d="m 1045.7307,383.63529 c 0.4066,0.81573 0.78,1.5635 1.1845,2.37308 -4.6758,2.34804 -9.5214,3.91049 -14.6999,4.78594 -0.149,-0.87099 -0.293,-1.71449 -0.4488,-2.62424 4.892,-0.81992 9.5175,-2.33706 13.9642,-4.53478 z"
         inkscape:connector-curvature="0"
         style="fill:#2d2d2d" />
      <path
         id="path4076"
         d="m 981.52553,287.84715 c 0.57221,0.69315 1.10246,1.33471 1.6843,2.03952 -3.71924,3.09202 -7.06653,6.46234 -10.09387,10.29872 -0.69904,-0.54046 -1.37245,-1.06127 -2.10106,-1.62439 3.11754,-3.98266 6.57781,-7.51536 10.51063,-10.71385 z"
         inkscape:connector-curvature="0"
         style="fill:#2d2d2d" />
      <path
         id="path4078"
         d="m 992.40837,297.03207 c -0.53197,-0.72026 -1.02653,-1.3901 -1.57502,-2.13302 4.14546,-3.06243 8.57862,-5.44009 13.41295,-7.25514 0.3201,0.86314 0.6094,1.64468 0.9247,2.4942 -4.5739,1.72392 -8.79188,4.00348 -12.76263,6.89396 z"
         inkscape:connector-curvature="0"
         style="fill:#2d2d2d" />
      <path
         id="path4080"
         d="m 1046.5138,391.57141 c 0.3696,0.84231 0.6963,1.58799 1.0651,2.42885 -4.5414,2.02027 -9.2284,3.38249 -14.1738,4.22232 -0.078,-0.45482 -0.1508,-0.87217 -0.2204,-1.2898 -0.07,-0.4256 -0.1374,-0.85109 -0.2155,-1.33877 4.6806,-0.78403 9.155,-2.1139 13.5446,-4.0226 z"
         inkscape:connector-curvature="0"
         style="fill:#2d2d2d" />
      <path
         id="path4082"
         d="m 1031.6104,387.08456 c -0.1445,-0.8736 -0.2816,-1.70138 -0.4336,-2.61861 4.4913,-0.77579 8.7638,-2.14639 12.8749,-4.20176 0.4028,0.80945 0.7743,1.55605 1.1845,2.38028 -4.3332,2.18174 -8.8358,3.63209 -13.6258,4.44009 z"
         inkscape:connector-curvature="0"
         style="fill:#2d2d2d" />
      <path
         id="path4084"
         d="m 994.63403,300.07342 c -0.54772,-0.74881 -1.04022,-1.4222 -1.56781,-2.14442 3.88176,-2.85382 8.00688,-5.07392 12.50208,-6.75646 0.3171,0.85921 0.6078,1.6452 0.9217,2.49591 -4.2302,1.59414 -8.14012,3.70267 -11.85597,6.40497 z"
         inkscape:connector-curvature="0"
         style="fill:#2d2d2d" />
      <path
         id="path4086"
         d="m 1085.9207,329.46223 c -0.8896,0.14458 -1.7169,0.27921 -2.3781,0.38659 -1.2227,-4.35431 -2.4289,-8.65127 -3.6696,-13.06976 0.5888,-0.24018 1.3769,-0.56154 2.2202,-0.9057 1.8028,4.42661 3.0614,8.91371 3.8275,13.58887 z"
         inkscape:connector-curvature="0"
         style="fill:#2d2d2d" />
      <path
         id="path4088"
         d="m 975.99077,382.9547 c -0.52363,0.46858 -1.13057,1.01152 -1.81431,1.62335 -3.04462,-3.31557 -5.6627,-6.88676 -7.97433,-10.76098 0.78992,-0.46844 1.50831,-0.89509 2.10657,-1.25 2.5645,3.46828 5.08541,6.87681 7.68207,10.38763 z"
         inkscape:connector-curvature="0"
         style="fill:#2d2d2d" />
      <path
         id="path4090"
         d="m 1076.2044,367.30562 c -0.8102,-0.42234 -1.532,-0.7991 -2.1506,-1.1215 1.5406,-3.95621 3.0669,-7.87641 4.6354,-11.90373 0.6231,0.16343 1.4526,0.38043 2.3362,0.61249 -1.1354,4.33481 -2.7299,8.41843 -4.821,12.41274 z"
         inkscape:connector-curvature="0"
         style="fill:#2d2d2d" />
      <path
         id="path4092"
         d="m 1028.9664,384.76925 c 0.1072,0.92599 0.2028,1.76072 0.3046,2.64506 -4.4277,0.51244 -8.7854,0.41303 -13.2065,-0.28155 0.1383,-0.87191 0.2696,-1.69983 0.4158,-2.62124 4.1371,0.63672 8.2705,0.74371 12.4861,0.25773 z"
         inkscape:connector-curvature="0"
         style="fill:#2d2d2d" />
      <path
         id="path4094"
         d="m 1056.5486,314.15795 c 0.7406,-0.57175 1.384,-1.06807 2.0968,-1.61797 2.7529,3.50978 4.8597,7.30374 6.4627,11.49173 -0.8407,0.31928 -1.6183,0.61484 -2.4816,0.94277 -1.5014,-3.90109 -3.5063,-7.4766 -6.0779,-10.81653 z"
         inkscape:connector-curvature="0"
         style="fill:#2d2d2d" />
      <path
         id="path4096"
         d="m 1007.7603,297.09218 c -1.9424,0.92469 -3.8258,1.73244 -5.622,2.70244 -1.7956,0.9696 -3.50332,2.10171 -5.31965,3.20477 -0.46757,-0.63581 -0.96102,-1.3063 -1.50864,-2.05091 3.5787,-2.6384 7.39799,-4.6952 11.56079,-6.24534 0.3153,0.84625 0.6075,1.63172 0.8895,2.38904 z"
         inkscape:connector-curvature="0"
         style="fill:#2d2d2d" />
      <path
         id="path4098"
         d="m 994.41305,367.68618 c 0.6551,-0.65478 1.22773,-1.22771 1.85918,-1.85919 2.9009,2.96422 6.10867,5.43707 9.81807,7.39474 -0.4127,0.78822 -0.8073,1.54202 -1.2339,2.35683 -3.9566,-2.08693 -7.40501,-4.68406 -10.44335,-7.89238 z"
         inkscape:connector-curvature="0"
         style="fill:#2d2d2d" />
      <path
         id="path4100"
         d="m 968.33604,344.47421 c -0.35459,-4.22584 -0.24737,-8.33541 0.33568,-12.52707 0.86884,0.12166 1.71748,0.2403 2.41377,0.33774 -0.10921,3.99248 -0.21659,7.92341 -0.32742,11.96998 -0.64521,0.0583 -1.49514,0.13541 -2.42203,0.21935 z"
         inkscape:connector-curvature="0"
         style="fill:#2d2d2d" />
      <path
         id="path4102"
         d="m 972.09088,344.14119 c -0.33791,-3.9147 -0.22922,-7.73654 0.30077,-11.61456 0.88157,0.12139 1.7095,0.23572 2.43346,0.33484 -0.0982,3.69666 -0.19475,7.34028 -0.29388,11.06966 -0.7011,0.0606 -1.55431,0.13398 -2.44035,0.21006 z"
         inkscape:connector-curvature="0"
         style="fill:#2d2d2d" />
      <path
         id="path4104"
         d="m 1057.2759,298.66367 c 0.5039,-0.60844 1.0335,-1.24737 1.6037,-1.93515 2.8964,2.35329 5.4487,4.91481 7.8159,7.81864 -0.6761,0.56404 -1.3124,1.09415 -1.9284,1.60789 -2.5079,-2.50821 -4.9744,-4.97479 -7.4912,-7.49138 z"
         inkscape:connector-curvature="0"
         style="fill:#2d2d2d" />
      <path
         id="path4106"
         d="m 1028.1355,377.38616 c 0.097,0.82857 0.192,1.63958 0.2982,2.5483 -3.7415,0.4421 -7.4223,0.35777 -11.1561,-0.22813 0.1395,-0.88528 0.2706,-1.71502 0.3996,-2.53442 1.7714,0.12559 3.5025,0.31627 5.237,0.35254 1.7116,0.0359 3.4267,-0.0842 5.2213,-0.13829 z"
         inkscape:connector-curvature="0"
         style="fill:#2d2d2d" />
      <path
         id="path4108"
         d="m 1001.1943,308.95425 c -0.3967,-0.53954 -0.8905,-1.21174 -1.4265,-1.94195 3.016,-2.23177 6.2258,-3.94548 9.7725,-5.27926 0.3089,0.8321 0.6051,1.63094 0.8428,2.27197 -3.0863,1.66236 -6.0945,3.28256 -9.1888,4.94924 z"
         inkscape:connector-curvature="0"
         style="fill:#2d2d2d" />
      <path
         id="path4110"
         d="m 976.12172,333.01352 c 0.88656,0.12048 1.71458,0.23323 2.44706,0.3329 -0.0944,3.41194 -0.1877,6.77845 -0.28391,10.26491 -0.68392,0.0627 -1.53324,0.1404 -2.44654,0.2238 -0.3214,-3.6347 -0.22132,-7.19515 0.28339,-10.82161 z"
         inkscape:connector-curvature="0"
         style="fill:#2d2d2d" />
      <path
         id="path4112"
         d="m 964.39075,306.28615 c -0.68519,-0.38463 -1.39437,-0.78273 -2.1983,-1.23389 1.70812,-3.09962 3.66679,-5.97818 5.8626,-8.80043 0.71417,0.55264 1.3733,1.06298 2.00442,1.55171 -1.89299,2.83247 -3.75218,5.6136 -5.66872,8.48261 z"
         inkscape:connector-curvature="0"
         style="fill:#2d2d2d" />
      <path
         id="path4114"
         d="m 1076.1746,386.90018 c -0.6855,-0.61393 -1.29,-1.15492 -1.8912,-1.69275 2.0671,-2.67008 4.1107,-5.309 6.2123,-8.02438 0.6383,0.41526 1.3339,0.86864 2.1142,1.37675 -1.9085,2.95975 -4.0538,5.67265 -6.4353,8.34038 z"
         inkscape:connector-curvature="0"
         style="fill:#2d2d2d" />
      <path
         id="path4116"
         d="m 1054.8984,301.59369 c 0.4915,-0.60319 1.0057,-1.23479 1.5848,-1.94589 2.6993,2.1549 5.0558,4.58245 7.3138,7.28134 -0.7007,0.57202 -1.3581,1.10842 -1.9615,1.60108 -2.3277,-2.32724 -4.5882,-4.58782 -6.9371,-6.93653 z"
         inkscape:connector-curvature="0"
         style="fill:#2d2d2d" />
      <path
         id="path4118"
         d="m 1030.3801,379.65983 c -0.1517,-0.92102 -0.2883,-1.74853 -0.4005,-2.42977 3.0622,-0.91433 6.046,-1.8055 9.1202,-2.72364 0.279,0.63187 0.6156,1.39535 0.9891,2.24263 -3.1112,1.39718 -6.3049,2.33418 -9.7088,2.91078 z"
         inkscape:connector-curvature="0"
         style="fill:#2d2d2d" />
      <path
         id="path4120"
         d="m 1049.1569,303.48262 c -0.5299,0.75654 -0.9978,1.42403 -1.4259,2.03559 -2.7219,-1.49252 -5.405,-2.96356 -8.2083,-4.50086 0.2604,-0.64495 0.5786,-1.43331 0.925,-2.29095 3.1006,1.24029 5.9472,2.81845 8.7092,4.75622 z"
         inkscape:connector-curvature="0"
         style="fill:#2d2d2d" />
      <path
         id="path4122"
         d="m 1052.5117,304.5156 c 0.5062,-0.61064 1.0369,-1.25168 1.6154,-1.94928 2.4988,2.01659 4.6828,4.22742 6.7427,6.7372 -0.6768,0.55774 -1.3179,1.08497 -1.9582,1.61221 -2.1309,-2.13145 -4.2366,-4.23712 -6.3999,-6.40013 z"
         inkscape:connector-curvature="0"
         style="fill:#2d2d2d" />
      <path
         id="path4124"
         d="m 1068.7017,380.16702 c 1.8655,-2.41326 3.6647,-4.7401 5.5289,-7.15076 0.6498,0.42469 1.3633,0.89024 2.2384,1.46253 -1.95,2.5183 -3.8381,4.9554 -5.7783,7.46074 -0.7687,-0.68464 -1.3754,-1.22588 -1.989,-1.77251 z"
         inkscape:connector-curvature="0"
         style="fill:#2d2d2d" />
      <path
         id="path4126"
         d="m 982.00556,342.22843 c -0.74176,0.0453 -1.5794,0.097 -2.50559,0.15466 -0.20206,-2.97494 -0.0662,-5.89214 0.33799,-8.86696 0.88768,0.12219 1.71792,0.2369 2.50104,0.34481 -0.11146,2.79476 -0.22158,5.54956 -0.33344,8.36749 z"
         inkscape:connector-curvature="0"
         style="fill:#2d2d2d" />
      <path
         id="path4128"
         d="m 1050.1441,307.44773 c 0.5046,-0.6197 1.03,-1.26491 1.6519,-2.02919 2.0874,2.08747 4.119,4.119 6.2249,6.22517 -0.726,0.60477 -1.3639,1.13566 -2.0088,1.67206 -1.9647,-1.96422 -3.8893,-3.88981 -5.868,-5.86804 z"
         inkscape:connector-curvature="0"
         style="fill:#2d2d2d" />
      <path
         id="path4130"
         d="m 975.80084,368.12031 c 0.89679,-0.52959 1.61612,-0.95442 2.30474,-1.36116 1.53324,2.18514 3.02667,4.31345 4.57899,6.52544 -0.59724,0.49855 -1.23436,1.03037 -2.04277,1.70519 -1.61654,-2.29423 -3.1944,-4.53294 -4.84096,-6.86947 z"
         inkscape:connector-curvature="0"
         style="fill:#2d2d2d" />
      <path
         id="path4132"
         d="m 983.11483,342.19648 c 0.10695,-2.75835 0.20971,-5.40786 0.3171,-8.17564 1.00495,0.13633 1.85042,0.25052 2.65126,0.35922 -0.10098,2.55445 -0.20035,5.07366 -0.30214,7.65286 -0.77066,0.0471 -1.60667,0.0985 -2.66622,0.16356 z"
         inkscape:connector-curvature="0"
         style="fill:#2d2d2d" />
      <path
         id="path4134"
         d="m 1047.757,310.35759 c 0.5276,-0.63278 1.0589,-1.26909 1.6755,-2.00836 1.9263,1.92612 3.7779,3.77786 5.6972,5.69676 -0.7533,0.61694 -1.3957,1.14325 -2.0251,1.65869 -1.8003,-1.79985 -3.547,-3.54657 -5.3476,-5.34709 z"
         inkscape:connector-curvature="0"
         style="fill:#2d2d2d" />
      <path
         id="path4136"
         d="m 979.05527,366.19302 c 0.8832,-0.52422 1.58095,-0.93779 2.29201,-1.36052 1.43015,2.03415 2.83071,4.02536 4.26541,6.06527 -0.65157,0.5305 -1.29601,1.05538 -2.07174,1.68634 -1.50984,-2.15123 -2.96775,-4.2286 -4.48568,-6.39109 z"
         inkscape:connector-curvature="0"
         style="fill:#2d2d2d" />
      <path
         id="path4138"
         d="m 984.58623,362.90599 c 1.34975,1.92363 2.62504,3.74053 3.93507,5.60759 -0.62166,0.51753 -1.2464,1.03756 -2.0426,1.70139 -1.39979,-1.98479 -2.77069,-3.92832 -4.18681,-5.93575 0.8673,-0.51965 1.5843,-0.94826 2.29434,-1.37323 z"
         inkscape:connector-curvature="0"
         style="fill:#2d2d2d" />
      <path
         id="path4140"
         d="m 1050.4407,274.31171 c -0.3586,0.8892 -0.6708,1.66211 -0.9964,2.46815 -2.1436,-0.75052 -4.2399,-1.48519 -6.4416,-2.25626 0.2296,-0.78247 0.4714,-1.60449 0.7504,-2.55444 2.2356,0.78285 4.4228,1.54909 6.6876,2.34255 z"
         inkscape:connector-curvature="0"
         style="fill:#2d2d2d" />
      <path
         id="path4142"
         d="m 1061.2902,344.79689 c 0.1049,-2.23765 0.206,-4.40133 0.3104,-6.61739 0.7944,-0.032 1.6351,-0.0663 2.6572,-0.10819 -0.106,2.35525 -0.2087,4.6635 -0.3159,7.0604 -0.9766,-0.12337 -1.8058,-0.22825 -2.6517,-0.33486 z"
         inkscape:connector-curvature="0"
         style="fill:#2d2d2d" />
      <path
         id="path4144"
         d="m 1030.0022,269.34766 c -0.088,0.97314 -0.1633,1.80747 -0.2401,2.65385 -2.2634,-0.0891 -4.4793,-0.17641 -6.7306,-0.26506 0.042,-0.83577 0.086,-1.69249 0.1346,-2.65293 2.1335,0.0824 4.4239,0.17077 6.8361,0.26414 z"
         inkscape:connector-curvature="0"
         style="fill:#2d2d2d" />
      <path
         id="path4146"
         d="m 1060.3713,349.42635 c 0.7971,0.20913 1.6056,0.42206 2.5779,0.67731 -0.796,2.22312 -1.5668,4.37736 -2.3763,6.64016 -0.9057,-0.41658 -1.6792,-0.77278 -2.4283,-1.11771 0.7448,-2.07527 1.4691,-4.09017 2.2267,-6.19976 z"
         inkscape:connector-curvature="0"
         style="fill:#2d2d2d" />
      <path
         id="path4148"
         d="m 1023.0077,275.4864 c 0.021,-0.87624 0.044,-1.71345 0.068,-2.65935 2.1514,0.0848 4.3369,0.17117 6.597,0.26008 -0.081,0.94224 -0.1553,1.77421 -0.2318,2.65004 -2.1338,-0.083 -4.2422,-0.16539 -6.4327,-0.25077 z"
         inkscape:connector-curvature="0"
         style="fill:#2d2d2d" />
      <path
         id="path4150"
         d="m 1041.9727,278.12909 c 0.2406,-0.81847 0.4761,-1.61914 0.7497,-2.55116 2.1101,0.73873 4.1679,1.45965 6.2889,2.20204 -0.3564,0.88252 -0.6684,1.65727 -0.9971,2.47155 -2.0175,-0.70874 -4.0037,-1.4066 -6.0415,-2.12243 z"
         inkscape:connector-curvature="0"
         style="fill:#2d2d2d" />
      <path
         id="path4152"
         d="m 981.48649,325.99659 c 0.84607,-2.07082 1.66272,-4.07 2.53028,-6.194 0.87376,0.43622 1.63401,0.81573 2.39195,1.19446 -0.79663,1.94053 -1.57081,3.82722 -2.38748,5.81684 -0.75767,-0.24424 -1.56754,-0.50575 -2.53475,-0.8173 z"
         inkscape:connector-curvature="0"
         style="fill:#2d2d2d" />
      <path
         id="path4154"
         d="m 1034.2415,296.61197 c -0.2349,0.97876 -0.4251,1.77132 -0.622,2.59164 -2.0427,-0.3384 -4.0725,-0.67469 -6.1825,-1.02422 0.073,-0.81246 0.1516,-1.66446 0.2416,-2.65306 2.2032,0.36432 4.3338,0.71673 6.5629,1.08564 z"
         inkscape:connector-curvature="0"
         style="fill:#2d2d2d" />
      <path
         id="path4156"
         d="m 1023.3691,280.35615 c 1.7658,0.0727 3.682,0.15113 5.6737,0.23271 -0.078,0.91749 -0.1485,1.75064 -0.2243,2.64586 -1.8912,-0.0727 -3.746,-0.14431 -5.6868,-0.2187 0.076,-0.8486 0.1523,-1.70479 0.2374,-2.65987 z"
         inkscape:connector-curvature="0"
         style="fill:#2d2d2d" />
      <path
         id="path4158"
         d="m 1067.5777,303.82376 c -1.3066,-1.44851 -2.5343,-2.80942 -3.7896,-4.20175 0.6131,-0.61315 1.1989,-1.19904 1.8785,-1.87858 1.331,1.46907 2.6262,2.89847 3.9771,4.38954 -0.7407,0.6062 -1.3852,1.13396 -2.066,1.69079 z"
         inkscape:connector-curvature="0"
         style="fill:#2d2d2d" />
      <path
         id="path4160"
         d="m 1046.1682,284.74687 c -0.3705,0.9112 -0.6851,1.68451 -1.0053,2.47143 -1.7952,-0.63017 -3.5281,-1.23807 -5.333,-1.87151 0.2335,-0.80866 0.4652,-1.61037 0.7377,-2.55091 1.8601,0.64837 3.6806,1.2822 5.6006,1.95099 z"
         inkscape:connector-curvature="0"
         style="fill:#2d2d2d" />
      <path
         id="path4162"
         d="m 998.99532,389.54852 c 0.4215,-0.85672 0.78094,-1.58864 1.17488,-2.38957 1.6276,0.70101 3.2374,1.39443 4.9175,2.11757 -0.2874,0.77919 -0.5761,1.56285 -0.9193,2.49434 -1.7203,-0.73952 -3.3965,-1.45913 -5.17308,-2.22234 z"
         inkscape:connector-curvature="0"
         style="fill:#2d2d2d" />
      <path
         id="path4164"
         d="m 973.27821,355.91434 c -0.81718,0.26152 -1.61243,0.51531 -2.53226,0.81037 -0.48193,-1.80721 -0.95225,-3.56936 -1.44287,-5.4114 0.91519,-0.195 1.72961,-0.36905 2.60156,-0.55566 0.45863,1.72116 0.90814,3.4096 1.37357,5.15669 z"
         inkscape:connector-curvature="0"
         style="fill:#2d2d2d" />
      <path
         id="path4166"
         d="m 979.13084,284.91568 c 0.60394,0.74567 1.11484,1.37675 1.6714,2.06427 -1.27683,1.12703 -2.51566,2.22051 -3.76421,3.32316 -0.62766,-0.62754 -1.2285,-1.2285 -1.89048,-1.89048 1.34733,-1.18228 2.62804,-2.30681 3.98329,-3.49695 z"
         inkscape:connector-curvature="0"
         style="fill:#2d2d2d" />
      <path
         id="path4168"
         d="m 953.20121,343.97396 c 0.91975,-0.0589 1.753,-0.11271 2.65409,-0.1709 0.16922,1.71605 0.3349,3.40134 0.50635,5.14202 -0.86876,0.11917 -1.69807,0.23363 -2.63054,0.36223 -0.17695,-1.78311 -0.3502,-3.52366 -0.5299,-5.33335 z"
         inkscape:connector-curvature="0"
         style="fill:#2d2d2d" />
      <path
         id="path4170"
         d="m 953.081,340.31436 c 0.0439,-1.63146 0.0901,-3.34267 0.13869,-5.14057 0.90858,0.0547 1.74157,0.10481 2.64937,0.1595 -0.0404,1.69969 -0.0808,3.37751 -0.12175,5.06816 -0.85475,-0.0273 -1.70863,-0.0555 -2.66631,-0.0871 z"
         inkscape:connector-curvature="0"
         style="fill:#2d2d2d" />
      <path
         id="path4172"
         d="m 974.33123,355.57111 c -0.45613,-1.71764 -0.88888,-3.34766 -1.34776,-5.07628 0.92516,-0.19369 1.76211,-0.36852 2.60577,-0.54532 0.42913,1.61667 0.84202,3.17126 1.27503,4.80285 -0.80918,0.26191 -1.60297,0.51847 -2.53304,0.81875 z"
         inkscape:connector-curvature="0"
         style="fill:#2d2d2d" />
      <path
         id="path4174"
         d="m 1000.6848,386.17572 c 0.4216,-0.85317 0.7912,-1.60068 1.1802,-2.38761 1.5143,0.65361 2.9827,1.28758 4.5508,1.96449 -0.2911,0.78587 -0.5855,1.58182 -0.9238,2.49631 -1.6047,-0.69212 -3.1431,-1.35554 -4.8072,-2.07319 z"
         inkscape:connector-curvature="0"
         style="fill:#2d2d2d" />
      <path
         id="path4176"
         d="m 956.94934,343.77988 c 0.92956,-0.0575 1.76333,-0.10899 2.65264,-0.16357 0.16044,1.61679 0.31512,3.18225 0.47633,4.80926 -0.85569,0.11564 -1.68241,0.22748 -2.632,0.35569 -0.16654,-1.67665 -0.32871,-3.31047 -0.49697,-5.00138 z"
         inkscape:connector-curvature="0"
         style="fill:#2d2d2d" />
      <path
         id="path4178"
         d="m 959.6177,335.5973 c -0.0447,1.65359 -0.086,3.21106 -0.12793,4.78163 -0.85527,-0.0417 -1.68981,-0.0819 -2.64637,-0.12834 0.0352,-1.46566 0.0748,-3.11036 0.11445,-4.82222 0.93162,0.0591 1.76556,0.11214 2.65985,0.16893 z"
         inkscape:connector-curvature="0"
         style="fill:#2d2d2d" />
      <path
         id="path4180"
         d="m 1071.67,342.6145 c -0.9422,-0.0559 -1.7775,-0.10527 -2.4589,-0.14589 -0.056,-1.53888 -0.1083,-3.01397 -0.1646,-4.55312 0.8693,-0.0367 1.7046,-0.0713 2.5148,-0.10537 0.037,1.60789 0.072,3.17676 0.1083,4.80442 z"
         inkscape:connector-curvature="0"
         style="fill:#2d2d2d" />
      <path
         id="path4182"
         d="m 1002.3513,382.80542 c 0.4302,-0.8731 0.7988,-1.62085 1.1796,-2.39415 1.4078,0.60973 2.76,1.19538 4.1861,1.8127 -0.2899,0.79137 -0.5757,1.5724 -0.9116,2.4908 -1.4733,-0.63134 -2.9137,-1.24868 -4.4541,-1.90935 z"
         inkscape:connector-curvature="0"
         style="fill:#2d2d2d" />
      <path
         id="path4184"
         d="m 980.44997,353.61658 c -0.81511,0.25941 -1.60906,0.51295 -2.52967,0.8059 -0.42123,-1.57357 -0.82646,-3.08717 -1.25242,-4.67726 0.90676,-0.19276 1.72171,-0.36601 2.60122,-0.55316 0.39302,1.47248 0.77779,2.91523 1.18087,4.42452 z"
         inkscape:connector-curvature="0"
         style="fill:#2d2d2d" />
      <path
         id="path4186"
         d="m 963.37109,335.82045 c -0.0404,1.54398 -0.0791,3.02314 -0.11918,4.56659 -0.855,-0.0415 -1.69376,-0.0819 -2.64635,-0.12872 0.0327,-1.43084 0.0679,-2.97783 0.10447,-4.60078 0.92749,0.0561 1.78104,0.10853 2.66107,0.16291 z"
         inkscape:connector-curvature="0"
         style="fill:#2d2d2d" />
      <path
         id="path4188"
         d="m 960.69773,343.51745 c 0.94469,-0.0562 1.78189,-0.10617 2.65917,-0.15926 0.14995,1.53129 0.29535,3.01712 0.44582,4.55232 -0.86326,0.1163 -1.69152,0.22774 -2.62977,0.35333 -0.1588,-1.5813 -0.31194,-3.11624 -0.47522,-4.74639 z"
         inkscape:connector-curvature="0"
         style="fill:#2d2d2d" />
      <path
         id="path4190"
         d="m 1027.7922,276.74109 c -0.059,0.92796 -0.1117,1.76046 -0.1686,2.64874 -1.5088,-0.0386 -2.9797,-0.0763 -4.5264,-0.11603 0.077,-0.86025 0.1532,-1.7179 0.2371,-2.65738 1.2994,0.0363 2.8449,0.0797 4.4579,0.12467 z"
         inkscape:connector-curvature="0"
         style="fill:#2d2d2d" />
      <path
         id="path4192"
         d="m 1046.1162,280.70647 c -0.3387,0.89679 -0.6257,1.65621 -0.94,2.48792 -1.4268,-0.47707 -2.8212,-0.94355 -4.285,-1.43294 0.2375,-0.81258 0.472,-1.61548 0.7453,-2.54894 1.4773,0.49279 2.9367,0.9793 4.4797,1.49396 z"
         inkscape:connector-curvature="0"
         style="fill:#2d2d2d" />
      <path
         id="path4194"
         d="m 1067.8115,379.39687 c -0.7127,-0.65111 -1.3108,-1.19746 -1.9655,-1.7958 0.9017,-1.08707 1.7754,-2.13971 2.7079,-3.26332 0.6851,0.52081 1.3452,1.02278 2.1166,1.60893 -0.9565,1.15374 -1.8736,2.26084 -2.859,3.45019 z"
         inkscape:connector-curvature="0"
         style="fill:#2d2d2d" />
      <path
         id="path4196"
         d="m 984.80213,298.48032 c -0.65449,-0.65452 -1.22825,-1.22784 -1.88395,-1.88395 1.11811,-0.98858 2.17853,-1.92571 3.33533,-2.94808 0.57256,0.69603 1.09679,1.33352 1.68809,2.05261 -1.05973,0.9383 -2.09599,1.85592 -3.13947,2.77942 z"
         inkscape:connector-curvature="0"
         style="fill:#2d2d2d" />
      <path
         id="path4198"
         d="m 1054.125,296.40689 c -1.1565,-0.75 -2.2037,-1.42953 -3.327,-2.15844 0.4232,-0.72367 0.844,-1.44248 1.3376,-2.2865 1.1533,0.73872 2.2763,1.45833 3.5208,2.25586 -0.5261,0.75249 -1.0114,1.4459 -1.5314,2.18908 z"
         inkscape:connector-curvature="0"
         style="fill:#2d2d2d" />
      <path
         id="path4200"
         d="m 1063.0392,375.09272 c 0.8655,-1.03588 1.6773,-2.00836 2.5407,-3.04265 0.679,0.51884 1.3394,1.02316 2.1077,1.61051 -0.8822,1.0648 -1.7338,2.09255 -2.6535,3.20307 -0.688,-0.61066 -1.3214,-1.17325 -1.9949,-1.77093 z"
         inkscape:connector-curvature="0"
         style="fill:#2d2d2d" />
      <path
         id="path4202"
         d="m 1019.2602,286.96987 c -1.3282,0.16082 -2.5921,0.31338 -3.9332,0.47576 -0.1395,-0.86195 -0.2759,-1.70504 -0.4257,-2.62856 1.3931,-0.16762 2.7271,-0.32779 4.1361,-0.49724 0.078,0.93621 0.1507,1.79044 0.2228,2.65004 z"
         inkscape:connector-curvature="0"
         style="fill:#2d2d2d" />
      <path
         id="path4204"
         d="m 1019.3147,299.39192 c 1.4066,-0.077 2.6992,-0.14759 4.0263,-0.22015 -0.029,0.93583 -0.055,1.77408 -0.082,2.6604 -1.1362,0.0651 -2.3778,0.13685 -3.6596,0.21032 -0.094,-0.8714 -0.1823,-1.70441 -0.284,-2.65057 z"
         inkscape:connector-curvature="0"
         style="fill:#2d2d2d" />
      <path
         id="path4206"
         d="m 980.5854,310.91376 c 0.80092,-1.09519 1.53323,-2.09727 2.31628,-3.16758 0.72895,0.57621 1.3819,1.09218 2.08136,1.64508 -0.73618,1.01531 -1.43358,1.97942 -2.17655,3.00493 -0.73041,-0.48716 -1.42266,-0.94943 -2.22109,-1.48243 z"
         inkscape:connector-curvature="0"
         style="fill:#2d2d2d" />
      <path
         id="path4208"
         d="m 1019.3442,288.06677 c 0.078,0.93817 0.1483,1.77172 0.2224,2.65462 -1.235,0.15165 -2.4167,0.29662 -3.6699,0.45023 -0.1358,-0.84624 -0.2666,-1.66787 -0.419,-2.61953 1.2693,-0.15938 2.5149,-0.31587 3.8665,-0.48532 z"
         inkscape:connector-curvature="0"
         style="fill:#2d2d2d" />
      <path
         id="path4210"
         d="m 1060.2473,372.57375 c 0.8062,-0.97248 1.5515,-1.87137 2.3515,-2.83717 0.684,0.52251 1.3454,1.02801 2.1121,1.6139 -0.8318,1.00145 -1.635,1.96908 -2.4787,2.98426 -0.695,-0.61668 -1.3026,-1.15557 -1.9849,-1.76099 z"
         inkscape:connector-curvature="0"
         style="fill:#2d2d2d" />
      <path
         id="path4212"
         d="m 1048.8381,297.46842 c 0.4592,-0.77121 0.8846,-1.48453 1.3617,-2.28546 1.0946,0.70769 2.1333,1.37924 3.2726,2.11601 -0.5301,0.75247 -1.0178,1.4438 -1.5334,2.17558 -1.0447,-0.67613 -2.0238,-1.30969 -3.1009,-2.00613 z"
         inkscape:connector-curvature="0"
         style="fill:#2d2d2d" />
      <path
         id="path4214"
         d="m 1061.747,369.04959 c -0.7994,0.96134 -1.5284,1.83915 -2.3315,2.80639 -0.6631,-0.60476 -1.2752,-1.1629 -1.9629,-1.78978 0.7255,-0.87649 1.4295,-1.72746 2.1784,-2.63315 0.7041,0.53835 1.365,1.04306 2.116,1.61654 z"
         inkscape:connector-curvature="0"
         style="fill:#2d2d2d" />
      <path
         id="path4216"
         d="m 985.8439,310.07276 c 0.74022,0.58053 1.39402,1.09402 2.09246,1.64246 -0.68116,0.94197 -1.31957,1.82397 -1.99746,2.76135 -0.73205,-0.48754 -1.4273,-0.95101 -2.21154,-1.47326 0.70944,-0.9827 1.38861,-1.92284 2.11654,-2.93055 z"
         inkscape:connector-curvature="0"
         style="fill:#2d2d2d" />
      <path
         id="path4218"
         d="m 1046.953,300.71785 c 0.4516,-0.76125 0.8755,-1.4764 1.3544,-2.28401 1.0161,0.6574 1.9859,1.28547 3.0168,1.95244 -0.5426,0.76687 -1.0225,1.44575 -1.5349,2.1702 -0.9635,-0.6244 -1.8737,-1.21423 -2.8363,-1.83863 z"
         inkscape:connector-curvature="0"
         style="fill:#2d2d2d" />
      <path
         id="path4220"
         d="m 1016.1051,292.24769 c 1.2228,-0.14589 2.3766,-0.28391 3.5927,-0.42914 0.076,0.9125 0.1457,1.74462 0.221,2.64454 -1.127,0.13777 -2.2289,0.27291 -3.3973,0.41632 -0.1375,-0.871 -0.271,-1.71331 -0.4164,-2.63172 z"
         inkscape:connector-curvature="0"
         style="fill:#2d2d2d" />
      <path
         id="path4222"
         d="m 1068.4817,332.33451 c -0.2291,-1.13056 -0.4448,-2.19811 -0.6731,-3.32604 0.8381,-0.20103 1.6502,-0.39588 2.5759,-0.61759 0.241,1.16722 0.4752,2.30025 0.7257,3.51422 -0.9033,0.14773 -1.744,0.2851 -2.6285,0.42941 z"
         inkscape:connector-curvature="0"
         style="fill:#2d2d2d" />
      <path
         id="path4224"
         d="m 992.13761,360.65851 c -0.76575,0.50773 -1.45834,0.967 -2.21962,1.47118 -0.55356,-0.91029 -1.06223,-1.74645 -1.6003,-2.63119 0.81219,-0.45402 1.53864,-0.85999 2.31533,-1.29424 0.50145,0.81808 0.97624,1.59256 1.50459,2.45425 z"
         inkscape:connector-curvature="0"
         style="fill:#2d2d2d" />
      <path
         id="path4226"
         d="m 1043.0996,307.18582 c 0.4747,-0.7885 0.894,-1.48519 1.3684,-2.27263 0.8618,0.55591 1.6859,1.08747 2.571,1.65857 -0.5363,0.75981 -1.0167,1.44065 -1.532,2.17165 -0.8174,-0.52867 -1.5803,-1.02224 -2.4074,-1.55759 z"
         inkscape:connector-curvature="0"
         style="fill:#2d2d2d" />
      <path
         id="path4228"
         d="m 1069.3989,373.21701 c 0.54,-0.78299 1.0429,-1.51228 1.598,-2.31727 0.7414,0.48506 1.4539,0.95075 2.2275,1.45663 -0.5714,0.82687 -1.0899,1.57712 -1.6787,2.42781 -0.7276,-0.53116 -1.4119,-1.03063 -2.1468,-1.56717 z"
         inkscape:connector-curvature="0"
         style="fill:#2d2d2d" />
      <path
         id="path4230"
         d="m 1074.0178,371.1441 c -0.7945,-0.49357 -1.4822,-0.92102 -2.2555,-1.40046 0.4658,-0.79988 0.9196,-1.57788 1.4219,-2.43933 0.7649,0.41618 1.4918,0.81194 2.3393,1.27304 -0.4955,0.84507 -0.9748,1.66145 -1.5057,2.56675 z"
         inkscape:connector-curvature="0"
         style="fill:#2d2d2d" />
      <path
         id="path4232"
         d="m 1006.2742,389.68694 c 0.8602,0.26977 1.6774,0.52579 2.5729,0.80683 -0.2443,0.85279 -0.4784,1.67036 -0.7318,2.5564 -0.9099,-0.28717 -1.754,-0.55316 -2.6965,-0.85017 0.2895,-0.84912 0.5629,-1.65307 0.8554,-2.51306 z"
         inkscape:connector-curvature="0"
         style="fill:#2d2d2d" />
      <path
         id="path4234"
         d="m 981.59242,375.9641 c 0.68347,-0.59756 1.30822,-1.14391 1.99573,-1.74461 0.61761,0.67784 1.19318,1.30983 1.7604,1.93305 -0.64667,0.64667 -1.23367,1.23349 -1.89109,1.89089 -0.63326,-0.70664 -1.2188,-1.35907 -1.86504,-2.07933 z"
         inkscape:connector-curvature="0"
         style="fill:#2d2d2d" />
      <path
         id="path4236"
         d="m 1075.7,349.45149 c 0.139,-0.89431 0.2673,-1.72064 0.4112,-2.64415 0.8476,0.10831 1.6923,0.21674 2.6389,0.33761 -0.1408,0.91185 -0.2753,1.78166 -0.4304,2.78583 -0.8576,-0.15675 -1.6913,-0.3097 -2.6197,-0.47929 z"
         inkscape:connector-curvature="0"
         style="fill:#2d2d2d" />
      <path
         id="path4238"
         d="m 1075.4414,350.69427 c 0.8635,0.1819 1.6822,0.35424 2.6097,0.55015 -0.2163,0.90832 -0.4253,1.78769 -0.6507,2.73582 -0.8802,-0.22969 -1.6876,-0.44027 -2.5677,-0.66957 0.2046,-0.87913 0.3983,-1.71135 0.6087,-2.6164 z"
         inkscape:connector-curvature="0"
         style="fill:#2d2d2d" />
      <path
         id="path4240"
         d="m 1009.4167,393.42222 c 0.2396,-0.91028 0.4527,-1.71802 0.6776,-2.57251 0.8758,0.20599 1.7121,0.40334 2.6113,0.61497 -0.1779,0.85553 -0.3477,1.67284 -0.5388,2.59399 -0.9063,-0.20953 -1.783,-0.41265 -2.7501,-0.63645 z"
         inkscape:connector-curvature="0"
         style="fill:#2d2d2d" />
      <path
         id="path4242"
         d="m 968.45513,345.81836 c 0.92533,-0.0983 1.7604,-0.18714 2.64017,-0.27986 0.12295,0.8867 0.23825,1.71907 0.36576,2.64284 -0.86102,0.14065 -1.70502,0.27894 -2.62375,0.42954 -0.12923,-0.94054 -0.24943,-1.82083 -0.38218,-2.79252 z"
         inkscape:connector-curvature="0"
         style="fill:#2d2d2d" />
      <path
         id="path4244"
         d="m 976.29472,363.26639 c -0.80118,0.39824 -1.54742,0.7682 -2.37267,1.17796 -0.39759,-0.84755 -0.77213,-1.64587 -1.19464,-2.54684 0.82938,-0.36184 1.60975,-0.70246 2.44068,-1.06456 0.38228,0.82556 0.74212,1.60304 1.12663,2.43344 z"
         inkscape:connector-curvature="0"
         style="fill:#2d2d2d" />
      <path
         id="path4246"
         d="m 1010.1463,288.55287 c -0.867,0.25001 -1.6685,0.48088 -2.547,0.73441 -0.2691,-0.85396 -0.5253,-1.66498 -0.7997,-2.53558 0.9134,-0.26506 1.7617,-0.511 2.6709,-0.77474 0.2341,0.89274 0.4509,1.71933 0.6758,2.57591 z"
         inkscape:connector-curvature="0"
         style="fill:#2d2d2d" />
      <path
         id="path4248"
         d="m 1072.6896,319.7163 c 0.8259,-0.33486 1.5961,-0.64693 2.4593,-0.99699 0.3307,0.87114 0.6427,1.69197 0.992,2.6126 -0.8525,0.29845 -1.6544,0.57935 -2.5132,0.88029 -0.3182,-0.84676 -0.6184,-1.64535 -0.9381,-2.4959 z"
         inkscape:connector-curvature="0"
         style="fill:#2d2d2d" />
      <path
         id="path4250"
         d="m 1074.7921,325.97669 c -0.2575,-0.86943 -0.4947,-1.66945 -0.7589,-2.55838 0.8356,-0.2678 1.6468,-0.52828 2.5324,-0.81219 0.2654,0.89915 0.5147,1.74618 0.79,2.68134 -0.8747,0.23494 -1.6959,0.45572 -2.5635,0.68923 z"
         inkscape:connector-curvature="0"
         style="fill:#2d2d2d" />
      <path
         id="path4252"
         d="m 973.72661,357.13735 c 0.32259,0.86327 0.60883,1.62818 0.93247,2.49275 -0.81227,0.3308 -1.5997,0.65139 -2.46021,1.00131 -0.34082,-0.90975 -0.65028,-1.73492 -0.98364,-2.62424 0.88726,-0.30709 1.69463,-0.58669 2.51138,-0.86982 z"
         inkscape:connector-curvature="0"
         style="fill:#2d2d2d" />
      <path
         id="path4254"
         d="m 1014.0156,287.68582 c -0.8992,0.18805 -1.721,0.35986 -2.5928,0.54229 -0.2045,-0.86511 -0.397,-1.68148 -0.6094,-2.58208 0.9116,-0.19434 1.7743,-0.37834 2.7074,-0.57713 0.1663,0.87977 0.3215,1.70179 0.4948,2.61692 z"
         inkscape:connector-curvature="0"
         style="fill:#2d2d2d" />
      <path
         id="path4256"
         d="m 1072.1746,318.52196 c -0.3923,-0.8482 -0.7341,-1.58785 -1.1131,-2.40711 0.7957,-0.39314 1.5607,-0.77134 2.3786,-1.17587 0.3999,0.8545 0.7652,1.63539 1.1758,2.51203 -0.8248,0.36169 -1.6045,0.70375 -2.4413,1.07095 z"
         inkscape:connector-curvature="0"
         style="fill:#2d2d2d" />
      <path
         id="path4258"
         d="m 1036.8404,285.72159 c 0.9032,0.23848 1.7548,0.46307 2.6922,0.71017 -0.2543,0.86393 -0.4939,1.6794 -0.7501,2.55027 -0.8595,-0.22891 -1.6631,-0.4425 -2.5609,-0.68217 0.2043,-0.85095 0.4026,-1.67702 0.6188,-2.57827 z"
         inkscape:connector-curvature="0"
         style="fill:#2d2d2d" />
      <path
         id="path4260"
         d="m 1070.7327,310.13457 c -0.7746,0.49043 -1.4761,0.9353 -2.2382,1.41813 -0.4912,-0.73558 -0.9516,-1.42467 -1.4742,-2.20689 0.7211,-0.50522 1.4136,-0.99068 2.1805,-1.52761 0.525,0.79439 1.0088,1.52527 1.5319,2.31637 z"
         inkscape:connector-curvature="0"
         style="fill:#2d2d2d" />
      <path
         id="path4262"
         d="m 1020.5402,286.89182 c -0.051,-0.90203 -0.098,-1.74081 -0.1501,-2.65148 0.9363,-0.0335 1.8226,-0.0656 2.7609,-0.0994 -0.051,0.91108 -0.099,1.76779 -0.1487,2.66524 -0.6812,0.0235 -1.5217,0.053 -2.4621,0.0856 z"
         inkscape:connector-curvature="0"
         style="fill:#2d2d2d" />
      <path
         id="path4264"
         d="m 1069.1684,312.64907 c 0.7746,-0.45743 1.4875,-0.87884 2.2847,-1.3495 0.4602,0.82018 0.8881,1.58353 1.3538,2.41353 -0.8051,0.4277 -1.5368,0.81691 -2.3426,1.24462 -0.4381,-0.78091 -0.8539,-1.52081 -1.2959,-2.30865 z"
         inkscape:connector-curvature="0"
         style="fill:#2d2d2d" />
      <path
         id="path4266"
         d="m 976.25775,326.82122 c -0.21281,0.87074 -0.39441,1.6151 -0.59724,2.44536 -0.85483,-0.18269 -1.6929,-0.36209 -2.60009,-0.55618 0.21074,-0.86811 0.40833,-1.68226 0.6268,-2.58194 0.87805,0.23678 1.70477,0.45966 2.57053,0.69276 z"
         inkscape:connector-curvature="0"
         style="fill:#2d2d2d" />
      <path
         id="path4268"
         d="m 975.27178,321.25491 c 0.34823,-0.85791 0.65227,-1.60685 0.99465,-2.44785 0.8207,0.35869 1.59962,0.69944 2.43278,1.06349 -0.31074,0.77592 -0.60179,1.50169 -0.93084,2.32305 -0.81366,-0.30591 -1.60882,-0.60476 -2.49659,-0.93869 z"
         inkscape:connector-curvature="0"
         style="fill:#2d2d2d" />
      <path
         id="path4270"
         d="m 980.89012,315.54113 c -0.77384,-0.43386 -1.50022,-0.84114 -2.31507,-1.29806 0.44135,-0.75024 0.85974,-1.4616 1.32997,-2.26056 0.75579,0.4734 1.45912,0.91473 2.24766,1.40856 -0.41495,0.70716 -0.81932,1.39549 -1.26256,2.15006 z"
         inkscape:connector-curvature="0"
         style="fill:#2d2d2d" />
      <path
         id="path4272"
         d="m 975.68742,359.22218 c -0.322,-0.86353 -0.6054,-1.62242 -0.92112,-2.46919 0.84847,-0.29767 1.64991,-0.57844 2.50294,-0.8778 0.29759,0.78561 0.57479,1.51687 0.88897,2.34726 -0.81193,0.32832 -1.59858,0.64654 -2.47079,0.99973 z"
         inkscape:connector-curvature="0"
         style="fill:#2d2d2d" />
      <path
         id="path4274"
         d="m 977.96045,315.31968 c 0.82233,0.4374 1.55576,0.82791 2.34611,1.24815 -0.36903,0.75025 -0.71399,1.45087 -1.09679,2.22862 -0.78716,-0.36432 -1.54252,-0.71411 -2.42229,-1.12087 0.38073,-0.76333 0.74813,-1.50311 1.17297,-2.3559 z"
         inkscape:connector-curvature="0"
         style="fill:#2d2d2d" />
      <path
         id="path4276"
         d="m 1011.6819,289.30679 c 0.8778,-0.18385 1.6936,-0.35502 2.5661,-0.53796 0.1661,0.90058 0.3171,1.7247 0.4807,2.61298 -0.8057,0.16958 -1.572,0.33132 -2.4254,0.51139 -0.2073,-0.86157 -0.4071,-1.69406 -0.6214,-2.58641 z"
         inkscape:connector-curvature="0"
         style="fill:#2d2d2d" />
      <path
         id="path4278"
         d="m 1068.7306,320.04421 c -0.3639,-0.78273 -0.686,-1.47615 -1.0499,-2.26018 0.7878,-0.39131 1.5494,-0.77017 2.3801,-1.18359 0.3803,0.819 0.7303,1.5724 1.1057,2.38093 -0.8334,0.3638 -1.5973,0.69708 -2.4359,1.06284 z"
         inkscape:connector-curvature="0"
         style="fill:#2d2d2d" />
      <path
         id="path4280"
         d="m 974.03167,324.92693 c 0.26964,-0.83981 0.5171,-1.61338 0.79576,-2.4815 0.84142,0.29466 1.64587,0.57582 2.51129,0.87859 -0.25399,0.78954 -0.49191,1.53154 -0.75803,2.36103 -0.85853,-0.25549 -1.67536,-0.49869 -2.54902,-0.75812 z"
         inkscape:connector-curvature="0"
         style="fill:#2d2d2d" />
      <path
         id="path4282"
         d="m 1009.9149,386.87557 c -0.2491,0.8664 -0.4797,1.66799 -0.7365,2.55875 -0.8249,-0.26008 -1.6144,-0.50863 -2.4775,-0.78089 0.2877,-0.84821 0.5552,-1.63631 0.8509,-2.50718 0.7732,0.23874 1.5168,0.46805 2.3631,0.72932 z"
         inkscape:connector-curvature="0"
         style="fill:#2d2d2d" />
      <path
         id="path4284"
         d="m 1010.3872,389.78162 c 0.2382,-0.90255 0.4516,-1.71095 0.6779,-2.5699 0.8224,0.19185 1.5871,0.36996 2.4278,0.56587 -0.1799,0.85161 -0.352,1.66799 -0.549,2.60119 -0.8432,-0.19657 -1.6533,-0.38554 -2.5567,-0.59716 z"
         inkscape:connector-curvature="0"
         style="fill:#2d2d2d" />
      <path
         id="path4286"
         d="m 1067.5469,312.14109 c -0.7869,0.49529 -1.4751,0.92796 -2.2377,1.40778 -0.4541,-0.67285 -0.8874,-1.31545 -1.38,-2.04633 0.7291,-0.51086 1.4253,-0.99815 2.1849,-1.53062 0.4942,0.74723 0.9388,1.42088 1.4328,2.16917 z"
         inkscape:connector-curvature="0"
         style="fill:#2d2d2d" />
      <path
         id="path4288"
         d="m 1072.5839,322.58503 c -0.8919,0.31155 -1.6625,0.58053 -2.5063,0.87533 -0.295,-0.77593 -0.572,-1.50484 -0.8763,-2.30655 0.8198,-0.33421 1.5918,-0.64889 2.4566,-1.00156 0.3116,0.81978 0.6063,1.59322 0.926,2.43278 z"
         inkscape:connector-curvature="0"
         style="fill:#2d2d2d" />
      <path
         id="path4290"
         d="m 1072.3816,346.28809 c 0.9126,0.12676 1.7391,0.24123 2.6331,0.36498 -0.1343,0.86498 -0.2587,1.66577 -0.4003,2.57802 -0.8675,-0.16042 -1.7053,-0.31522 -2.6126,-0.48297 0.1262,-0.82083 0.2454,-1.59099 0.3798,-2.46003 z"
         inkscape:connector-curvature="0"
         style="fill:#2d2d2d" />
      <path
         id="path4292"
         d="m 977.28953,362.76823 c -0.37858,-0.81756 -0.71838,-1.54974 -1.10263,-2.37766 0.82921,-0.36104 1.60752,-0.6997 2.43398,-1.05917 0.35682,0.76387 0.68657,1.47091 1.0482,2.24578 -0.78638,0.39313 -1.53013,0.76557 -2.37955,1.19105 z"
         inkscape:connector-curvature="0"
         style="fill:#2d2d2d" />
      <path
         id="path4294"
         d="m 986.26951,375.36105 c -0.62337,-0.62349 -1.19257,-1.19249 -1.83151,-1.83157 0.69258,-0.60607 1.31845,-1.15281 1.93744,-1.69392 0.60247,0.60253 1.15302,1.15294 1.70984,1.70989 -0.64771,0.64746 -1.23368,1.23375 -1.81577,1.8156 z"
         inkscape:connector-curvature="0"
         style="fill:#2d2d2d" />
      <path
         id="path4296"
         d="m 1071.7514,349.90315 c 0.8847,0.18624 1.7049,0.35857 2.6042,0.54845 -0.1959,0.84954 -0.3826,1.65753 -0.5865,2.54044 -0.868,-0.22669 -1.6759,-0.43714 -2.5653,-0.66867 0.1797,-0.79215 0.3516,-1.55354 0.5476,-2.42022 z"
         inkscape:connector-curvature="0"
         style="fill:#2d2d2d" />
      <path
         id="path4298"
         d="m 1050.3168,384.15493 c -0.7988,0.45101 -1.4874,0.84022 -2.271,1.28233 -0.4239,-0.79544 -0.825,-1.54621 -1.2534,-2.3495 0.7463,-0.41762 1.4275,-0.79975 2.1649,-1.21252 0.4685,0.78469 0.9046,1.51635 1.3595,2.27969 z"
         inkscape:connector-curvature="0"
         style="fill:#2d2d2d" />
      <path
         id="path4300"
         d="m 1054.5942,381.29327 c -0.57,-0.77331 -1.0644,-1.44381 -1.583,-2.14639 0.6548,-0.51296 1.2533,-0.98205 1.9328,-1.51452 0.5508,0.65427 1.0847,1.28809 1.7099,2.03101 -0.6847,0.54164 -1.3305,1.05328 -2.0597,1.6299 z"
         inkscape:connector-curvature="0"
         style="fill:#2d2d2d" />
      <path
         id="path4302"
         d="m 1073.7244,326.2826 c -0.9109,0.24226 -1.6956,0.45089 -2.5608,0.68125 -0.2375,-0.78746 -0.4619,-1.53208 -0.712,-2.36431 0.8324,-0.27291 1.6421,-0.53824 2.5321,-0.83026 0.2503,0.84965 0.4848,1.64573 0.7407,2.51332 z"
         inkscape:connector-curvature="0"
         style="fill:#2d2d2d" />
      <path
         id="path4304"
         d="m 972.54969,347.99066 c -0.12107,-0.9074 -0.2282,-1.70963 -0.34462,-2.57971 0.88853,-0.0977 1.71482,-0.18885 2.62709,-0.28981 0.11393,0.79542 0.22381,1.56388 0.34995,2.44248 -0.8637,0.14051 -1.70236,0.27657 -2.63242,0.42704 z"
         inkscape:connector-curvature="0"
         style="fill:#2d2d2d" />
      <path
         id="path4306"
         d="m 1011.1504,292.18549 c -0.8284,0.23795 -1.5608,0.4484 -2.3939,0.68752 -0.2666,-0.84191 -0.5237,-1.65359 -0.802,-2.53178 0.864,-0.25027 1.6624,-0.48205 2.5175,-0.72995 0.2325,0.88199 0.4456,1.68999 0.6784,2.57421 z"
         inkscape:connector-curvature="0"
         style="fill:#2d2d2d" />
      <path
         id="path4308"
         d="m 1051.4237,383.46924 c -0.5013,-0.78848 -0.9385,-1.47667 -1.4235,-2.24054 0.6781,-0.45678 1.3219,-0.89051 2.0299,-1.36759 0.5194,0.73271 1.0013,1.41303 1.5368,2.16878 -0.7221,0.48493 -1.3901,0.93333 -2.1432,1.43935 z"
         inkscape:connector-curvature="0"
         style="fill:#2d2d2d" />
      <path
         id="path4310"
         d="m 1023.0317,290.57328 c -0.6411,0.0211 -1.4241,0.0468 -2.2553,0.0741 -0.052,-0.88395 -0.099,-1.71815 -0.1545,-2.6482 0.8587,-0.0306 1.6828,-0.0604 2.5843,-0.0923 -0.06,0.91055 -0.1157,1.76282 -0.1745,2.66641 z"
         inkscape:connector-curvature="0"
         style="fill:#2d2d2d" />
      <path
         id="path4312"
         d="m 1065.9398,314.58697 c 0.7727,-0.45861 1.488,-0.88343 2.275,-1.35043 0.4215,0.74319 0.8167,1.43961 1.2634,2.22732 -0.7961,0.42286 -1.5447,0.82096 -2.3497,1.24867 -0.4068,-0.72747 -0.7859,-1.40477 -1.1887,-2.12556 z"
         inkscape:connector-curvature="0"
         style="fill:#2d2d2d" />
      <path
         id="path4314"
         d="m 1038.464,290.04238 c -0.264,0.89587 -0.4999,1.69485 -0.7533,2.55471 -0.8028,-0.21503 -1.5568,-0.41645 -2.3646,-0.63278 0.2086,-0.86301 0.4056,-1.67429 0.6249,-2.57999 0.8166,0.21555 1.5954,0.42117 2.493,0.65806 z"
         inkscape:connector-curvature="0"
         style="fill:#2d2d2d" />
      <path
         id="path4316"
         d="m 979.63237,358.87894 c 0.84048,-0.36392 1.60683,-0.69525 2.43476,-1.05302 0.32974,0.70978 0.63721,1.37008 0.97237,2.08994 -0.80445,0.40086 -1.55189,0.77251 -2.37766,1.18319 -0.35244,-0.75941 -0.67823,-1.46279 -1.02947,-2.22011 z"
         inkscape:connector-curvature="0"
         style="fill:#2d2d2d" />
      <path
         id="path4318"
         d="m 978.37678,323.67578 c 0.87899,0.30983 1.64458,0.57961 2.49907,0.88094 -0.22897,0.73389 -0.45115,1.44603 -0.69053,2.21238 -0.85346,-0.25352 -1.65326,-0.49134 -2.55564,-0.75916 0.24969,-0.78128 0.4864,-1.51909 0.7471,-2.33416 z"
         inkscape:connector-curvature="0"
         style="fill:#2d2d2d" />
      <path
         id="path4320"
         d="m 1064.3645,314.1611 c -0.7935,0.49725 -1.4822,0.92915 -2.2327,1.39914 -0.4353,-0.64888 -0.8399,-1.25181 -1.2915,-1.92506 0.7265,-0.51034 1.4066,-0.98767 2.176,-1.52814 0.466,0.70967 0.9001,1.37125 1.3482,2.05406 z"
         inkscape:connector-curvature="0"
         style="fill:#2d2d2d" />
      <path
         id="path4322"
         d="m 1015.4442,295.07191 c -0.775,0.16317 -1.4707,0.30918 -2.2491,0.47328 -0.2045,-0.86209 -0.4029,-1.6955 -0.6153,-2.58876 0.8048,-0.16788 1.5497,-0.32346 2.3786,-0.49646 0.163,0.87493 0.3158,1.69498 0.4858,2.61194 z"
         inkscape:connector-curvature="0"
         style="fill:#2d2d2d" />
      <path
         id="path4324"
         d="m 983.10218,313.97108 c 0.76911,0.48703 1.47537,0.93334 2.23992,1.41709 -0.39827,0.6739 -0.76841,1.30001 -1.17968,1.99526 -0.77495,-0.43884 -1.49918,-0.84834 -2.31635,-1.31115 0.42518,-0.71095 0.82199,-1.37491 1.25611,-2.1012 z"
         inkscape:connector-curvature="0"
         style="fill:#2d2d2d" />
      <path
         id="path4326"
         d="m 975.93695,344.98311 c 0.91158,-0.1003 1.74157,-0.19132 2.63277,-0.28837 0.10797,0.76676 0.20988,1.48688 0.32252,2.2903 -0.87418,0.13895 -1.71346,0.272 -2.62744,0.41737 -0.11248,-0.83066 -0.21693,-1.59964 -0.32785,-2.4193 z"
         inkscape:connector-curvature="0"
         style="fill:#2d2d2d" />
      <path
         id="path4328"
         d="m 980.82727,354.64956 c 0.27918,0.74633 0.52801,1.40963 0.80368,2.14547 -0.80789,0.33132 -1.57658,0.64666 -2.45953,1.00916 -0.28872,-0.76912 -0.55948,-1.49134 -0.85475,-2.27787 0.85157,-0.2978 1.6371,-0.5719 2.5106,-0.87676 z"
         inkscape:connector-curvature="0"
         style="fill:#2d2d2d" />
      <path
         id="path4330"
         d="m 1013.7367,386.7082 c -0.8199,-0.19382 -1.5593,-0.36853 -2.3652,-0.55893 0.225,-0.86378 0.4362,-1.67402 0.6673,-2.5606 0.7435,0.16971 1.4543,0.33185 2.2464,0.51296 -0.1813,0.86117 -0.3537,1.67912 -0.5485,2.60657 z"
         inkscape:connector-curvature="0"
         style="fill:#2d2d2d" />
      <path
         id="path4332"
         d="m 1066.7072,318.28742 c 0.3547,0.77121 0.6696,1.45532 1.0115,2.1976 -0.8255,0.3592 -1.587,0.69039 -2.4235,1.05419 -0.3278,-0.69407 -0.6367,-1.34781 -0.9747,-2.06453 0.7903,-0.39314 1.5327,-0.76256 2.3867,-1.18726 z"
         inkscape:connector-curvature="0"
         style="fill:#2d2d2d" />
      <path
         id="path4334"
         d="m 1012.139,295.81221 c -0.7946,0.2259 -1.478,0.4205 -2.2156,0.63004 -0.2687,-0.84494 -0.5221,-1.64285 -0.8043,-2.53127 0.8025,-0.23062 1.5486,-0.44486 2.3458,-0.67403 0.2323,0.8871 0.4441,1.69615 0.6741,2.57526 z"
         inkscape:connector-curvature="0"
         style="fill:#2d2d2d" />
      <path
         id="path4336"
         d="m 987.29768,371.03724 c 0.72749,-0.6223 1.34322,-1.14889 2.00537,-1.71606 0.51804,0.57583 0.99051,1.09978 1.49127,1.65634 -0.61942,0.61956 -1.20634,1.20677 -1.87975,1.87976 -0.56086,-0.63081 -1.08165,-1.21738 -1.61689,-1.82004 z"
         inkscape:connector-curvature="0"
         style="fill:#2d2d2d" />
      <path
         id="path4338"
         d="m 1008.7852,382.58999 c 0.7369,0.2297 1.4137,0.44119 2.1995,0.68687 -0.2372,0.82661 -0.4712,1.64378 -0.7313,2.54999 -0.7797,-0.24239 -1.5204,-0.47223 -2.33,-0.72393 0.2964,-0.8626 0.5728,-1.66969 0.8618,-2.51293 z"
         inkscape:connector-curvature="0"
         style="fill:#2d2d2d" />
      <path
         id="path4340"
         d="m 1047.9749,378.04448 c 0.6843,-0.44918 1.2745,-0.83707 1.9134,-1.25654 0.5206,0.74057 0.9998,1.42142 1.5229,2.16616 -0.6894,0.45954 -1.3157,0.87677 -2.006,1.33721 -0.4905,-0.7695 -0.9376,-1.47262 -1.4303,-2.24683 z"
         inkscape:connector-curvature="0"
         style="fill:#2d2d2d" />
      <path
         id="path4342"
         d="m 976.72859,329.50597 c 0.20928,-0.85869 0.37832,-1.55301 0.57195,-2.34884 0.85742,0.22681 1.68404,0.44552 2.56734,0.67927 -0.17893,0.75025 -0.34917,1.46423 -0.53248,2.23295 -0.88185,-0.19067 -1.71879,-0.37139 -2.60681,-0.56338 z"
         inkscape:connector-curvature="0"
         style="fill:#2d2d2d" />
      <path
         id="path4344"
         d="m 1047.0408,378.63038 c 0.4812,0.80774 0.9056,1.52067 1.3632,2.28834 -0.7271,0.40951 -1.3834,0.77906 -2.1081,1.18713 -0.4238,-0.78929 -0.8153,-1.51897 -1.2545,-2.3364 0.6697,-0.3811 1.2968,-0.73873 1.9994,-1.13907 z"
         inkscape:connector-curvature="0"
         style="fill:#2d2d2d" />
      <path
         id="path4346"
         d="m 1065.7002,363.02949 c -0.421,0.71816 -0.8016,1.36797 -1.2235,2.08733 -0.7627,-0.47093 -1.4675,-0.9057 -2.2509,-1.38893 0.382,-0.66736 0.74,-1.29308 1.1423,-1.99605 0.7842,0.43596 1.5277,0.84952 2.3321,1.29765 z"
         inkscape:connector-curvature="0"
         style="fill:#2d2d2d" />
      <path
         id="path4348"
         d="m 983.63089,318.33065 c -0.34892,0.70401 -0.66439,1.34007 -1.02345,2.06413 -0.77788,-0.36275 -1.5335,-0.71541 -2.41386,-1.12584 0.35614,-0.71554 0.70059,-1.4083 1.08475,-2.17978 0.78828,0.4158 1.52541,0.80486 2.35256,1.24149 z"
         inkscape:connector-curvature="0"
         style="fill:#2d2d2d" />
      <path
         id="path4350"
         d="m 1037.4229,293.66373 c -0.2541,0.86432 -0.489,1.66525 -0.7448,2.53716 -0.7277,-0.19041 -1.4322,-0.37467 -2.204,-0.57673 0.2095,-0.86366 0.4107,-1.69459 0.6265,-2.58562 0.7956,0.21425 1.5242,0.41016 2.3223,0.62519 z"
         inkscape:connector-curvature="0"
         style="fill:#2d2d2d" />
      <path
         id="path4352"
         d="m 1052.5705,374.71687 c 0.5931,0.72052 1.1071,1.34492 1.6913,2.05379 -0.6333,0.49791 -1.2211,0.95965 -1.8898,1.48452 -0.5388,-0.71672 -1.0363,-1.37871 -1.5935,-2.11966 0.5949,-0.47078 1.1601,-0.91814 1.792,-1.41865 z"
         inkscape:connector-curvature="0"
         style="fill:#2d2d2d" />
      <path
         id="path4354"
         d="m 1062.705,316.51518 c 0.776,-0.46163 1.4938,-0.88802 2.2859,-1.35881 0.403,0.71294 0.7739,1.37008 1.1878,2.10369 -0.8027,0.42561 -1.5387,0.81522 -2.3514,1.24645 -0.3807,-0.67587 -0.7375,-1.30839 -1.1223,-1.99133 z"
         inkscape:connector-curvature="0"
         style="fill:#2d2d2d" />
      <path
         id="path4356"
         d="m 982.13102,321.41283 c -0.28512,0.70456 -0.55115,1.36235 -0.84822,2.09755 -0.83231,-0.3143 -1.63117,-0.61603 -2.48686,-0.93935 0.3048,-0.75288 0.58123,-1.43529 0.89731,-2.21541 0.82482,0.35765 1.6083,0.69722 2.43777,1.05721 z"
         inkscape:connector-curvature="0"
         style="fill:#2d2d2d" />
      <path
         id="path4358"
         d="m 1023.043,294.33555 c -0.5444,0.0168 -1.252,0.0384 -2.0179,0.0618 -0.05,-0.87165 -0.098,-1.70309 -0.152,-2.65109 0.7924,-0.028 1.5416,-0.0543 2.2691,-0.0794 -0.034,0.88737 -0.065,1.74042 -0.099,2.66878 z"
         inkscape:connector-curvature="0"
         style="fill:#2d2d2d" />
      <path
         id="path4360"
         d="m 1065.7153,322.5595 c 0.8359,-0.33735 1.6096,-0.64968 2.467,-0.99528 0.2848,0.75536 0.5508,1.45913 0.8447,2.23779 -0.854,0.30133 -1.6388,0.57818 -2.5041,0.88383 -0.2734,-0.71908 -0.5299,-1.39613 -0.8076,-2.12634 z"
         inkscape:connector-curvature="0"
         style="fill:#2d2d2d" />
      <path
         id="path4362"
         d="m 1066.873,325.72852 c 0.8384,-0.27003 1.6308,-0.52539 2.5284,-0.81403 0.2324,0.78771 0.4508,1.52578 0.6844,2.31755 -0.881,0.23664 -1.6848,0.45272 -2.5655,0.68923 -0.2191,-0.74266 -0.4245,-1.43884 -0.6473,-2.19275 z"
         inkscape:connector-curvature="0"
         style="fill:#2d2d2d" />
      <path
         id="path4364"
         d="m 1061.5919,364.66724 c 0.7625,0.50314 1.4427,0.95218 2.2124,1.45964 -0.4442,0.65112 -0.8678,1.27133 -1.3408,1.96266 -0.736,-0.53301 -1.4098,-1.02042 -2.1495,-1.55603 0.4265,-0.62323 0.8239,-1.2035 1.2779,-1.86627 z"
         inkscape:connector-curvature="0"
         style="fill:#2d2d2d" />
      <path
         id="path4366"
         d="m 1006.8858,373.65127 c 0.6156,0.27907 1.1451,0.51939 1.7645,0.80042 -0.3433,0.80184 -0.6794,1.58562 -1.0475,2.446 -0.6355,-0.29163 -1.2256,-0.56207 -1.8879,-0.86523 0.3998,-0.81298 0.7663,-1.55878 1.1709,-2.38119 z"
         inkscape:connector-curvature="0"
         style="fill:#2d2d2d" />
      <path
         id="path4368"
         d="m 1035.2889,300.87971 c -0.2539,0.86223 -0.4901,1.6625 -0.7474,2.53717 -0.6169,-0.16135 -1.1961,-0.31338 -1.8463,-0.48363 0.2087,-0.863 0.4059,-1.67494 0.626,-2.586 0.6495,0.17548 1.2745,0.34468 1.9677,0.53246 z"
         inkscape:connector-curvature="0"
         style="fill:#2d2d2d" />
      <path
         id="path4370"
         d="m 1029.9854,284.505 c 0.4937,0.0625 0.9378,0.11878 1.4715,0.18622 -0.123,0.88265 -0.2404,1.72524 -0.3654,2.62411 -0.4729,-0.0558 -0.8957,-0.10571 -1.4061,-0.16579 0.1004,-0.88238 0.1958,-1.72771 0.3,-2.64454 z"
         inkscape:connector-curvature="0"
         style="fill:#2d2d2d" />
      <path
         id="path4372"
         d="m 1034.9804,288.01897 c -0.478,-0.0975 -0.8938,-0.1819 -1.369,-0.2788 0.1648,-0.86995 0.3193,-1.69145 0.4921,-2.60723 0.4706,0.0951 0.9064,0.18228 1.4326,0.28785 -0.1874,0.87557 -0.3652,1.7061 -0.5557,2.59818 z"
         inkscape:connector-curvature="0"
         style="fill:#2d2d2d" />
      <path
         id="path4374"
         d="m 1046.179,291.79563 c -0.4455,-0.19316 -0.8129,-0.35293 -1.2553,-0.5449 0.3417,-0.79793 0.6699,-1.56364 1.035,-2.41459 0.4292,0.17378 0.8383,0.33996 1.3326,0.54007 -0.3707,0.80642 -0.7174,1.55983 -1.1123,2.41942 z"
         inkscape:connector-curvature="0"
         style="fill:#2d2d2d" />
      <path
         id="path4376"
         d="m 1049.7308,290.6237 c 0.4476,0.24424 0.7998,0.43647 1.2461,0.67993 -0.4286,0.76819 -0.8333,1.49173 -1.2792,2.29149 -0.3916,-0.20247 -0.762,-0.39341 -1.2037,-0.62179 0.4196,-0.79713 0.8061,-1.5318 1.2368,-2.34963 z"
         inkscape:connector-curvature="0"
         style="fill:#2d2d2d" />
      <path
         id="path4378"
         d="m 1033.4214,288.83575 c 0.4543,0.0919 0.8475,0.17115 1.32,0.2674 -0.1877,0.86904 -0.3682,1.70743 -0.5591,2.59452 -0.4283,-0.0851 -0.8,-0.15923 -1.2589,-0.25051 0.165,-0.86354 0.3245,-1.70297 0.498,-2.61141 z"
         inkscape:connector-curvature="0"
         style="fill:#2d2d2d" />
      <path
         id="path4380"
         d="m 1047.8359,296.89641 c -0.389,-0.20823 -0.7153,-0.38318 -1.1307,-0.60555 0.4145,-0.78431 0.8106,-1.53298 1.2406,-2.34649 0.4013,0.2149 0.7506,0.40204 1.1923,0.63841 -0.4344,0.77147 -0.8502,1.51099 -1.3022,2.31363 z"
         inkscape:connector-curvature="0"
         style="fill:#2d2d2d" />
      <path
         id="path4382"
         d="m 1029.6229,288.26085 c 0.4468,0.0534 0.8213,0.0987 1.3139,0.15793 -0.1178,0.863 -0.2325,1.70244 -0.3602,2.63511 -0.4162,-0.0526 -0.803,-0.10176 -1.2516,-0.15858 0.1016,-0.893 0.1968,-1.74042 0.2979,-2.63446 z"
         inkscape:connector-curvature="0"
         style="fill:#2d2d2d" />
      <path
         id="path4384"
         d="m 1044.4899,292.27442 c 0.4081,0.1798 0.7505,0.33026 1.1992,0.52827 -0.3652,0.79164 -0.72,1.56218 -1.1044,2.3956 -0.3707,-0.15729 -0.7124,-0.30187 -1.137,-0.48193 0.3424,-0.80224 0.6669,-1.56126 1.0422,-2.44194 z"
         inkscape:connector-curvature="0"
         style="fill:#2d2d2d" />
      <path
         id="path4386"
         d="m 1068.8866,335.69093 c -0.042,-0.40165 -0.078,-0.75313 -0.1219,-1.17232 0.8928,-0.10233 1.747,-0.20023 2.6393,-0.30291 0.044,0.42849 0.081,0.78273 0.1258,1.22367 -0.8857,0.0844 -1.7401,0.16578 -2.6432,0.25156 z"
         inkscape:connector-curvature="0"
         style="fill:#2d2d2d" />
      <path
         id="path4388"
         d="m 1044.9563,299.62345 c 0.4196,-0.79936 0.7981,-1.52107 1.2227,-2.3309 0.3371,0.16527 0.6653,0.32621 1.1024,0.54007 -0.4472,0.79425 -0.864,1.53468 -1.3085,2.32513 -0.3452,-0.18164 -0.6326,-0.3325 -1.0166,-0.5343 z"
         inkscape:connector-curvature="0"
         style="fill:#2d2d2d" />
      <path
         id="path4390"
         d="m 1041.9173,298.15058 c 0.3581,-0.82386 0.6906,-1.58864 1.0562,-2.42912 0.3521,0.14903 0.6707,0.28418 1.1117,0.47105 -0.37,0.79806 -0.7277,1.56965 -1.1147,2.40502 -0.3522,-0.14955 -0.669,-0.28418 -1.0532,-0.44695 z"
         inkscape:connector-curvature="0"
         style="fill:#2d2d2d" />
      <path
         id="path4392"
         d="m 1032.2466,295.1476 c 0.1725,-0.90373 0.3288,-1.71985 0.4996,-2.60996 0.3951,0.0768 0.7356,0.14313 1.1805,0.23008 -0.1816,0.85398 -0.3585,1.68529 -0.5519,2.59164 -0.3651,-0.0685 -0.7051,-0.13226 -1.1282,-0.21176 z"
         inkscape:connector-curvature="0"
         style="fill:#2d2d2d" />
      <path
         id="path4394"
         d="m 1029.2223,291.99206 c 0.4085,0.0534 0.7573,0.0991 1.1687,0.1531 -0.1193,0.87322 -0.2326,1.70453 -0.3574,2.61664 -0.3694,-0.0429 -0.7122,-0.0821 -1.1192,-0.12872 0.1038,-0.89011 0.2031,-1.74382 0.3079,-2.64102 z"
         inkscape:connector-curvature="0"
         style="fill:#2d2d2d" />
      <path
         id="path4396"
         d="m 1053.6664,362.81852 c 0.2357,-0.30369 0.4043,-0.52108 0.6263,-0.80709 0.7074,0.51571 1.3933,1.01518 2.1355,1.55642 -0.2426,0.31679 -0.4352,0.56823 -0.6701,0.87519 -0.7306,-0.56718 -1.4003,-1.08721 -2.0917,-1.62452 z"
         inkscape:connector-curvature="0"
         style="fill:#2d2d2d" />
      <path
         id="path4398"
         d="m 1049.4638,370.93235 c -0.574,-0.69447 -1.1031,-1.33459 -1.6849,-2.03861 0.2785,-0.22171 0.506,-0.40269 0.7798,-0.62048 0.5799,0.66933 1.1233,1.29595 1.7232,1.98898 -0.2872,0.23493 -0.5279,0.43255 -0.8181,0.67011 z"
         inkscape:connector-curvature="0"
         style="fill:#2d2d2d" />
      <path
         id="path4400"
         d="m 1028.3444,299.4663 c 0.3832,0.0501 0.6817,0.0889 1.0627,0.13868 -0.1245,0.88226 -0.2436,1.72746 -0.3699,2.61941 -0.3524,-0.0449 -0.6469,-0.0829 -0.9945,-0.12716 0.1004,-0.88095 0.1965,-1.71004 0.3017,-2.63093 z"
         inkscape:connector-curvature="0"
         style="fill:#2d2d2d" />
      <path
         id="path4402"
         d="m 985.5004,326.2005 c 0.11839,-0.34863 0.21426,-0.62951 0.34452,-1.01192 0.82105,0.31103 1.61526,0.61211 2.47354,0.9374 -0.10334,0.31416 -0.19458,0.59219 -0.31366,0.95389 -0.82758,-0.29073 -1.61087,-0.56587 -2.5044,-0.87937 z"
         inkscape:connector-curvature="0"
         style="fill:#2d2d2d" />
      <path
         id="path4404"
         d="m 1011.33,303.9098 c -0.2985,-0.86942 -0.5696,-1.65871 -0.8574,-2.49827 0.3387,-0.11616 0.6192,-0.21188 0.9836,-0.33668 0.2708,0.8541 0.5288,1.66721 0.8039,2.53453 -0.3155,0.1021 -0.5738,0.18517 -0.9301,0.30042 z"
         inkscape:connector-curvature="0"
         style="fill:#2d2d2d" />
      <path
         id="path4406"
         d="m 1057.5786,322.85912 c -0.1581,-0.34101 -0.2725,-0.58813 -0.4136,-0.8922 0.7771,-0.41213 1.5116,-0.80147 2.3173,-1.22877 0.1703,0.32975 0.3147,0.60947 0.4851,0.93974 -0.8149,0.40296 -1.5612,0.77173 -2.3888,1.18123 z"
         inkscape:connector-curvature="0"
         style="fill:#2d2d2d" />
      <path
         id="path4408"
         d="m 987.92982,320.64805 c 0.19225,-0.35646 0.33395,-0.61837 0.50799,-0.94158 0.78493,0.44106 1.5125,0.8503 2.31068,1.29856 -0.16156,0.313 -0.29526,0.57138 -0.4625,0.8955 -0.79636,-0.42326 -1.53418,-0.81547 -2.35617,-1.25248 z"
         inkscape:connector-curvature="0"
         style="fill:#2d2d2d" />
      <path
         id="path4410"
         d="m 1039.955,302.6001 c 0.3586,0.16016 0.6119,0.27291 0.9804,0.43726 -0.3673,0.79007 -0.7249,1.55944 -1.1113,2.39115 -0.3034,-0.12546 -0.5764,-0.23795 -0.93,-0.3837 0.3522,-0.8122 0.6909,-1.59283 1.0609,-2.44471 z"
         inkscape:connector-curvature="0"
         style="fill:#2d2d2d" />
      <path
         id="path4412"
         d="m 987.3816,357.69392 c 0.84873,-0.4188 1.57854,-0.77881 2.3707,-1.17011 0.15665,0.30134 0.29113,0.56089 0.45931,0.88553 -0.78003,0.41356 -1.51482,0.80368 -2.32452,1.23323 -0.17299,-0.32517 -0.32123,-0.60267 -0.50549,-0.94865 z"
         inkscape:connector-curvature="0"
         style="fill:#2d2d2d" />
      <path
         id="path4414"
         d="m 983.68953,346.13003 c 0.92929,-0.14773 1.75197,-0.27854 2.62322,-0.41683 0.0584,0.36497 0.10617,0.65648 0.16157,0.99854 -0.88158,0.16737 -1.7003,0.32269 -2.58729,0.49096 -0.0662,-0.36184 -0.12442,-0.67456 -0.1975,-1.07267 z"
         inkscape:connector-curvature="0"
         style="fill:#2d2d2d" />
      <path
         id="path4416"
         d="m 1013.0628,376.0673 c 0.3234,0.077 0.589,0.13998 0.9696,0.23048 -0.2168,0.84022 -0.4284,1.66105 -0.6623,2.56898 -0.3459,-0.0878 -0.6501,-0.16514 -1.0395,-0.264 0.2492,-0.86406 0.485,-1.67862 0.7322,-2.53546 z"
         inkscape:connector-curvature="0"
         style="fill:#2d2d2d" />
      <path
         id="path4418"
         d="m 1015.8092,376.75468 c 0.3547,0.0591 0.6257,0.10515 0.994,0.1671 -0.1593,0.86603 -0.3127,1.70257 -0.4795,2.60907 -0.3318,-0.0584 -0.6248,-0.10989 -1.054,-0.18545 0.177,-0.84978 0.349,-1.67649 0.5395,-2.59072 z"
         inkscape:connector-curvature="0"
         style="fill:#2d2d2d" />
      <path
         id="path4420"
         d="m 1054.5357,365.95756 c -0.2546,0.29412 -0.4472,0.51623 -0.6915,0.79844 -0.6635,-0.58472 -1.2842,-1.13173 -1.9689,-1.73453 0.2138,-0.2589 0.3958,-0.4806 0.6347,-0.7708 0.6734,0.56677 1.3042,1.09898 2.0257,1.70689 z"
         inkscape:connector-curvature="0"
         style="fill:#2d2d2d" />
      <path
         id="path4422"
         d="m 1059.4039,327.14115 c 0.8358,-0.29255 1.6206,-0.56716 2.4909,-0.8719 0.1163,0.32437 0.222,0.61929 0.3568,0.99579 -0.855,0.27566 -1.6645,0.53692 -2.5332,0.81704 -0.1094,-0.32569 -0.2024,-0.60489 -0.3145,-0.94093 z"
         inkscape:connector-curvature="0"
         style="fill:#2d2d2d" />
      <path
         id="path4424"
         d="m 1062.8084,329.15959 c 0.097,0.39798 0.1687,0.687 0.254,1.03182 -0.8647,0.209 -1.674,0.40451 -2.5719,0.62178 -0.081,-0.31195 -0.156,-0.59258 -0.2526,-0.95979 0.8529,-0.23035 1.6712,-0.45128 2.5705,-0.69381 z"
         inkscape:connector-curvature="0"
         style="fill:#2d2d2d" />
      <path
         id="path4426"
         d="m 1054.7009,318.03297 c -0.2101,-0.3287 -0.3553,-0.55538 -0.5309,-0.83027 0.7028,-0.51936 1.3705,-1.0123 2.1084,-1.55734 0.1998,0.28026 0.3703,0.51846 0.6063,0.84887 -0.7162,0.50457 -1.4097,0.99331 -2.1838,1.53874 z"
         inkscape:connector-curvature="0"
         style="fill:#2d2d2d" />
      <path
         id="path4428"
         d="m 1061.211,324.41764 c -0.8332,0.33867 -1.6051,0.65255 -2.4535,0.99763 -0.1331,-0.30618 -0.2482,-0.57201 -0.3905,-0.90045 0.8156,-0.35805 1.5773,-0.69238 2.4172,-1.06076 0.1461,0.3291 0.2726,0.61511 0.4268,0.96358 z"
         inkscape:connector-curvature="0"
         style="fill:#2d2d2d" />
      <path
         id="path4430"
         d="m 1045.5282,370.61858 c 0.3039,-0.20744 0.5269,-0.3604 0.8114,-0.55448 0.5394,0.72235 1.037,1.3892 1.57,2.10291 -0.2965,0.22 -0.5323,0.39496 -0.8409,0.62375 -0.5117,-0.72131 -0.9929,-1.39981 -1.5405,-2.17218 z"
         inkscape:connector-curvature="0"
         style="fill:#2d2d2d" />
      <path
         id="path4432"
         d="m 1059.5899,358.45713 c -0.1737,0.34271 -0.2975,0.5876 -0.475,0.93673 -0.7732,-0.42612 -1.5123,-0.83353 -2.319,-1.27774 0.1565,-0.31364 0.2847,-0.57045 0.4422,-0.88592 0.8009,0.41801 1.5357,0.80144 2.3518,1.22693 z"
         inkscape:connector-curvature="0"
         style="fill:#2d2d2d" />
      <path
         id="path4434"
         d="m 987.63121,351.26158 c 0.11169,0.34375 0.19621,0.6028 0.30214,0.93005 -0.84847,0.29439 -1.65645,0.57491 -2.50364,0.86903 -0.11787,-0.35855 -0.21073,-0.64116 -0.3232,-0.98348 0.84977,-0.27449 1.64209,-0.53026 2.5247,-0.8156 z"
         inkscape:connector-curvature="0"
         style="fill:#2d2d2d" />
      <path
         id="path4436"
         d="m 1040.6716,373.53144 c 0.3325,-0.15937 0.5566,-0.26649 0.8848,-0.42377 0.4109,0.76819 0.8104,1.51504 1.2463,2.33155 -0.3134,0.16043 -0.5738,0.29414 -0.9201,0.47118 -0.4054,-0.79556 -0.7892,-1.55026 -1.211,-2.37896 z"
         inkscape:connector-curvature="0"
         style="fill:#2d2d2d" />
      <path
         id="path4438"
         d="m 1045.4281,373.91305 c -0.344,0.20208 -0.6,0.35201 -0.9043,0.53024 -0.4569,-0.76386 -0.8839,-1.47705 -1.3573,-2.26724 0.2813,-0.17195 0.5249,-0.32177 0.8291,-0.50799 0.4812,0.75379 0.9279,1.45414 1.4325,2.24499 z"
         inkscape:connector-curvature="0"
         style="fill:#2d2d2d" />
      <path
         id="path4440"
         d="m 990.01411,317.14338 c 0.76783,0.50982 1.44304,0.95835 2.19521,1.45794 -0.15923,0.27004 -0.30402,0.51664 -0.49198,0.83564 -0.75587,-0.47943 -1.45629,-0.92377 -2.23718,-1.41853 0.18126,-0.29701 0.33172,-0.54412 0.53395,-0.87505 z"
         inkscape:connector-curvature="0"
         style="fill:#2d2d2d" />
      <path
         id="path4442"
         d="m 987.41203,328.83403 c -0.0956,0.34626 -0.16818,0.60975 -0.26275,0.95403 -0.85355,-0.22748 -1.67528,-0.4467 -2.55006,-0.67967 0.0843,-0.33538 0.15657,-0.62611 0.25502,-1.02107 0.84194,0.24619 1.65929,0.48415 2.55779,0.74671 z"
         inkscape:connector-curvature="0"
         style="fill:#2d2d2d" />
      <path
         id="path4444"
         d="m 1043.6108,304.41058 c -0.4444,0.79163 -0.8506,1.5153 -1.293,2.30274 -0.3048,-0.1485 -0.5644,-0.27515 -0.8772,-0.4277 0.4092,-0.78156 0.7842,-1.49854 1.2135,-2.31846 0.3055,0.1417 0.5996,0.27802 0.9567,0.44342 z"
         inkscape:connector-curvature="0"
         style="fill:#2d2d2d" />
      <path
         id="path4446"
         d="m 984.53722,350.14779 c -0.0883,-0.36825 -0.1582,-0.65977 -0.24255,-1.01021 0.85742,-0.2035 1.67089,-0.39679 2.57371,-0.61064 0.08,0.31036 0.15218,0.59087 0.24177,0.93778 -0.85526,0.2276 -1.65936,0.44093 -2.57293,0.68307 z"
         inkscape:connector-curvature="0"
         style="fill:#2d2d2d" />
      <path
         id="path4448"
         d="m 1056.2363,320.35261 c -0.1837,-0.29675 -0.3265,-0.5271 -0.5064,-0.81757 0.7502,-0.47196 1.4546,-0.91578 2.2319,-1.40477 0.1842,0.29413 0.34,0.54268 0.5503,0.87768 -0.7718,0.45651 -1.5037,0.88894 -2.2758,1.34466 z"
         inkscape:connector-curvature="0"
         style="fill:#2d2d2d" />
      <path
         id="path4450"
         d="m 988.97683,354.83029 c -0.85089,0.36628 -1.61398,0.69472 -2.42754,1.04516 -0.14256,-0.32884 -0.25863,-0.59899 -0.41108,-0.9514 0.83033,-0.33447 1.61784,-0.6519 2.45264,-0.98821 0.13242,0.30697 0.24015,0.55618 0.38598,0.89445 z"
         inkscape:connector-curvature="0"
         style="fill:#2d2d2d" />
      <path
         id="path4452"
         d="m 993.02298,366.15007 c -0.2448,-0.28576 -0.43594,-0.50956 -0.67652,-0.79086 0.68872,-0.56585 1.32877,-1.09309 2.0229,-1.66328 0.21118,0.23271 0.39106,0.43072 0.65227,0.71816 -0.67642,0.58682 -1.3151,1.14157 -1.99865,1.73598 z"
         inkscape:connector-curvature="0"
         style="fill:#2d2d2d" />
      <path
         id="path4454"
         d="m 1060.7382,347.57212 c 0.052,-0.31613 0.096,-0.58655 0.1559,-0.94681 0.8704,0.1616 1.7067,0.31652 2.6088,0.48297 -0.063,0.34991 -0.115,0.64117 -0.1807,1.00561 -0.8702,-0.18229 -1.7083,-0.35803 -2.584,-0.54177 z"
         inkscape:connector-curvature="0"
         style="fill:#2d2d2d" />
      <path
         id="path4456"
         d="m 989.42523,323.55752 c -0.1417,0.3283 -0.24136,0.55905 -0.38142,0.88421 -0.79491,-0.34912 -1.57356,-0.69092 -2.41662,-1.06074 0.12416,-0.30591 0.23457,-0.57883 0.3846,-0.94905 0.806,0.37598 1.57399,0.73362 2.41344,1.12558 z"
         inkscape:connector-curvature="0"
         style="fill:#2d2d2d" />
      <path
         id="path4458"
         d="m 1014.3643,300.27705 c 0.2095,0.88946 0.4009,1.70114 0.6077,2.57854 -0.3225,0.0799 -0.6014,0.14943 -0.9256,0.2297 -0.2281,-0.86811 -0.4395,-1.67258 -0.6701,-2.55235 0.3263,-0.0842 0.6097,-0.15766 0.988,-0.25589 z"
         inkscape:connector-curvature="0"
         style="fill:#2d2d2d" />
      <path
         id="path4460"
         d="m 991.20918,315.49438 c 0.23757,-0.30815 0.40497,-0.52475 0.62363,-0.80828 0.69766,0.55356 1.35087,1.07124 2.05032,1.62662 -0.19112,0.27658 -0.34323,0.49645 -0.53548,0.77474 -0.733,-0.54608 -1.40246,-1.04504 -2.13847,-1.59308 z"
         inkscape:connector-curvature="0"
         style="fill:#2d2d2d" />
      <path
         id="path4462"
         d="m 991.08511,363.78249 c -0.22571,-0.3414 -0.37471,-0.56665 -0.56344,-0.85239 0.72242,-0.50654 1.39892,-0.98152 2.13098,-1.49514 0.19337,0.24803 0.357,0.45743 0.58519,0.75026 -0.71838,0.53299 -1.39677,1.03639 -2.15273,1.59727 z"
         inkscape:connector-curvature="0"
         style="fill:#2d2d2d" />
      <path
         id="path4464"
         d="m 1011.3055,375.46856 c -0.2981,0.87034 -0.5676,1.65687 -0.859,2.50729 -0.3137,-0.10221 -0.5941,-0.19355 -0.9803,-0.31992 0.3074,-0.83681 0.599,-1.63067 0.9101,-2.47704 0.2967,0.0923 0.5556,0.17312 0.9292,0.28967 z"
         inkscape:connector-curvature="0"
         style="fill:#2d2d2d" />
      <path
         id="path4466"
         d="m 983.91652,332.07208 c 0.0653,-0.37599 0.11298,-0.64969 0.17712,-1.01545 0.86138,0.18374 1.69695,0.36158 2.58144,0.55067 -0.0465,0.30422 -0.088,0.57255 -0.14823,0.96358 -0.86558,-0.16578 -1.69995,-0.32503 -2.61033,-0.4988 z"
         inkscape:connector-curvature="0"
         style="fill:#2d2d2d" />
      <path
         id="path4468"
         d="m 1061.3791,336.31874 c -0.026,-0.35241 -0.045,-0.62532 -0.07,-0.95035 0.8746,-0.1003 1.7045,-0.19553 2.6108,-0.29938 0.038,0.35805 0.072,0.67327 0.1106,1.0288 -0.9146,0.0759 -1.7668,0.14708 -2.6513,0.22093 z"
         inkscape:connector-curvature="0"
         style="fill:#2d2d2d" />
      <path
         id="path4470"
         d="m 1055.3308,360.51866 c 0.1913,-0.30893 0.3227,-0.52134 0.5068,-0.81967 0.7504,0.46661 1.4712,0.91514 2.2316,1.38841 -0.1742,0.30526 -0.3089,0.5415 -0.5023,0.8812 -0.7483,-0.48532 -1.4608,-0.94681 -2.2361,-1.44994 z"
         inkscape:connector-curvature="0"
         style="fill:#2d2d2d" />
      <path
         id="path4472"
         d="m 1016.8,302.46796 c -0.1703,-0.93686 -0.3154,-1.73386 -0.4709,-2.58744 0.3364,-0.0639 0.6237,-0.11905 0.9977,-0.19028 0.1413,0.88606 0.2749,1.72601 0.4196,2.63301 -0.3354,0.0513 -0.6238,0.0956 -0.9464,0.14471 z"
         inkscape:connector-curvature="0"
         style="fill:#2d2d2d" />
      <path
         id="path4474"
         d="m 1031.7975,302.7245 c -0.3475,-0.0702 -0.5903,-0.11904 -0.9063,-0.18268 0.1643,-0.86013 0.3192,-1.67585 0.4912,-2.57801 0.3003,0.0457 0.5854,0.0888 0.9769,0.14823 -0.1877,0.87362 -0.3658,1.70061 -0.5618,2.61246 z"
         inkscape:connector-curvature="0"
         style="fill:#2d2d2d" />
      <path
         id="path4476"
         d="m 1063.6406,333.12653 c -0.8611,0.14144 -1.5924,0.26244 -2.3242,0.37939 -0.073,0.0118 -0.1505,-0.003 -0.2756,-0.008 -0.051,-0.26545 -0.1027,-0.53208 -0.1689,-0.8744 0.8811,-0.16789 1.7197,-0.32805 2.6149,-0.49895 0.056,0.36774 0.1015,0.66173 0.1538,1.00195 z"
         inkscape:connector-curvature="0"
         style="fill:#2d2d2d" />
      <path
         id="path4478"
         d="m 263.244,1002.212 c -1.574,1.549 -2.631,2.588 -4.061,3.993 -1.384,-1.262 -2.658,-2.425 -4.269,-3.895 1.319,-1.421 2.502,-2.695 3.942,-4.249 1.471,1.39 2.731,2.583 4.388,4.151 z"
         inkscape:connector-curvature="0" />
      <path
         id="path4480"
         d="m 262.805,927.181 c 0.559,0 1.115,0 1.674,0 0.017,0.158 0.032,0.316 0.051,0.476 -0.564,0.083 -1.129,0.167 -1.693,0.251 -0.012,-0.244 -0.023,-0.485 -0.032,-0.727 z"
         inkscape:connector-curvature="0" />
    </g>
  </g>
  <g
     inkscape:groupmode="layer"
     id="layer3"
     inkscape:label="Layer 2"
     style="display:inline"
     sodipodi:insensitive="true">
    <circle
       style="fill:#ffffff"
       id="path3413"
       cx="159.37434"
       cy="82.038345"
       r="7.2935066" />
    <ellipse
       style="display:inline;fill:#000000"
       id="path3413-3"
       cx="159.35378"
       cy="82.043732"
       rx="5.853013"
       ry="5.7771711" />
  </g>
</svg>
