<?xml version="1.0" encoding="utf-8"?>
<!-- Generator: Adobe Illustrator 16.0.0, SVG Export Plug-In . SVG Version: 6.00 Build 0)  -->
<!DOCTYPE svg PUBLIC "-//W3C//DTD SVG 1.1//EN" "http://www.w3.org/Graphics/SVG/1.1/DTD/svg11.dtd">
<svg version="1.1" xmlns="http://www.w3.org/2000/svg" xmlns:xlink="http://www.w3.org/1999/xlink" x="0px" y="0px"
	 width="146.25px" height="146.25px" viewBox="75.6 11.65 146.25 146.25" enable-background="new 75.6 11.65 146.25 146.25"
	 xml:space="preserve">
<g id="Calque_5">
	<polygon fill="#8C8C8C" points="119.05,67.631 148.726,84.775 148.726,119.047 139.57,119.047 114.467,75.568 	"/>
	<polygon fill="#3C3C3B" points="178.402,67.631 148.726,84.775 148.726,119.047 157.882,119.047 182.984,75.568 	"/>
	<polyline fill="#141414" points="148.726,84.775 178.402,67.631 173.569,59.233 123.881,59.233 119.05,67.631 148.726,84.775 	"/>
	<polygon fill="#393939" points="148.725,84.775 119.05,67.63 123.881,59.234 148.725,59.234 	"/>
</g>
<g id="calqTR2">
	<polygon fill="#141414" points="148.723,57.292 172.929,57.292 167.99,48.737 129.212,48.737 124.273,57.292 	"/>
	<polygon fill="#3C3C3B" points="172.755,98.335 160.756,119.119 170.622,119.119 189.425,86.55 184.492,78.006 	"/>
	<line fill="#CD0059" x1="129.212" y1="48.737" x2="124.273" y2="57.292"/>
	<polygon fill="#393939" points="148.601,57.292 124.273,57.292 129.212,48.737 148.6,48.737 	"/>
	<polygon fill="#8C8C8C" points="124.677,98.331 112.884,77.906 107.86,86.608 126.563,119.002 136.611,119.002 	"/>
	<polygon fill="#8C8C8C" points="120.788,59.233 103.897,59.233 112.342,73.861 	"/>
	<polyline fill="#393939" points="103.897,59.233 120.797,59.233 116.564,66.552 103.897,59.233 	"/>
	<polygon fill="#3C3C3B" points="176.1,59.396 192.992,59.396 184.546,74.024 	"/>
	<polyline fill="#141414" points="192.992,59.396 176.091,59.396 180.324,66.715 192.992,59.396 	"/>
	<polygon fill="#3C3C3B" points="140.257,120.898 148.726,135.565 157.194,120.898 	"/>
	<polygon fill="#8C8C8C" points="148.726,135.565 140.257,120.898 148.726,120.898 	"/>
</g>
<g id="calqTR1">
	<polygon fill="none" stroke="#2D2D2D" stroke-width="1.0118" points="306.206,41.169 350.019,41.169 328.113,79.113 
		306.206,117.058 284.297,79.113 262.391,41.169 	"/>
	<polygon fill="none" stroke="#2D2D2D" stroke-width="1.3074" points="286.293,100.983 266.506,66.71 286.293,32.438 
		325.868,32.438 345.655,66.71 325.868,100.983 	"/>
	<polygon fill="none" stroke="#2D2D2D" stroke-width="1.0118" points="-31.661,39.647 12.153,39.647 -9.753,77.591 -31.661,115.537 
		-53.568,77.591 -75.475,39.647 	"/>
	<polygon fill="none" stroke="#2D2D2D" stroke-width="1.3074" points="-51.572,99.461 -71.359,65.189 -51.572,30.917 
		-11.998,30.917 7.789,65.189 -11.998,99.461 	"/>
	<polygon fill="none" points="124.256,59.814 115.008,75.832 127.242,97.021 139.623,118.466 157.824,118.466 170.206,97.021 
		182.316,76.044 172.947,59.814 148.723,59.814 	"/>
	<path fill="#374856" d="M210.725,156.775"/>
</g>
<g id="centre">
	<path id="path3402_1_" sodipodi:nodetypes="cccccc" inkscape:connector-curvature="0" d="M284.141,46.659l36.299,5.755l1.07,19.639
		l-30.679,14.461l16.872-20.073L284.141,46.659z"/>
	<path id="path3404_1_" inkscape:connector-curvature="0" d="M315.483,66.174c-1.402-0.804-1.822-1.401-2.238-3.183
		c-0.199-0.85,0.365-3.285,0.762-3.285c0.135,0,0.244-0.178,0.244-0.396c0-0.783,3.92-2.169,4.646-1.644
		c0.201,0.145,0.26,1.729,0.178,4.775L318.952,67l-1.018-0.002C317.325,66.996,316.34,66.665,315.483,66.174L315.483,66.174
		L315.483,66.174z"/>
	<ellipse id="path3413-3-7_1_" cx="317.852" cy="62.42" rx="10.418" ry="10.282"/>
	<g id="layer3_1_" inkscape:label="Layer 2" inkscape:groupmode="layer" sodipodi:insensitive="true">
		<circle id="path3413_1_" fill="#FFFFFF" cx="317.909" cy="62.456" r="7.294"/>
		<ellipse id="path3413-3_1_" cx="317.889" cy="62.461" rx="5.854" ry="5.777"/>
	</g>
	<g>
		<path id="path3402_2_" sodipodi:nodetypes="cccccc" inkscape:connector-curvature="0" fill="#FFFFFF" d="M129.877,68.956
			l28.815,4.568l0.85,15.59l-24.354,11.479l13.394-15.935L129.877,68.956z"/>
		<path id="path3404_2_" inkscape:connector-curvature="0" d="M154.757,84.447c-1.113-0.638-1.446-1.112-1.776-2.525
			c-0.158-0.675,0.29-2.608,0.604-2.608c0.107,0,0.194-0.141,0.194-0.314c0-0.621,3.112-1.722,3.688-1.305
			c0.16,0.115,0.207,1.372,0.142,3.79l-0.098,3.618l-0.808-0.001C156.219,85.1,155.438,84.838,154.757,84.447L154.757,84.447
			L154.757,84.447z"/>
		<ellipse id="path3413-3-7_2_" fill="#FFFFFF" cx="156.638" cy="81.468" rx="8.271" ry="8.162"/>
		<g id="layer3_2_" inkscape:label="Layer 2" inkscape:groupmode="layer" sodipodi:insensitive="true">
			<circle id="path3413_2_" cx="156.683" cy="81.496" r="5.79"/>
			<ellipse id="path3413-3_2_" fill="#FFFFFF" cx="156.667" cy="81.5" rx="4.646" ry="4.586"/>
		</g>
	</g>
</g>
<g id="calqTL1">
</g>
</svg>
