<?xml version="1.0" encoding="utf-8"?>
<!-- Generator: Adobe Illustrator 16.0.0, SVG Export Plug-In . SVG Version: 6.00 Build 0)  -->
<!DOCTYPE svg PUBLIC "-//W3C//DTD SVG 1.1//EN" "http://www.w3.org/Graphics/SVG/1.1/DTD/svg11.dtd">
<svg version="1.1" id="Calque_1" xmlns="http://www.w3.org/2000/svg" xmlns:xlink="http://www.w3.org/1999/xlink" x="0px" y="0px"
	 width="129.013px" height="111.641px" viewBox="0 0 129.013 111.641" enable-background="new 0 0 129.013 111.641"
	 xml:space="preserve">
<polygon fill="none" stroke="#090000" stroke-width="1.0058" stroke-miterlimit="10" points="61.31,37.183 85.517,37.183 
	80.577,28.628 41.799,28.628 36.86,37.183 "/>
<polygon fill="none" stroke="#090000" stroke-width="1.0421" stroke-miterlimit="10" points="82.775,74.607 70.343,96.142 
	80.564,96.142 100.048,62.396 94.936,53.544 "/>
<polygon fill="none" stroke="#090000" stroke-width="1.0429" stroke-miterlimit="10" points="40.006,74.729 27.778,53.55 
	22.569,62.574 41.962,96.164 52.381,96.164 "/>
<polygon fill="none" stroke="#090000" stroke-width="1.1077" stroke-miterlimit="10" points="36.702,37.193 18.099,37.193 
	27.4,53.303 "/>
<polygon fill="none" stroke="#090000" stroke-width="1.109" stroke-miterlimit="10" points="85.819,37.183 104.445,37.183 
	95.133,53.313 "/>
<polygon fill="none" stroke="#090000" stroke-width="1.0607" stroke-miterlimit="10" points="52.381,96.173 61.312,111.641 
	70.241,96.173 "/>
<polygon fill="none" stroke="#090000" stroke-width="1.0058" stroke-miterlimit="10" points="36.702,37.183 27.401,53.293 
	39.705,74.604 52.157,96.173 70.463,96.173 82.916,74.604 95.097,53.506 85.673,37.183 61.31,37.183 "/>
<g>
	<path id="path3402_2_" sodipodi:nodetypes="cccccc" inkscape:connector-curvature="0" d="M42.464,46.494l28.815,4.568l0.85,15.59
		L47.775,78.132l13.394-15.935L42.464,46.494z"/>
	<path id="path3404_2_" inkscape:connector-curvature="0" d="M67.344,61.985c-1.112-0.638-1.446-1.112-1.776-2.525
		c-0.158-0.675,0.289-2.608,0.604-2.608c0.106,0,0.194-0.141,0.194-0.314c0-0.621,3.111-1.722,3.688-1.305
		c0.16,0.115,0.207,1.372,0.142,3.79l-0.098,3.618l-0.808-0.001C68.806,62.638,68.024,62.375,67.344,61.985L67.344,61.985
		L67.344,61.985z"/>
	<ellipse id="path3413-3-7_2_" cx="69.225" cy="59.006" rx="8.271" ry="8.162"/>
	<g id="layer3_2_" inkscape:label="Layer 2" inkscape:groupmode="layer" sodipodi:insensitive="true">
		<circle id="path3413_2_" fill="#FFFFFF" cx="69.27" cy="59.034" r="5.79"/>
		<ellipse id="path3413-3_2_" cx="69.254" cy="59.038" rx="4.646" ry="4.586"/>
	</g>
</g>
</svg>
