<?xml version="1.0" encoding="UTF-8" standalone="no"?>
<svg
   xmlns:dc="http://purl.org/dc/elements/1.1/"
   xmlns:cc="http://creativecommons.org/ns#"
   xmlns:rdf="http://www.w3.org/1999/02/22-rdf-syntax-ns#"
   xmlns:svg="http://www.w3.org/2000/svg"
   xmlns="http://www.w3.org/2000/svg"
   xml:space="preserve"
   enable-background="new -351.5 -351.5 1200 1200"
   viewBox="-351.5 -351.5 1200 1200"
   height="1200px"
   width="1200px"
   y="0px"
   x="0px"
   id="Calque_1"
   version="1.1"><metadata
     id="metadata485"><rdf:RDF><cc:Work
         rdf:about=""><dc:format>image/svg+xml</dc:format><dc:type
           rdf:resource="http://purl.org/dc/dcmitype/StillImage" /><dc:title></dc:title></cc:Work></rdf:RDF></metadata><defs
     id="defs483" /><path
     id="path5"
     d="M-20.016,90.969c-5.52-3.303-10.997-6.58-17.035-10.19C-11.976,39.03,20.221,4.525,59.739-23.053  c52-36.285,109.836-56.065,173.884-60.239c0.206,3.45,0.401,6.672,0.589,9.895c0.193,3.305,0.379,6.607,0.577,9.996  C124.583-53.915,40.145-2.481-20.016,90.969z"
     fill="#2D2D2D" /><path
     id="path7"
     d="M-161.125,500.185c6.386-3.74,11.745-6.887,17.517-10.267C-98.576,564.06-38.254,621.587,38.004,662.521  c-0.418,1.152-0.646,2.093-1.082,2.928c-2.514,4.834-5.079,9.641-8.036,15.231C-51.087,637.891-114.031,577.933-161.125,500.185z"
     fill="#2D2D2D" /><path
     id="path9"
     d="M558.061,163.712c6.623-1.936,12.753-3.726,19.504-5.699c23.601,84.701,16.871,166.133-20.782,245.867  c-6.249-3.016-11.971-5.776-18.305-8.833C573.765,320.584,580.334,243.743,558.061,163.712z"
     fill="#2D2D2D" /><path
     id="path11"
     d="M525.503,552.728c4.774,5.239,8.955,9.838,13.687,15.036c-62.117,56.101-133.864,90.847-216.349,105.154  c-1.127-6.857-2.161-13.16-3.302-20.104c38.395-6.567,75-18.059,109.868-34.95C464.354,600.937,496.088,579.242,525.503,552.728z"
     fill="#2D2D2D" /><path
     id="path13"
     d="M-80.872-7.329c5.48,4.279,10.37,8.102,15.991,12.491c-42.015,54.271-68.868,114.973-80.426,183.141  c-6.573-1.066-13.016-2.112-20.077-3.257C-153.35,113.801-125.431,50.12-80.872-7.329z"
     fill="#2D2D2D" /><path
     id="path15"
     d="M298.02,568.984c0.964,6.669,1.885,13.012,2.919,20.12c-69.055,9.241-134.527-1.16-197.611-31.534  c3.08-6.285,5.889-12.016,8.961-18.288c28.926,14.042,58.972,23.747,90.479,28.785C234.314,573.112,265.919,573.314,298.02,568.984z  "
     fill="#2D2D2D" /><path
     id="path17"
     d="M768.726,311.364c6.803,0.743,13.177,1.442,20.21,2.215c-7.035,62.938-24.313,122.435-52.441,179.714  c-6.143-3.052-11.964-5.943-18.209-9.044C745.21,429.283,761.928,371.917,768.726,311.364z"
     fill="#2D2D2D" /><path
     id="path19"
     d="M-164.501,58.3c-6.318-2.958-12.093-5.664-18.424-8.627c25.989-55.158,60.86-103.182,104.924-145  c4.836,4.836,9.313,9.313,14.314,14.316C-105.823-40.789-139.419,5.197-164.501,58.3z"
     fill="#2D2D2D" /><path
     id="path21"
     d="M667.009,458.531c23.911-48.93,38.69-99.757,44.744-153.639c6.667,0.71,13.015,1.39,20.205,2.157  c-6.217,56.231-21.667,109.461-46.62,160.277c-1.729-0.711-2.998-1.154-4.201-1.747  C676.607,463.352,672.103,461.077,667.009,458.531z"
     fill="#2D2D2D" /><path
     id="path23"
     d="M703.029,448.986c6.34,2.728,12.066,5.193,18.65,8.029c-21.967,51.065-51.633,96.823-89.102,138.773  c-5.078-4.547-9.916-8.875-15.176-13.582C653.162,542.276,681.588,498.28,703.029,448.986z"
     fill="#2D2D2D" /><path
     id="path25"
     d="M170.898,766.391c-1.11,6.955-2.121,13.292-3.201,20.059c-53.613-8.629-104.444-24.795-153.815-49.097  c2.964-6.01,5.831-11.829,8.977-18.205C69.895,742.237,118.869,757.971,170.898,766.391z"
     fill="#2D2D2D" /><path
     id="path27"
     d="M35.649,693.485c-3.022,6.143-5.838,11.876-8.954,18.212c-46.181-22.857-87.495-51.882-124.98-87.458  c4.939-4.938,9.426-9.426,14.327-14.326C-48.249,643.492-8.621,671.467,35.649,693.485z"
     fill="#2D2D2D" /><path
     id="path29"
     d="M474.547,724.9c2.384,5.098,5.084,10.872,8.072,17.257c-45.155,21.248-91.926,35.689-141.271,43.895  c-1.125-6.709-2.177-13.001-3.153-18.829c23.343-5.956,46.631-10.926,69.277-17.947C429.989,742.289,451.863,733.238,474.547,724.9z  "
     fill="#2D2D2D" /><path
     id="path31"
     d="M-104.857,631.097c-0.241,0.324-0.727,1.161-1.384,1.827c-3.7,3.75-7.44,7.468-11.163,11.189  c-16.46-8.589-78.883-85.944-92.643-115.051c5.404-3.221,10.865-6.479,16.02-9.548c13.963,19.446,26.994,39.198,41.707,57.614  C-137.562,595.601-121.124,612.734-104.857,631.097z"
     fill="#2D2D2D" /><path
     id="path33"
     d="M207.655-282.731c0.598,7.152,1.129,13.525,1.693,20.265c-47.677,4.088-93.5,14.422-138.011,30.914  c-0.592-1.041-1.063-1.657-1.321-2.35c-1.989-5.294-3.929-10.601-6.122-16.538C110.355-267.833,157.959-278.452,207.655-282.731z"
     fill="#2D2D2D" /><path
     id="path35"
     d="M641.016,367.454c6.756,1.96,12.895,3.741,19.539,5.67c-14.002,47.989-35.569,91.688-64.92,131.774  c-1.039-0.438-1.82-0.613-2.408-1.041c-4.565-3.329-9.093-6.705-14.237-10.518C606.812,454.998,627.591,413.403,641.016,367.454z"
     fill="#2D2D2D" /><path
     id="path37"
     d="M670.629-86.698c-5.462,4.476-10.374,8.5-15.744,12.896c-30.41-37.005-64.856-68.933-103.646-96.445  c0.793-1.432,1.252-2.489,1.9-3.414c3.005-4.302,6.063-8.568,9.477-13.373C603.188-158.592,638.677-125.313,670.629-86.698z"
     fill="#2D2D2D" /><path
     id="path39"
     d="M674.895,301.138c-6.676-0.715-13.053-1.394-20.181-2.157c4.986-47.075,2.182-93.503-8.948-140.033  c3.373-0.853,6.502-1.664,9.645-2.433c3.196-0.783,6.405-1.527,10.067-2.397C677.183,202.767,680.223,251.455,674.895,301.138z"
     fill="#2D2D2D" /><path
     id="path41"
     d="M176.74,729.822c-48.12-7.747-93.514-22.23-137.318-43.825c2.927-6.039,5.706-11.785,8.831-18.228  c41.675,20.383,85.219,34.479,131.623,41.99C178.85,716.333,177.868,722.618,176.74,729.822z"
     fill="#2D2D2D" /><path
     id="path43"
     d="M333.385,737.746c44.927-7.528,87.201-20.683,128.41-39.869c2.916,6.188,5.689,12.076,8.659,18.379  c-42.908,20.111-87.12,33.836-133.737,41.521C335.578,750.922,334.528,744.614,333.385,737.746z"
     fill="#2D2D2D" /><path
     id="path45"
     d="M534.509-147.031c4.235-5.963,7.826-11.017,11.736-16.526c38.479,27.108,72.249,58.431,102.128,94.951  c-5.298,4.344-10.198,8.367-15.671,12.855C603.988-90.615,571.443-120.812,534.509-147.031z"
     fill="#2D2D2D" /><path
     id="path47"
     d="M572.265,488.145c-5.64-4.146-10.764-7.914-16.365-12.029c25.944-35.756,45.07-74.279,57.552-116.835  c6.534,1.877,12.783,3.673,19.526,5.612C619.956,409.637,599.913,450.211,572.265,488.145z"
     fill="#2D2D2D" /><path
     id="path49"
     d="M646.32,297.84c-5.868-0.617-11.097-1.152-16.326-1.729c-1.141-0.126-2.266-0.401-2.461-0.437  c0.016-22.061,1.105-43.793-0.255-65.369c-1.356-21.39-5.181-42.62-8.025-64.715c5.253-1.289,11.596-2.843,18.341-4.498  C648.406,206.251,651.263,251.446,646.32,297.84z"
     fill="#2D2D2D" /><path
     id="path51"
     d="M597.632,292.207c1.82,0.104,3.176,0.122,4.519,0.267c5.052,0.534,10.098,1.118,15.678,1.744  c-5.038,45.9-18.135,89.009-39.669,130.551c-5.903-3.074-11.669-6.074-18.03-9.381C580.292,376.436,592.787,335.526,597.632,292.207  z"
     fill="#2D2D2D" /><path
     id="path53"
     d="M332.109,729.463c-1.154-7.049-2.187-13.355-3.28-20.05c42.105-7.058,82.089-19.499,120.853-37.564  c2.894,6.161,5.602,11.927,8.629,18.372C418.033,709.178,376.31,722.086,332.109,729.463z"
     fill="#2D2D2D" /><path
     id="path55"
     d="M214.546-205.362c-42.728,3.637-83.438,12.861-123.436,27.629c-1.315-3.461-2.483-6.516-3.628-9.574  c-1.089-2.91-2.155-5.831-3.482-9.419c41.75-15.649,84.446-25.119,128.849-28.914C213.423-218.771,213.957-212.378,214.546-205.362z  "
     fill="#2D2D2D" /><path
     id="path57"
     d="M610.493-37.638c-27.172-32.576-57.424-61.074-92.146-85.622c3.897-5.595,7.528-10.808,11.581-16.626  c36.29,25.415,67.865,55.134,96.18,89.35C620.749-46.106,615.844-42.059,610.493-37.638z"
     fill="#2D2D2D" /><path
     id="path59"
     d="M-81.887,299.57c7.046-0.949,13.401-1.807,20.146-2.721c5.545,40.182,18.079,77.608,37.769,113.085  c-5.987,3.355-11.545,6.474-17.665,9.907C-62.775,382.248-75.876,342.502-81.887,299.57z"
     fill="#2D2D2D" /><path
     id="path61"
     d="M309.934,655.384c0.803,5.932,1.655,12.266,2.567,19.006c-42.498,5.924-84.325,5.448-126.641-1.2  c1.086-6.825,2.091-13.139,3.018-18.947c20.427,1.337,40.475,3.521,60.542,3.713C269.332,658.153,289.269,656.347,309.934,655.384z"
     fill="#2D2D2D" /><path
     id="path63"
     d="M94.383-169.979c2.454,6.586,4.687,12.574,7.102,19.063C64.216-136.876,29.772-118.23-2.667-94.592  c-4.027-5.489-7.782-10.606-11.965-16.307C19.073-135.879,55.196-155.191,94.383-169.979z"
     fill="#2D2D2D" /><path
     id="path65"
     d="M733.549,58.379c6.612-2.684,12.52-5.08,18.794-7.626c15.387,37.7,26.063,76.018,32.769,116.416  c-6.68,1.101-13.109,2.159-20.029,3.298C758.675,131.928,748.316,94.911,733.549,58.379z"
     fill="#2D2D2D" /><path
     id="path67"
     d="M308.881,645.88c-39.675,5.507-78.634,5.162-118.448-1.101c1.073-6.687,2.103-13.107,3.213-20.021  c37.585,5.839,74.801,6.216,112.35,0.994C306.964,632.511,307.874,638.862,308.881,645.88z"
     fill="#2D2D2D" /><path
     id="path69"
     d="M421.551,589.76c3.105,6.229,5.955,11.939,9.044,18.121c-35.705,17.93-72.706,29.861-112.25,36.546  c-1.137-6.651-2.237-13.092-3.427-20.039C352.274,618.127,387.595,606.542,421.551,589.76z"
     fill="#2D2D2D" /><path
     id="path71"
     d="M-68.727-141.688c4.37,5.293,8.419,10.192,12.862,15.574c-28.401,23.611-53.961,49.347-77.078,78.642  c-5.338-4.127-10.48-8.104-16.044-12.404C-125.181-90.288-98.758-117.264-68.727-141.688z"
     fill="#2D2D2D" /><path
     id="path73"
     d="M14.376-71.551c-4.062-5.5-7.839-10.615-12.027-16.288c31.655-23.385,65.507-41.541,102.422-55.401  c2.444,6.591,4.654,12.559,7.061,19.046C76.906-111.03,44.697-93.623,14.376-71.551z"
     fill="#2D2D2D" /><path
     id="path75"
     d="M427.53,650.361c2.822,6.432,5.317,12.126,8.134,18.547c-34.68,15.427-70.469,25.829-108.233,32.242  c-0.595-3.473-1.151-6.66-1.683-9.849c-0.537-3.25-1.05-6.499-1.646-10.223C359.844,675.091,394.011,664.936,427.53,650.361z"
     fill="#2D2D2D" /><path
     id="path77"
     d="M313.727,616.099c-1.104-6.671-2.151-12.992-3.312-19.996c34.296-5.924,66.922-16.39,98.314-32.085  c3.076,6.181,5.913,11.882,9.046,18.176C384.686,598.854,350.303,609.929,313.727,616.099z"
     fill="#2D2D2D" /><path
     id="path79"
     d="M31.371-48.327c-4.182-5.718-7.943-10.86-11.972-16.375c29.642-21.792,61.142-38.745,95.467-51.593  c2.422,6.561,4.641,12.563,7.039,19.059C89.602-85.063,59.746-68.962,31.371-48.327z"
     fill="#2D2D2D" /><path
     id="path81"
     d="M728.445,176.089c-6.792,1.104-13.11,2.132-18.159,2.952c-9.337-33.25-18.547-66.062-28.021-99.802  c4.496-1.834,10.513-4.288,16.953-6.916C712.984,106.125,722.595,140.389,728.445,176.089z"
     fill="#2D2D2D" /><path
     id="path83"
     d="M-110.991,584.563c-3.998,3.578-8.633,7.724-13.854,12.396c-23.249-25.318-43.241-52.588-60.893-82.172  c6.032-3.577,11.518-6.835,16.086-9.545C-150.069,531.726-130.819,557.754-110.991,584.563z"
     fill="#2D2D2D" /><path
     id="path85"
     d="M654.25,465.065c-6.186-3.225-11.698-6.102-16.421-8.564c11.763-30.21,23.418-60.145,35.396-90.898  c4.758,1.248,11.092,2.905,17.839,4.677C682.394,403.381,670.218,434.564,654.25,465.065z"
     fill="#2D2D2D" /><path
     id="path87"
     d="M293.537,598.419c0.816,7.071,1.549,13.445,2.325,20.198c-33.81,3.913-67.086,3.154-100.846-2.15  c1.056-6.658,2.059-12.98,3.175-20.016C229.783,601.313,261.345,602.13,293.537,598.419z"
     fill="#2D2D2D" /><path
     id="path89"
     d="M504.157,59.224c5.655-4.366,10.568-8.156,16.011-12.355c21.021,26.801,37.109,55.772,49.35,87.752  c-6.419,2.438-12.357,4.695-18.949,7.199C539.104,112.031,523.794,84.728,504.157,59.224z"
     fill="#2D2D2D" /><path
     id="path91"
     d="M131.604-71.092c-14.832,7.061-29.214,13.229-42.93,20.636c-13.711,7.404-26.751,16.049-40.621,24.472  c-3.57-4.855-7.338-9.975-11.52-15.661c27.328-20.147,56.492-35.853,88.279-47.69C127.22-82.873,129.451-76.875,131.604-71.092z"
     fill="#2D2D2D" /><path
     id="path93"
     d="M29.684,467.971c5.002-5,9.375-9.375,14.197-14.197c22.151,22.635,46.646,41.518,74.971,56.467  c-3.151,6.019-6.165,11.775-9.422,17.997C79.218,512.302,52.885,492.47,29.684,467.971z"
     fill="#2D2D2D" /><path
     id="path95"
     d="M-169.443,290.722c-2.708-32.269-1.889-63.65,2.563-95.658c6.635,0.929,13.115,1.835,18.432,2.579  c-0.834,30.487-1.654,60.504-2.5,91.404C-155.875,289.492-162.365,290.081-169.443,290.722z"
     fill="#2D2D2D" /><path
     id="path97"
     d="M-140.771,288.179c-2.58-29.893-1.75-59.077,2.297-88.69c6.732,0.927,13.054,1.8,18.582,2.557  c-0.75,28.228-1.487,56.051-2.244,84.529C-127.49,287.038-134.005,287.598-140.771,288.179z"
     fill="#2D2D2D" /><path
     id="path99"
     d="M509.71-59.092c3.849-4.646,7.893-9.525,12.247-14.777c22.117,17.97,41.607,37.53,59.683,59.704  c-5.163,4.307-10.022,8.355-14.726,12.278C547.764-21.04,528.93-39.875,509.71-59.092z"
     fill="#2D2D2D" /><path
     id="path101"
     d="M287.191,542.041c0.741,6.327,1.467,12.52,2.277,19.459c-28.569,3.376-56.677,2.732-85.188-1.742  c1.065-6.76,2.065-13.096,3.051-19.353c13.527,0.959,26.745,2.415,39.99,2.692C260.391,543.371,273.487,542.454,287.191,542.041z"
     fill="#2D2D2D" /><path
     id="path103"
     d="M81.466,19.488c-3.029-4.12-6.8-9.253-10.893-14.829c23.03-17.042,47.541-30.128,74.624-40.313  c2.359,6.354,4.62,12.454,6.436,17.349C128.065-5.611,105.094,6.761,81.466,19.488z"
     fill="#2D2D2D" /><path
     id="path105"
     d="M-109.991,203.207c6.77,0.92,13.093,1.781,18.686,2.542c-0.721,26.054-1.433,51.761-2.168,78.384  c-5.222,0.479-11.708,1.072-18.682,1.709C-114.609,258.087-113.845,230.899-109.991,203.207z"
     fill="#2D2D2D" /><path
     id="path107"
     d="M-199.57-0.886c-5.232-2.937-10.647-5.977-16.786-9.422c13.043-23.669,28-45.65,44.767-67.201  c5.454,4.22,10.487,8.117,15.306,11.849C-170.738-44.031-184.935-22.794-199.57-0.886z"
     fill="#2D2D2D" /><path
     id="path109"
     d="M654.023,614.691c-5.235-4.688-9.85-8.819-14.441-12.926c15.784-20.389,31.389-40.54,47.438-61.275  c4.874,3.171,10.185,6.633,16.144,10.513C688.59,573.604,672.209,594.32,654.023,614.691z"
     fill="#2D2D2D" /><path
     id="path111"
     d="M491.556-36.718c3.753-4.606,7.679-9.429,12.101-14.859c20.613,16.455,38.607,34.992,55.85,55.601  c-5.351,4.368-10.371,8.464-14.979,12.226C526.753-1.521,509.492-18.783,491.556-36.718z"
     fill="#2D2D2D" /><path
     id="path113"
     d="M304.332,559.403c-1.159-7.033-2.202-13.352-3.059-18.554c23.383-6.982,46.169-13.787,69.644-20.798  c2.13,4.825,4.7,10.655,7.552,17.125C354.711,547.845,330.324,555,304.332,559.403z"
     fill="#2D2D2D" /><path
     id="path115"
     d="M447.713-22.294c-4.046,5.777-7.619,10.874-10.889,15.544c-20.784-11.397-41.272-22.63-62.679-34.369  c1.989-4.925,4.419-10.945,7.064-17.494C404.886-49.142,426.622-37.091,447.713-22.294z"
     fill="#2D2D2D" /><path
     id="path117"
     d="M473.331-14.406c3.866-4.663,7.918-9.558,12.335-14.885c19.082,15.399,35.758,32.281,51.488,51.446  c-5.168,4.259-10.063,8.285-14.953,12.311C505.929,18.19,489.85,2.111,473.331-14.406z"
     fill="#2D2D2D" /><path
     id="path119"
     d="M596.959,563.276c14.246-18.428,27.984-36.196,42.219-54.604c4.963,3.243,10.411,6.798,17.094,11.168  c-14.892,19.23-29.309,37.84-44.125,56.971C606.278,571.583,601.645,567.45,596.959,563.276z"
     fill="#2D2D2D" /><path
     id="path121"
     d="M-65.061,273.573c-5.664,0.347-12.061,0.741-19.133,1.181c-1.543-22.717-0.507-44.993,2.581-67.709  c6.778,0.933,13.118,1.809,19.098,2.633C-63.366,231.019-64.207,252.055-65.061,273.573z"
     fill="#2D2D2D" /><path
     id="path123"
     d="M455.252,7.984c3.853-4.732,7.865-9.659,12.614-15.495c15.939,15.94,31.453,31.453,47.534,47.536  c-5.544,4.618-10.415,8.672-15.34,12.768C485.058,37.794,470.361,23.09,455.252,7.984z"
     fill="#2D2D2D" /><path
     id="path125"
     d="M-112.441,471.286c6.848-4.044,12.341-7.288,17.599-10.394c11.708,16.686,23.112,32.938,34.966,49.829  c-4.561,3.807-9.426,7.868-15.599,13.021C-87.819,506.223-99.868,489.128-112.441,471.286z"
     fill="#2D2D2D" /><path
     id="path127"
     d="M-56.591,273.329c0.817-21.063,1.602-41.295,2.422-62.43c7.674,1.041,14.13,1.913,20.245,2.743  c-0.771,19.506-1.53,38.743-2.307,58.438C-42.116,272.439-48.5,272.832-56.591,273.329z"
     fill="#2D2D2D" /><path
     id="path129"
     d="M437.024,30.204c4.028-4.832,8.085-9.691,12.794-15.336c14.71,14.708,28.848,28.848,43.504,43.501  c-5.752,4.711-10.657,8.73-15.464,12.666C464.111,57.291,450.773,43.953,437.024,30.204z"
     fill="#2D2D2D" /><path
     id="path131"
     d="M-87.59,456.569c6.744-4.003,12.072-7.161,17.502-10.389c10.921,15.533,21.616,30.738,32.571,46.315  c-4.975,4.051-9.896,8.059-15.82,12.877C-64.866,488.945-75.999,473.082-87.59,456.569z"
     fill="#2D2D2D" /><path
     id="path133"
     d="M-45.355,431.469c10.307,14.689,20.045,28.563,30.049,42.82c-4.747,3.952-9.518,7.923-15.598,12.992  c-10.689-15.156-21.157-29.997-31.971-45.326C-56.252,437.987-50.777,434.714-45.355,431.469z"
     fill="#2D2D2D" /><path
     id="path135"
     d="M457.516-245.046c-2.738,6.79-5.122,12.692-7.608,18.847c-16.369-5.731-32.376-11.341-49.189-17.229  c1.754-5.975,3.6-12.252,5.73-19.506C423.52-256.956,440.223-251.105,457.516-245.046z"
     fill="#2D2D2D" /><path
     id="path137"
     d="M540.364,293.186c0.801-17.087,1.573-33.609,2.37-50.531c6.067-0.245,12.486-0.507,20.291-0.826  c-0.806,17.985-1.594,35.611-2.412,53.914C553.156,294.801,546.824,294,540.364,293.186z"
     fill="#2D2D2D" /><path
     id="path139"
     d="M301.446-282.952c-0.675,7.431-1.247,13.802-1.833,20.265c-17.284-0.681-34.205-1.347-51.396-2.024  c0.325-6.382,0.657-12.924,1.028-20.258C265.537-284.34,283.026-283.665,301.446-282.952z"
     fill="#2D2D2D" /><path
     id="path141"
     d="M533.347,328.537c6.087,1.597,12.262,3.223,19.686,5.172c-6.079,16.976-11.965,33.426-18.146,50.705  c-6.916-3.181-12.823-5.901-18.543-8.535C522.032,360.032,527.563,344.646,533.347,328.537z"
     fill="#2D2D2D" /><path
     id="path143"
     d="M248.035-236.076c0.167-6.691,0.332-13.084,0.516-20.307c16.428,0.648,33.117,1.307,50.375,1.986  c-0.626,7.195-1.186,13.548-1.77,20.236C280.862-234.795,264.763-235.424,248.035-236.076z"
     fill="#2D2D2D" /><path
     id="path145"
     d="M392.853-215.896c1.838-6.25,3.636-12.364,5.726-19.481c16.113,5.641,31.826,11.146,48.022,16.815  c-2.721,6.739-5.104,12.655-7.614,18.873C423.582-205.101,408.415-210.43,392.853-215.896z"
     fill="#2D2D2D" /><path
     id="path147"
     d="M-69.025,149.625c6.461-15.813,12.697-31.079,19.322-47.298c6.672,3.331,12.477,6.229,18.265,9.121  c-6.083,14.818-11.995,29.225-18.231,44.418C-55.455,154.001-61.639,152.004-69.025,149.625z"
     fill="#2D2D2D" /><path
     id="path149"
     d="M333.818-74.759c-1.794,7.474-3.247,13.526-4.75,19.79c-15.598-2.584-31.098-5.152-47.21-7.821  c0.563-6.204,1.158-12.71,1.845-20.259C300.527-80.267,316.796-77.576,333.818-74.759z"
     fill="#2D2D2D" /><path
     id="path151"
     d="M250.795-198.89c13.484,0.555,28.116,1.154,43.325,1.777c-0.597,7.006-1.134,13.368-1.713,20.204  c-14.441-0.555-28.605-1.102-43.425-1.67C249.559-185.059,250.145-191.597,250.795-198.89z"
     fill="#2D2D2D" /><path
     id="path153"
     d="M588.377-19.689c-9.978-11.061-19.353-21.453-28.938-32.085c4.681-4.682,9.154-9.156,14.344-14.345  c10.164,11.218,20.054,22.133,30.369,33.519C598.497-27.971,593.575-23.941,588.377-19.689z"
     fill="#2D2D2D" /><path
     id="path155"
     d="M424.891-165.362c-2.829,6.958-5.232,12.863-7.676,18.872c-13.709-4.812-26.941-9.454-40.724-14.291  c1.784-6.175,3.552-12.297,5.633-19.479C396.328-175.309,410.23-170.469,424.891-165.362z"
     fill="#2D2D2D" /><path
     id="path157"
     d="M64.675,634.914c3.218-6.542,5.963-12.131,8.971-18.247c12.428,5.353,24.721,10.648,37.55,16.17  c-2.194,5.95-4.398,11.934-7.019,19.047C91.04,646.237,78.241,640.742,64.675,634.914z"
     fill="#2D2D2D" /><path
     id="path159"
     d="M-131.704,378.08c-6.24,1.997-12.313,3.935-19.337,6.188c-3.68-13.8-7.271-27.256-11.018-41.322  c6.989-1.489,13.208-2.818,19.866-4.243C-138.691,351.846-135.258,364.739-131.704,378.08z"
     fill="#2D2D2D" /><path
     id="path161"
     d="M-87.013-164.073c4.612,5.694,8.513,10.513,12.763,15.763c-9.75,8.606-19.21,16.956-28.744,25.376  c-4.793-4.792-9.381-9.381-14.436-14.436C-107.141-146.398-97.362-154.985-87.013-164.073z"
     fill="#2D2D2D" /><path
     id="path163"
     d="M-285.014,286.902c7.023-0.45,13.386-0.861,20.267-1.305c1.292,13.104,2.557,25.973,3.866,39.265  c-6.634,0.91-12.966,1.784-20.087,2.766C-282.319,314.012-283.642,300.721-285.014,286.902z"
     fill="#2D2D2D" /><path
     id="path165"
     d="M-285.932,258.957c0.336-12.458,0.688-25.525,1.059-39.254c6.938,0.418,13.299,0.8,20.231,1.218  c-0.312,12.979-0.618,25.791-0.93,38.701C-272.099,259.414-278.619,259.198-285.932,258.957z"
     fill="#2D2D2D" /><path
     id="path167"
     d="M-123.663,375.459c-3.483-13.116-6.788-25.563-10.292-38.763c7.065-1.479,13.456-2.814,19.898-4.164  c3.277,12.345,6.43,24.216,9.736,36.675C-110.5,371.207-116.561,373.166-123.663,375.459z"
     fill="#2D2D2D" /><path
     id="path169"
     d="M77.575,609.159c3.22-6.515,6.042-12.223,9.013-18.232c11.563,4.991,22.776,9.832,34.75,15.001  c-2.223,6.001-4.471,12.079-7.054,19.062C102.03,619.705,90.283,614.639,77.575,609.159z"
     fill="#2D2D2D" /><path
     id="path171"
     d="M-256.393,285.42c7.098-0.439,13.465-0.832,20.256-1.249c1.225,12.346,2.406,24.3,3.637,36.724  c-6.534,0.883-12.847,1.737-20.098,2.716C-253.87,310.808-255.108,298.332-256.393,285.42z"
     fill="#2D2D2D" /><path
     id="path173"
     d="M-236.017,222.937c-0.338,12.627-0.657,24.52-0.977,36.513c-6.531-0.319-12.904-0.626-20.208-0.98  c0.267-11.192,0.568-23.751,0.874-36.823C-249.214,222.099-242.846,222.503-236.017,222.937z"
     fill="#2D2D2D" /><path
     id="path175"
     d="M619.626,276.521c-7.195-0.426-13.574-0.804-18.776-1.114c-0.426-11.751-0.83-23.015-1.258-34.768  c6.638-0.28,13.017-0.545,19.204-0.805C619.075,252.112,619.346,264.092,619.626,276.521z"
     fill="#2D2D2D" /><path
     id="path177"
     d="M90.301,583.423c3.285-6.667,6.1-12.377,9.007-18.282c10.75,4.656,21.076,9.128,31.966,13.842  c-2.214,6.043-4.396,12.007-6.961,19.02C113.062,593.182,102.064,588.468,90.301,583.423z"
     fill="#2D2D2D" /><path
     id="path179"
     d="M-76.94,360.534c-6.224,1.981-12.287,3.917-19.317,6.154c-3.216-12.016-6.311-23.574-9.563-35.716  c6.924-1.472,13.147-2.795,19.863-4.224C-82.956,337.992-80.018,349.009-76.94,360.534z"
     fill="#2D2D2D" /><path
     id="path181"
     d="M-207.356,224.641c-0.307,11.79-0.603,23.085-0.91,34.871c-6.529-0.317-12.934-0.626-20.208-0.983  c0.249-10.926,0.518-22.739,0.798-35.132C-220.594,223.825-214.076,224.226-207.356,224.641z"
     fill="#2D2D2D" /><path
     id="path183"
     d="M-227.77,283.416c7.214-0.429,13.607-0.811,20.306-1.216c1.145,11.693,2.255,23.039,3.404,34.762  c-6.592,0.888-12.917,1.739-20.081,2.698C-225.354,307.585-226.523,295.864-227.77,283.416z"
     fill="#2D2D2D" /><path
     id="path185"
     d="M284.57-226.495c-0.448,7.086-0.854,13.443-1.287,20.226c-11.522-0.295-22.753-0.582-34.565-0.886  c0.586-6.569,1.17-13.118,1.812-20.292C260.451-227.169,272.253-226.839,284.57-226.495z"
     fill="#2D2D2D" /><path
     id="path187"
     d="M424.494-196.215c-2.586,6.848-4.778,12.647-7.178,18.998c-10.895-3.643-21.543-7.205-32.72-10.942  c1.813-6.205,3.604-12.336,5.69-19.464C401.568-203.86,412.711-200.145,424.494-196.215z"
     fill="#2D2D2D" /><path
     id="path189"
     d="M590.162,557.395c-5.442-4.972-10.01-9.144-15.01-13.713c6.887-8.301,13.558-16.339,20.678-24.919  c5.232,3.977,10.273,7.81,16.163,12.286C604.689,539.859,597.686,548.313,590.162,557.395z"
     fill="#2D2D2D" /><path
     id="path191"
     d="M-43.706-60.492c-4.998-4.998-9.379-9.376-14.386-14.386c8.538-7.549,16.635-14.705,25.469-22.512  c4.372,5.315,8.375,10.183,12.89,15.674C-27.825-74.551-35.738-67.544-43.706-60.492z"
     fill="#2D2D2D" /><path
     id="path193"
     d="M485.65-76.325c-8.831-5.727-16.827-10.916-25.405-16.482c3.231-5.526,6.445-11.015,10.214-17.46  c8.807,5.641,17.382,11.136,26.885,17.226C493.327-87.295,489.621-82,485.65-76.325z"
     fill="#2D2D2D" /><path
     id="path195"
     d="M553.72,524.528c6.609-7.91,12.808-15.336,19.401-23.234c5.185,3.962,10.228,7.813,16.095,12.298  c-6.737,8.131-13.24,15.979-20.263,24.459C563.7,533.388,558.862,529.092,553.72,524.528z"
     fill="#2D2D2D" /><path
     id="path197"
     d="M219.419-148.387c-10.143,1.228-19.794,2.393-30.035,3.633c-1.065-6.582-2.106-13.02-3.25-20.072  c10.638-1.28,20.824-2.503,31.583-3.797C218.317-161.474,218.868-154.951,219.419-148.387z"
     fill="#2D2D2D" /><path
     id="path199"
     d="M219.835-53.531c10.741-0.588,20.611-1.127,30.745-1.681c-0.223,7.146-0.423,13.547-0.631,20.315  c-8.676,0.497-18.157,1.045-27.945,1.606C221.292-39.945,220.611-46.306,219.835-53.531z"
     fill="#2D2D2D" /><path
     id="path201"
     d="M-75.906,34.451c6.116-8.363,11.708-16.015,17.688-24.188c5.566,4.4,10.552,8.34,15.893,12.562  c-5.621,7.753-10.947,15.115-16.62,22.946C-64.523,42.051-69.809,38.521-75.906,34.451z"
     fill="#2D2D2D" /><path
     id="path203"
     d="M220.061-140.011c0.601,7.164,1.132,13.529,1.698,20.271c-9.431,1.158-18.454,2.265-28.024,3.438  c-1.037-6.462-2.036-12.736-3.2-20.003C200.228-137.522,209.739-138.717,220.061-140.011z"
     fill="#2D2D2D" /><path
     id="path205"
     d="M532.4,505.293c6.157-7.426,11.848-14.29,17.957-21.665c5.223,3.99,10.273,7.85,16.128,12.324  c-6.352,7.647-12.485,15.036-18.927,22.788C542.25,514.031,537.611,509.916,532.4,505.293z"
     fill="#2D2D2D" /><path
     id="path207"
     d="M445.278-68.219c3.507-5.889,6.756-11.336,10.399-17.452c8.358,5.404,16.29,10.532,24.99,16.158  c-4.048,5.746-7.772,11.025-11.709,16.613C460.98-58.063,453.503-62.901,445.278-68.219z"
     fill="#2D2D2D" /><path
     id="path209"
     d="M543.853,478.382c-6.105,7.341-11.671,14.044-17.804,21.43c-5.064-4.618-9.738-8.88-14.989-13.667  c5.54-6.693,10.915-13.191,16.634-20.107C533.071,470.149,538.118,474.003,543.853,478.382z"
     fill="#2D2D2D" /><path
     id="path211"
     d="M-35.751,28.029c5.652,4.433,10.645,8.354,15.978,12.542c-5.201,7.193-10.076,13.928-15.253,21.086  c-5.59-3.723-10.899-7.262-16.887-11.25C-46.496,42.903-41.31,35.724-35.751,28.029z"
     fill="#2D2D2D" /><path
     id="path213"
     d="M430.884-43.406c3.448-5.813,6.685-11.274,10.342-17.441c7.759,5.02,15.165,9.816,23.037,14.909  c-4.144,5.856-7.808,11.04-11.721,16.572C445.185-34.134,438.234-38.638,430.884-43.406z"
     fill="#2D2D2D" /><path
     id="path215"
     d="M195.326-108.085c9.338-1.114,18.148-2.168,27.435-3.277c0.579,6.968,1.112,13.322,1.687,20.194  c-8.606,1.052-17.02,2.084-25.942,3.179C197.456-94.64,196.437-101.072,195.326-108.085z"
     fill="#2D2D2D" /><path
     id="path217"
     d="M595.279,198.022c-1.749-8.633-3.396-16.785-5.14-25.398c6.4-1.535,12.602-3.023,19.67-4.716  c1.84,8.913,3.629,17.565,5.542,26.835C608.453,195.871,602.033,196.92,595.279,198.022z"
     fill="#2D2D2D" /><path
     id="path219"
     d="M12.308,414.307c-5.847,3.877-11.136,7.384-16.949,11.234c-4.227-6.951-8.111-13.336-12.22-20.092  c6.202-3.467,11.749-6.567,17.68-9.883C4.648,401.813,8.274,407.727,12.308,414.307z"
     fill="#2D2D2D" /><path
     id="path221"
     d="M401.459,5.984c3.625-6.021,6.827-11.341,10.449-17.354c6.582,4.245,12.874,8.304,19.632,12.665  c-4.095,5.802-7.763,11.001-11.698,16.583C413.6,13.841,407.775,10.072,401.459,5.984z"
     fill="#2D2D2D" /><path
     id="path223"
     d="M602.283,510.205c4.124-5.979,7.964-11.548,12.202-17.695c5.662,3.704,11.102,7.26,17.01,11.123  c-4.363,6.314-8.323,12.043-12.819,18.539C613.121,518.116,607.895,514.302,602.283,510.205z"
     fill="#2D2D2D" /><path
     id="path225"
     d="M637.554,494.376c-6.067-3.769-11.319-7.033-17.223-10.694c3.556-6.108,7.022-12.049,10.857-18.627  c5.841,3.178,11.392,6.2,17.863,9.721C645.268,481.229,641.608,487.463,637.554,494.376z"
     fill="#2D2D2D" /><path
     id="path227"
     d="M120.257,635.971c6.568,2.06,12.809,4.015,19.646,6.161c-1.865,6.512-3.652,12.755-5.588,19.521  c-6.948-2.193-13.393-4.224-20.59-6.492C115.935,648.677,118.023,642.538,120.257,635.971z"
     fill="#2D2D2D" /><path
     id="path229"
     d="M-68.216,531.182c5.219-4.563,9.99-8.735,15.24-13.322c4.716,5.176,9.111,10.002,13.442,14.761  c-4.938,4.938-9.42,9.419-14.44,14.439C-58.81,541.664-63.281,536.682-68.216,531.182z"
     fill="#2D2D2D" /><path
     id="path231"
     d="M650.399,328.729c1.061-6.829,2.042-13.139,3.14-20.191c6.473,0.827,12.922,1.655,20.152,2.578  c-1.076,6.963-2.104,13.605-3.287,21.273C663.855,331.192,657.488,330.024,650.399,328.729z"
     fill="#2D2D2D" /><path
     id="path233"
     d="M648.424,338.219c6.594,1.389,12.846,2.705,19.928,4.201c-1.651,6.936-3.247,13.651-4.969,20.891  c-6.721-1.754-12.886-3.362-19.606-5.113C645.339,351.485,646.817,345.13,648.424,338.219z"
     fill="#2D2D2D" /><path
     id="path235"
     d="M144.253,664.494c1.83-6.951,3.457-13.119,5.174-19.644c6.688,1.573,13.074,3.08,19.94,4.696  c-1.358,6.533-2.655,12.774-4.114,19.808C158.332,667.754,151.637,666.203,144.253,664.494z"
     fill="#2D2D2D" /><path
     id="path237"
     d="M-168.534,300.986c7.066-0.75,13.443-1.429,20.161-2.137c0.939,6.771,1.819,13.127,2.793,20.181  c-6.575,1.074-13.02,2.13-20.035,3.28C-166.602,315.128-167.52,308.406-168.534,300.986z"
     fill="#2D2D2D" /><path
     id="path239"
     d="M-108.67,434.221c-6.118,3.041-11.816,5.866-18.118,8.995c-3.036-6.472-5.896-12.568-9.122-19.448  c6.333-2.763,12.292-5.364,18.637-8.129C-114.354,421.943-111.606,427.88-108.67,434.221z"
     fill="#2D2D2D" /><path
     id="path241"
     d="M149.824-136.299c-6.62,1.909-12.741,3.672-19.449,5.608c-2.055-6.521-4.011-12.714-6.106-19.362  c6.974-2.024,13.452-3.902,20.395-5.916C146.451-149.152,148.107-142.84,149.824-136.299z"
     fill="#2D2D2D" /><path
     id="path243"
     d="M627.411,101.668c6.308-2.557,12.188-4.94,18.78-7.613c2.525,6.652,4.907,12.92,7.574,19.95  c-6.509,2.279-12.632,4.424-19.19,6.722C632.145,114.261,629.853,108.163,627.411,101.668z"
     fill="#2D2D2D" /><path
     id="path245"
     d="M643.466,149.473c-1.966-6.639-3.777-12.748-5.795-19.536c6.381-2.045,12.575-4.034,19.338-6.202  c2.026,6.866,3.93,13.334,6.032,20.475C656.362,146.004,650.091,147.69,643.466,149.473z"
     fill="#2D2D2D" /><path
     id="path247"
     d="M-128.28,387.419c2.463,6.592,4.649,12.433,7.12,19.035c-6.202,2.526-12.215,4.974-18.786,7.646  c-2.603-6.947-4.966-13.248-7.511-20.039C-140.682,391.716-134.517,389.581-128.28,387.419z"
     fill="#2D2D2D" /><path
     id="path249"
     d="M179.37-142.92c-6.866,1.436-13.141,2.748-19.798,4.141c-1.561-6.606-3.031-12.84-4.654-19.717  c6.961-1.484,13.549-2.889,20.674-4.407C176.863-156.185,178.047-149.908,179.37-142.92z"
     fill="#2D2D2D" /><path
     id="path251"
     d="M623.479,92.548c-2.996-6.477-5.606-12.125-8.5-18.381c6.076-3.002,11.918-5.89,18.163-8.979  c3.054,6.525,5.844,12.488,8.978,19.182C635.822,87.132,629.868,89.744,623.479,92.548z"
     fill="#2D2D2D" /><path
     id="path253"
     d="M353.663-157.919c6.897,1.821,13.4,3.536,20.558,5.423c-1.941,6.597-3.772,12.824-5.728,19.474  c-6.563-1.748-12.699-3.379-19.555-5.209C350.498-144.729,352.012-151.037,353.663-157.919z"
     fill="#2D2D2D" /><path
     id="path255"
     d="M612.469,28.501c-5.915,3.745-11.272,7.142-17.092,10.829c-3.751-5.617-7.266-10.879-11.257-16.852  c5.507-3.858,10.795-7.565,16.65-11.665C604.78,16.879,608.474,22.46,612.469,28.501z"
     fill="#2D2D2D" /><path
     id="path257"
     d="M229.194-148.983c-0.388-6.888-0.754-13.293-1.147-20.247c7.15-0.256,13.918-0.5,21.083-0.759  c-0.389,6.957-0.755,13.499-1.136,20.352C242.793-149.458,236.374-149.232,229.194-148.983z"
     fill="#2D2D2D" /><path
     id="path259"
     d="M600.523,47.702c5.915-3.493,11.359-6.711,17.446-10.305c3.514,6.263,6.782,12.092,10.338,18.43  c-6.147,3.266-11.735,6.238-17.888,9.504C607.073,59.368,603.899,53.718,600.523,47.702z"
     fill="#2D2D2D" /><path
     id="path261"
     d="M-108.952,155.922c-1.625,6.649-3.012,12.333-4.561,18.673c-6.527-1.395-12.927-2.765-19.854-4.247  c1.609-6.629,3.118-12.846,4.786-19.716C-121.876,152.44-115.563,154.142-108.952,155.922z"
     fill="#2D2D2D" /><path
     id="path263"
     d="M-116.481,113.417c2.659-6.551,4.981-12.27,7.595-18.692c6.267,2.739,12.215,5.341,18.577,8.121  c-2.373,5.925-4.595,11.467-7.108,17.739C-103.63,118.249-109.702,115.967-116.481,113.417z"
     fill="#2D2D2D" /><path
     id="path265"
     d="M-73.579,69.786c-5.909-3.313-11.456-6.423-17.678-9.912c3.37-5.729,6.565-11.161,10.156-17.262  c5.771,3.615,11.142,6.985,17.163,10.756C-67.106,58.768-70.194,64.024-73.579,69.786z"
     fill="#2D2D2D" /><path
     id="path267"
     d="M-113.307,403.339c-2.459-6.594-4.623-12.389-7.034-18.855c6.479-2.273,12.599-4.417,19.113-6.703  c2.272,5.999,4.389,11.583,6.788,17.924C-100.64,398.212-106.647,400.642-113.307,403.339z"
     fill="#2D2D2D" /><path
     id="path269"
     d="M-95.95,68.095c6.279,3.34,11.88,6.322,17.915,9.531c-2.818,5.729-5.452,11.079-8.375,17.018  c-6.011-2.782-11.779-5.453-18.497-8.559C-102,80.256-99.194,74.607-95.95,68.095z"
     fill="#2D2D2D" /><path
     id="path271"
     d="M161.55-130.542c6.703-1.404,12.933-2.711,19.595-4.108c1.269,6.877,2.422,13.17,3.671,19.953  c-6.152,1.295-12.004,2.53-18.521,3.905C164.713-117.371,163.187-123.728,161.55-130.542z"
     fill="#2D2D2D" /><path
     id="path273"
     d="M597.18,104.172c-2.779-5.977-5.238-11.272-8.017-17.259c6.015-2.988,11.831-5.881,18.174-9.038  c2.905,6.254,5.577,12.007,8.444,18.181C609.417,98.834,603.584,101.379,597.18,104.172z"
     fill="#2D2D2D" /><path
     id="path275"
     d="M-125.951,141.457c2.059-6.413,3.949-12.32,6.077-18.949c6.425,2.25,12.568,4.397,19.176,6.709  c-1.939,6.029-3.756,11.695-5.788,18.029C-113.042,145.295-119.279,143.438-125.951,141.457z"
     fill="#2D2D2D" /><path
     id="path277"
     d="M148.057,614.503c-1.902,6.616-3.663,12.737-5.623,19.539c-6.3-1.986-12.329-3.884-18.919-5.963  c2.197-6.477,4.24-12.495,6.497-19.145C135.917,610.757,141.595,612.508,148.057,614.503z"
     fill="#2D2D2D" /><path
     id="path279"
     d="M151.664,636.694c1.819-6.892,3.448-13.065,5.176-19.624c6.281,1.465,12.12,2.825,18.539,4.321  c-1.373,6.503-2.688,12.737-4.192,19.863C164.748,639.753,158.562,638.31,151.664,636.694z"
     fill="#2D2D2D" /><path
     id="path281"
     d="M588.142,43.823c-6.01,3.782-11.265,7.086-17.089,10.75c-3.467-5.138-6.775-10.045-10.537-15.626  c5.568-3.901,10.884-7.622,16.685-11.688C580.974,32.965,584.369,38.109,588.142,43.823z"
     fill="#2D2D2D" /><path
     id="path283"
     d="M626.604,123.574c-6.81,2.379-12.695,4.433-19.138,6.684c-2.253-5.925-4.368-11.491-6.691-17.613  c6.259-2.552,12.155-4.955,18.758-7.648C621.912,111.257,624.162,117.163,626.604,123.574z"
     fill="#2D2D2D" /><path
     id="path285"
     d="M625.059,304.573c6.969,0.968,13.28,1.842,20.107,2.787c-1.025,6.605-1.976,12.72-3.057,19.686  c-6.624-1.225-13.021-2.407-19.949-3.688C623.123,317.09,624.033,311.209,625.059,304.573z"
     fill="#2D2D2D" /><path
     id="path287"
     d="M-101.073,430.417c-2.891-6.243-5.486-11.834-8.42-18.156c6.332-2.757,12.275-5.343,18.586-8.088  c2.725,5.833,5.243,11.232,8.004,17.149C-88.908,424.324-94.587,427.168-101.073,430.417z"
     fill="#2D2D2D" /><path
     id="path289"
     d="M-32.501,526.577c-4.76-4.761-9.107-9.106-13.986-13.986c5.289-4.628,10.068-8.803,14.795-12.935  c4.6,4.601,8.804,8.804,13.056,13.057C-23.582,517.657-28.056,522.134-32.501,526.577z"
     fill="#2D2D2D" /><path
     id="path291"
     d="M620.247,332.178c6.756,1.422,13.019,2.738,19.886,4.188c-1.496,6.487-2.921,12.657-4.479,19.399  c-6.627-1.731-12.797-3.338-19.589-5.106C617.438,344.61,618.751,338.796,620.247,332.178z"
     fill="#2D2D2D" /><path
     id="path293"
     d="M456.57,593.728c-6.099,3.444-11.358,6.416-17.342,9.792c-3.236-6.074-6.299-11.807-9.57-17.941  c5.699-3.189,10.901-6.107,16.532-9.259C449.766,582.312,453.097,587.899,456.57,593.728z"
     fill="#2D2D2D" /><path
     id="path295"
     d="M489.234,571.876c-4.354-5.905-8.129-11.025-12.089-16.39c5-3.917,9.57-7.499,14.759-11.565  c4.206,4.996,8.283,9.836,13.057,15.509C499.732,563.566,494.801,567.473,489.234,571.876z"
     fill="#2D2D2D" /><path
     id="path297"
     d="M635.313,151.809c-6.956,1.85-12.948,3.443-19.555,5.202c-1.813-6.013-3.527-11.699-5.436-18.054  c6.356-2.084,12.539-4.11,19.335-6.34C631.568,139.105,633.359,145.184,635.313,151.809z"
     fill="#2D2D2D" /><path
     id="path299"
     d="M-137.267,317.574c-0.925-6.929-1.743-13.055-2.632-19.699c6.785-0.746,13.095-1.442,20.061-2.213  c0.87,6.074,1.709,11.942,2.672,18.651C-123.761,315.386-130.165,316.425-137.267,317.574z"
     fill="#2D2D2D" /><path
     id="path301"
     d="M157.491-108.56c-6.326,1.817-11.917,3.424-18.279,5.25c-2.036-6.429-3.999-12.627-6.124-19.333  c6.597-1.911,12.694-3.681,19.224-5.574C154.087-121.482,155.714-115.312,157.491-108.56z"
     fill="#2D2D2D" /><path
     id="path303"
     d="M465.023,588.492c-3.828-6.021-7.166-11.276-10.87-17.109c5.178-3.488,10.094-6.8,15.5-10.443  c3.966,5.595,7.646,10.79,11.735,16.561C475.874,581.204,470.773,584.628,465.023,588.492z"
     fill="#2D2D2D" /><path
     id="path305"
     d="M248.219-120.871c-4.896,0.161-10.875,0.358-17.222,0.566c-0.393-6.75-0.763-13.12-1.18-20.222  c6.557-0.234,12.85-0.461,19.734-0.705C249.096-134.279,248.668-127.771,248.219-120.871z"
     fill="#2D2D2D" /><path
     id="path307"
     d="M575.869,62.5c5.901-3.502,11.363-6.746,17.373-10.312c3.218,5.675,6.236,10.993,9.647,17.008  c-6.079,3.229-11.796,6.269-17.943,9.535C581.839,73.176,578.945,68.004,575.869,62.5z"
     fill="#2D2D2D" /><path
     id="path309"
     d="M366.061-124.925c-2.016,6.841-3.817,12.942-5.752,19.508c-6.131-1.642-11.888-3.18-18.057-4.832  c1.593-6.59,3.098-12.785,4.773-19.701C353.26-128.304,359.207-126.734,366.061-124.925z"
     fill="#2D2D2D" /><path
     id="path311"
     d="M-83.183,400.718c6.418-2.779,12.27-5.309,18.592-8.041c2.518,5.42,4.866,10.462,7.425,15.959  c-6.143,3.061-11.85,5.899-18.156,9.035C-78.013,411.872-80.501,406.501-83.183,400.718z"
     fill="#2D2D2D" /><path
     id="path313"
     d="M-92.771,131.903c6.712,2.366,12.558,4.426,19.083,6.727c-1.748,5.604-3.445,11.042-5.273,16.894  c-6.517-1.936-12.624-3.752-19.515-5.797C-96.569,143.761-94.762,138.127-92.771,131.903z"
     fill="#2D2D2D" /><path
     id="path315"
     d="M563.84,59.248c-6.059,3.797-11.318,7.095-17.049,10.684c-3.324-4.955-6.414-9.559-9.862-14.7  c5.548-3.897,10.741-7.542,16.616-11.669C557.103,48.982,560.418,54.034,563.84,59.248z"
     fill="#2D2D2D" /><path
     id="path317"
     d="M190.28-86.519c-5.918,1.246-11.231,2.361-17.174,3.614c-1.563-6.583-3.077-12.947-4.699-19.768  c6.145-1.282,11.833-2.47,18.163-3.791C187.815-99.783,188.981-93.521,190.28-86.519z"
     fill="#2D2D2D" /><path
     id="path319"
     d="M-56.687,57.797c5.873,3.719,11.266,7.127,17.104,10.821c-3.041,5.146-5.868,9.927-9.008,15.236  c-5.918-3.351-11.448-6.478-17.688-10.012C-63.032,68.413-60.002,63.343-56.687,57.797z"
     fill="#2D2D2D" /><path
     id="path321"
     d="M-111.402,294.608c6.961-0.766,13.299-1.461,20.104-2.202c0.825,5.855,1.603,11.354,2.463,17.489  c-6.675,1.061-13.084,2.077-20.063,3.187C-109.757,306.739-110.555,300.867-111.402,294.608z"
     fill="#2D2D2D" /><path
     id="path323"
     d="M-74.059,368.422c2.132,5.699,4.032,10.764,6.137,16.383c-6.169,2.53-12.039,4.938-18.781,7.706  c-2.205-5.873-4.272-11.388-6.527-17.394C-86.727,372.843-80.729,370.75-74.059,368.422z"
     fill="#2D2D2D" /><path
     id="path325"
     d="M177.241,613.225c-6.26-1.48-11.907-2.814-18.061-4.268c1.718-6.596,3.331-12.783,5.096-19.553  c5.677,1.296,11.105,2.534,17.153,3.917C180.045,599.897,178.729,606.143,177.241,613.225z"
     fill="#2D2D2D" /><path
     id="path327"
     d="M581.729,90.757c2.709,5.889,5.113,11.113,7.723,16.781c-6.303,2.743-12.117,5.272-18.505,8.05  c-2.503-5.3-4.862-10.292-7.443-15.765C569.539,96.821,575.208,94,581.729,90.757z"
     fill="#2D2D2D" /><path
     id="path329"
     d="M165.041-80.866c-6.068,1.725-11.286,3.211-16.919,4.811c-2.051-6.452-3.987-12.545-6.141-19.329  c6.127-1.761,11.825-3.397,17.913-5.147C161.667-93.757,163.284-87.579,165.041-80.866z"
     fill="#2D2D2D" /><path
     id="path331"
     d="M-24.65,493.56c5.555-4.752,10.257-8.773,15.313-13.104c3.956,4.397,7.564,8.398,11.388,12.648  c-4.73,4.731-9.212,9.215-14.354,14.354C-16.586,502.641-20.563,498.162-24.65,493.56z"
     fill="#2D2D2D" /><path
     id="path333"
     d="M139.431,581.778c5.627,1.754,10.795,3.369,16.795,5.245c-1.811,6.312-3.598,12.552-5.584,19.472  c-5.954-1.851-11.61-3.606-17.792-5.528C135.113,594.38,137.224,588.217,139.431,581.778z"
     fill="#2D2D2D" /><path
     id="path335"
     d="M438.688,547.068c5.225-3.43,9.732-6.392,14.61-9.595c3.975,5.655,7.635,10.854,11.629,16.541  c-5.264,3.509-10.047,6.695-15.317,10.211C445.864,558.349,442.45,552.98,438.688,547.068z"
     fill="#2D2D2D" /><path
     id="path337"
     d="M-105.357,176.423c1.598-6.557,2.889-11.859,4.368-17.936c6.547,1.732,12.859,3.402,19.604,5.187  c-1.366,5.729-2.666,11.181-4.066,17.051C-92.185,179.269-98.576,177.889-105.357,176.423z"
     fill="#2D2D2D" /><path
     id="path339"
     d="M431.554,551.542c3.675,6.168,6.915,11.612,10.409,17.474c-5.551,3.127-10.563,5.949-16.096,9.065  c-3.237-6.027-6.227-11.599-9.58-17.841C421.4,557.33,426.189,554.599,431.554,551.542z"
     fill="#2D2D2D" /><path
     id="path341"
     d="M574.04,432.412c-3.216,5.484-6.121,10.446-9.343,15.939c-5.824-3.596-11.206-6.916-17.188-10.606  c2.917-5.096,5.65-9.874,8.723-15.242C562.22,425.832,567.897,428.99,574.04,432.412z"
     fill="#2D2D2D" /><path
     id="path343"
     d="M-52.65,91.087c-2.664,5.376-5.073,10.233-7.815,15.762c-5.94-2.77-11.71-5.463-18.433-8.597  c2.72-5.464,5.35-10.754,8.284-16.645C-64.595,84.782-58.966,87.753-52.65,91.087z"
     fill="#2D2D2D" /><path
     id="path345"
     d="M358.111-97.272c-1.94,6.6-3.733,12.716-5.688,19.374c-5.556-1.454-10.935-2.861-16.829-4.404  c1.6-6.595,3.136-12.94,4.784-19.744C346.453-100.41,352.017-98.914,358.111-97.272z"
     fill="#2D2D2D" /><path
     id="path347"
     d="M473.779,521.658c4.529,5.502,8.455,10.27,12.916,15.683c-4.836,3.802-9.325,7.328-14.43,11.336  c-4.115-5.473-7.914-10.528-12.169-16.186C464.638,528.896,468.954,525.48,473.779,521.658z"
     fill="#2D2D2D" /><path
     id="path349"
     d="M551.168,77.224c5.926-3.525,11.407-6.781,17.455-10.376c3.078,5.444,5.91,10.462,9.07,16.064  c-6.13,3.25-11.749,6.225-17.955,9.518C556.831,87.269,554.106,82.439,551.168,77.224z"
     fill="#2D2D2D" /><path
     id="path351"
     d="M-64.103,114.623c-2.177,5.38-4.209,10.403-6.477,16.017c-6.356-2.4-12.456-4.704-18.99-7.173  c2.327-5.749,4.438-10.96,6.852-16.917C-76.42,109.281-70.437,111.874-64.103,114.623z"
     fill="#2D2D2D" /><path
     id="path353"
     d="M248.305-92.142c-4.157,0.128-9.561,0.293-15.409,0.472c-0.382-6.656-0.746-13.005-1.161-20.244  c6.051-0.214,11.773-0.414,17.327-0.607C248.809-105.745,248.566-99.231,248.305-92.142z"
     fill="#2D2D2D" /><path
     id="path355"
     d="M574.155,123.379c6.383-2.576,12.291-4.961,18.838-7.6c2.175,5.768,4.206,11.142,6.45,17.088  c-6.521,2.301-12.514,4.415-19.122,6.749C578.234,134.125,576.275,128.955,574.155,123.379z"
     fill="#2D2D2D" /><path
     id="path357"
     d="M582.995,147.578c6.403-2.062,12.453-4.012,19.307-6.216c1.775,6.015,3.442,11.651,5.227,17.697  c-6.728,1.807-12.866,3.457-19.591,5.263C586.265,158.651,584.697,153.335,582.995,147.578z"
     fill="#2D2D2D" /><path
     id="path359"
     d="M542.668,444.918c5.823,3.842,11.017,7.271,16.894,11.146c-3.392,4.972-6.627,9.708-10.238,14.987  c-5.621-4.07-10.766-7.792-16.414-11.882C536.167,454.41,539.201,449.979,542.668,444.918z"
     fill="#2D2D2D" /><path
     id="path361"
     d="M124.927,513.521c4.7,2.131,8.744,3.966,13.474,6.112c-2.622,6.123-5.188,12.108-8,18.678  c-4.852-2.227-9.358-4.292-14.415-6.607C119.038,525.496,121.838,519.801,124.927,513.521z"
     fill="#2D2D2D" /><path
     id="path363"
     d="M341.816-42.17c-1.939,6.584-3.742,12.695-5.708,19.374c-4.71-1.232-9.133-2.393-14.098-3.693  c1.594-6.59,3.099-12.79,4.78-19.747C331.75-44.896,336.523-43.604,341.816-42.17z"
     fill="#2D2D2D" /><path
     id="path365"
     d="M301.317-167.209c3.771,0.477,7.162,0.907,11.237,1.422c-0.939,6.74-1.836,13.174-2.79,20.038  c-3.611-0.427-6.84-0.807-10.737-1.266C299.793-153.753,300.523-160.208,301.317-167.209z"
     fill="#2D2D2D" /><path
     id="path367"
     d="M339.459-140.376c-3.648-0.744-6.824-1.389-10.453-2.129c1.259-6.643,2.438-12.916,3.758-19.909  c3.593,0.726,6.922,1.392,10.939,2.198C342.273-153.53,340.915-147.188,339.459-140.376z"
     fill="#2D2D2D" /><path
     id="path369"
     d="M424.974-111.537c-3.402-1.475-6.208-2.695-9.586-4.161c2.61-6.093,5.116-11.94,7.903-18.438  c3.278,1.327,6.402,2.596,10.176,4.124C430.637-123.854,427.989-118.101,424.974-111.537z"
     fill="#2D2D2D" /><path
     id="path371"
     d="M452.096-120.486c3.418,1.865,6.107,3.333,9.515,5.192c-3.273,5.866-6.363,11.391-9.768,17.498  c-2.991-1.546-5.819-3.004-9.192-4.748C445.855-108.631,448.807-114.241,452.096-120.486z"
     fill="#2D2D2D" /><path
     id="path373"
     d="M327.555-134.139c3.469,0.702,6.472,1.307,10.08,2.042c-1.434,6.636-2.812,13.038-4.27,19.812  c-3.27-0.65-6.109-1.216-9.612-1.913C325.012-120.792,326.23-127.202,327.555-134.139z"
     fill="#2D2D2D" /><path
     id="path375"
     d="M437.626-72.587c-2.97-1.59-5.462-2.926-8.634-4.624c3.165-5.989,6.19-11.706,9.473-17.918  c3.064,1.641,5.732,3.07,9.104,4.875C444.253-84.363,441.077-78.716,437.626-72.587z"
     fill="#2D2D2D" /><path
     id="path377"
     d="M298.55-138.529c3.411,0.408,6.271,0.754,10.032,1.206c-0.899,6.59-1.775,13-2.75,20.122  c-3.178-0.402-6.132-0.777-9.557-1.211C297.048-125.231,297.778-131.702,298.55-138.529z"
     fill="#2D2D2D" /><path
     id="path379"
     d="M412.076-107.881c3.116,1.373,5.73,2.522,9.157,4.034c-2.789,6.045-5.499,11.929-8.434,18.293  c-2.831-1.201-5.439-2.305-8.682-3.68C406.732-95.36,409.209-101.156,412.076-107.881z"
     fill="#2D2D2D" /><path
     id="path381"
     d="M598.371,223.652c-0.319-3.067-0.6-5.751-0.93-8.952c6.817-0.781,13.34-1.529,20.153-2.313  c0.335,3.272,0.615,5.977,0.961,9.344C611.791,222.375,605.267,222.997,598.371,223.652z"
     fill="#2D2D2D" /><path
     id="path383"
     d="M415.637-51.763c3.204-6.104,6.094-11.615,9.337-17.799c2.574,1.262,5.08,2.491,8.418,4.124  c-3.416,6.065-6.597,11.719-9.992,17.755C420.764-49.07,418.57-50.222,415.637-51.763z"
     fill="#2D2D2D" /><path
     id="path385"
     d="M392.431-63.01c2.734-6.291,5.273-12.131,8.065-18.549c2.689,1.138,5.122,2.17,8.489,3.597  c-2.825,6.094-5.556,11.986-8.512,18.365C397.784-60.739,395.365-61.767,392.431-63.01z"
     fill="#2D2D2D" /><path
     id="path387"
     d="M318.584-85.941c1.318-6.901,2.511-13.133,3.815-19.93c3.017,0.586,5.617,1.093,9.015,1.757  c-1.387,6.521-2.738,12.869-4.214,19.79C324.412-84.847,321.815-85.334,318.584-85.941z"
     fill="#2D2D2D" /><path
     id="path389"
     d="M295.49-110.037c3.12,0.408,5.783,0.756,8.924,1.169c-0.91,6.668-1.775,13.016-2.728,19.981  c-2.821-0.328-5.438-0.627-8.547-0.983C293.93-96.667,294.69-103.186,295.49-110.037z"
     fill="#2D2D2D" /><path
     id="path391"
     d="M482.148,430.801c1.8-2.319,3.087-3.979,4.782-6.163c5.402,3.938,10.64,7.752,16.308,11.885  c-1.853,2.419-3.324,4.339-5.117,6.683C492.541,438.875,487.428,434.904,482.148,430.801z"
     fill="#2D2D2D" /><path
     id="path393"
     d="M450.057,492.759c-4.384-5.303-8.423-10.191-12.866-15.567c2.126-1.693,3.864-3.075,5.955-4.738  c4.428,5.111,8.577,9.896,13.158,15.188C454.111,489.436,452.273,490.945,450.057,492.759z"
     fill="#2D2D2D" /><path
     id="path395"
     d="M288.787-52.963c2.926,0.382,5.205,0.679,8.114,1.059c-0.95,6.737-1.86,13.191-2.823,20.002  c-2.692-0.343-4.94-0.633-7.595-0.971C287.252-39.6,287.984-45.931,288.787-52.963z"
     fill="#2D2D2D" /><path
     id="path397"
     d="M-38.374,151.182c0.904-2.662,1.636-4.807,2.631-7.727c6.269,2.375,12.334,4.674,18.888,7.158  c-0.789,2.399-1.486,4.522-2.395,7.284C-25.57,155.677-31.551,153.576-38.374,151.182z"
     fill="#2D2D2D" /><path
     id="path399"
     d="M158.863-19.032c-2.279-6.639-4.349-12.666-6.547-19.077c2.586-0.887,4.729-1.618,7.511-2.571  c2.068,6.522,4.038,12.731,6.138,19.354C163.557-20.546,161.584-19.912,158.863-19.032z"
     fill="#2D2D2D" /><path
     id="path401"
     d="M512.022,125.667c-1.207-2.604-2.081-4.491-3.158-6.813c5.933-3.147,11.543-6.12,17.695-9.383  c1.301,2.518,2.403,4.654,3.704,7.176C524.041,119.724,518.342,122.54,512.022,125.667z"
     fill="#2D2D2D" /><path
     id="path403"
     d="M-19.823,108.783c1.468-2.722,2.55-4.722,3.879-7.19c5.994,3.368,11.55,6.493,17.645,9.916  c-1.234,2.39-2.255,4.363-3.532,6.838C-7.912,115.115-13.546,112.12-19.823,108.783z"
     fill="#2D2D2D" /><path
     id="path405"
     d="M377.446-29.033c2.738,1.223,4.674,2.084,7.487,3.339c-2.805,6.033-5.535,11.908-8.486,18.259  c-2.317-0.958-4.401-1.817-7.102-2.93C372.035-16.567,374.621-22.528,377.446-29.033z"
     fill="#2D2D2D" /><path
     id="path407"
     d="M-24.009,391.669c6.481-3.198,12.054-5.947,18.103-8.935c1.196,2.301,2.223,4.283,3.507,6.762  c-5.956,3.158-11.567,6.137-17.75,9.417C-21.47,396.43-22.602,394.311-24.009,391.669z"
     fill="#2D2D2D" /><path
     id="path409"
     d="M-52.202,303.366c7.096-1.128,13.378-2.127,20.031-3.183c0.449,2.787,0.811,5.013,1.234,7.625  c-6.732,1.278-12.984,2.464-19.757,3.749C-51.203,308.794-51.644,306.406-52.202,303.366z"
     fill="#2D2D2D" /><path
     id="path411"
     d="M172.095,531.97c2.47,0.588,4.498,1.069,7.404,1.76c-1.655,6.416-3.271,12.684-5.057,19.617  c-2.642-0.67-4.964-1.261-7.938-2.016C168.407,544.733,170.207,538.513,172.095,531.97z"
     fill="#2D2D2D" /><path
     id="path413"
     d="M193.067,537.219c2.708,0.452,4.777,0.803,7.59,1.276c-1.216,6.613-2.388,13.001-3.661,19.923  c-2.534-0.446-4.771-0.839-8.049-1.416C190.298,550.513,191.612,544.2,193.067,537.219z"
     fill="#2D2D2D" /><path
     id="path415"
     d="M488.786,454.771c-1.944,2.246-3.415,3.942-5.28,6.097c-5.066-4.465-9.807-8.642-15.035-13.245  c1.633-1.977,3.022-3.67,4.847-5.886C478.46,446.065,483.277,450.129,488.786,454.771z"
     fill="#2D2D2D" /><path
     id="path417"
     d="M525.96,158.365c6.383-2.234,12.375-4.331,19.021-6.658c0.888,2.477,1.695,4.729,2.725,7.604  c-6.529,2.105-12.71,4.1-19.344,6.239C527.527,163.063,526.816,160.931,525.96,158.365z"
     fill="#2D2D2D" /><path
     id="path419"
     d="M551.958,173.778c0.745,3.039,1.287,5.246,1.939,7.879c-6.603,1.596-12.783,3.089-19.639,4.748  c-0.624-2.382-1.192-4.525-1.929-7.329C538.842,177.317,545.091,175.63,551.958,173.778z"
     fill="#2D2D2D" /><path
     id="path421"
     d="M490.047,88.814c-1.603-2.51-2.712-4.241-4.053-6.34c5.366-3.966,10.465-7.73,16.1-11.892  c1.526,2.14,2.827,3.959,4.629,6.482C501.255,80.917,495.959,84.649,490.047,88.814z"
     fill="#2D2D2D" /><path
     id="path423"
     d="M539.76,137.568c-6.362,2.586-12.257,4.983-18.735,7.618c-1.017-2.338-1.896-4.368-2.982-6.876  c6.228-2.734,12.044-5.287,18.458-8.1C537.616,132.723,538.582,134.907,539.76,137.568z"
     fill="#2D2D2D" /><path
     id="path425"
     d="M420.004,490.363c2.321-1.584,4.023-2.752,6.196-4.234c4.119,5.516,7.919,10.608,11.989,16.058  c-2.264,1.68-4.065,3.016-6.421,4.763C427.86,501.442,424.186,496.261,420.004,490.363z"
     fill="#2D2D2D" /><path
     id="path427"
     d="M527.381,397.497c-1.327,2.617-2.272,4.487-3.627,7.153c-5.905-3.254-11.549-6.365-17.708-9.757  c1.194-2.395,2.173-4.356,3.376-6.765C515.538,391.32,521.148,394.248,527.381,397.497z"
     fill="#2D2D2D" /><path
     id="path429"
     d="M-22.103,342.551c0.853,2.625,1.498,4.603,2.307,7.102c-6.479,2.248-12.649,4.39-19.118,6.636  c-0.9-2.738-1.609-4.896-2.468-7.51C-34.893,346.683-28.843,344.73-22.103,342.551z"
     fill="#2D2D2D" /><path
     id="path431"
     d="M382.919,512.606c2.539-1.217,4.25-2.035,6.756-3.236c3.138,5.866,6.188,11.569,9.517,17.804  c-2.393,1.225-4.381,2.246-7.026,3.598C389.07,524.697,386.139,518.934,382.919,512.606z"
     fill="#2D2D2D" /><path
     id="path433"
     d="M419.24,515.52c-2.627,1.543-4.582,2.688-6.906,4.049c-3.488-5.833-6.749-11.279-10.364-17.313  c2.148-1.313,4.008-2.457,6.332-3.879C411.975,504.133,415.386,509.481,419.24,515.52z"
     fill="#2D2D2D" /><path
     id="path435"
     d="M-3.907,82.021c5.863,3.893,11.019,7.318,16.763,11.133c-1.216,2.062-2.322,3.945-3.757,6.381  c-5.772-3.661-11.12-7.054-17.083-10.832C-6.6,86.435-5.451,84.548-3.907,82.021z"
     fill="#2D2D2D" /><path
     id="path437"
     d="M-23.777,171.292c-0.73,2.644-1.284,4.656-2.006,7.285c-6.518-1.737-12.793-3.411-19.473-5.19  c0.642-2.561,1.196-4.781,1.948-7.797C-36.879,167.47-30.638,169.287-23.777,171.292z"
     fill="#2D2D2D" /><path
     id="path439"
     d="M405.363-15.208c-3.394,6.045-6.496,11.571-9.874,17.584c-2.328-1.134-4.31-2.101-6.698-3.266  c3.125-5.968,5.988-11.443,9.266-17.704C400.39-17.512,402.636-16.471,405.363-15.208z"
     fill="#2D2D2D" /><path
     id="path441"
     d="M-45.729,334.046c-0.675-2.812-1.208-5.038-1.852-7.714c6.547-1.554,12.759-3.03,19.653-4.663  c0.612,2.37,1.162,4.512,1.846,7.161C-32.613,330.568-38.753,332.197-45.729,334.046z"
     fill="#2D2D2D" /><path
     id="path443"
     d="M501.773,106.527c-1.404-2.266-2.494-4.025-3.868-6.243c5.729-3.604,11.108-6.993,17.043-10.727  c1.407,2.246,2.597,4.144,4.203,6.702C513.257,99.745,507.668,103.047,501.773,106.527z"
     fill="#2D2D2D" /><path
     id="path445"
     d="M-11.828,369.802c-6.497,2.797-12.324,5.305-18.537,7.981c-1.088-2.511-1.975-4.574-3.139-7.265  c6.341-2.554,12.354-4.978,18.729-7.546C-13.764,365.316-12.941,367.219-11.828,369.802z"
     fill="#2D2D2D" /><path
     id="path447"
     d="M19.069,456.241c-1.869-2.182-3.329-3.891-5.166-6.039c5.259-4.321,10.147-8.347,15.447-12.701  c1.613,1.777,2.986,3.289,4.981,5.484C29.166,447.466,24.289,451.702,19.069,456.241z"
     fill="#2D2D2D" /><path
     id="path449"
     d="M536.149,314.378c0.397-2.414,0.736-4.479,1.191-7.23c6.646,1.234,13.032,2.417,19.921,3.688  c-0.479,2.672-0.879,4.896-1.38,7.679C549.236,317.123,542.836,315.781,536.149,314.378z"
     fill="#2D2D2D" /><path
     id="path451"
     d="M-8.404,131c-1.082,2.507-1.843,4.269-2.912,6.752c-6.07-2.666-12.016-5.276-18.454-8.1  c0.948-2.336,1.791-4.42,2.937-7.247C-20.678,125.276-14.814,128.007-8.404,131z"
     fill="#2D2D2D" /><path
     id="path453"
     d="M182.033-46.772c1.6,6.792,3.062,12.99,4.641,19.69c-2.463,0.61-4.593,1.141-7.069,1.754  c-1.741-6.629-3.355-12.772-5.116-19.49C176.981-45.461,179.145-46.022,182.033-46.772z"
     fill="#2D2D2D" /><path
     id="path455"
     d="M5.219,69.429c1.814-2.353,3.092-4.007,4.762-6.172c5.327,4.227,10.315,8.18,15.656,12.421  c-1.459,2.112-2.621,3.791-4.089,5.916C15.951,77.424,10.839,73.614,5.219,69.429z"
     fill="#2D2D2D" /><path
     id="path457"
     d="M4.271,438.162c-1.723-2.607-2.861-4.327-4.302-6.509c5.516-3.868,10.682-7.495,16.272-11.417  c1.477,1.894,2.726,3.493,4.469,5.729C15.224,430.035,10.044,433.879,4.271,438.162z"
     fill="#2D2D2D" /><path
     id="path459"
     d="M158.676,527.398c-2.276,6.646-4.334,12.652-6.559,19.146c-2.396-0.781-4.537-1.478-7.486-2.443  c2.347-6.39,4.574-12.452,6.95-18.915C153.847,525.891,155.823,526.508,158.676,527.398z"
     fill="#2D2D2D" /><path
     id="path461"
     d="M-50.469,196.018c0.5-2.871,0.863-4.961,1.353-7.754c6.577,1.403,12.958,2.761,19.712,4.205  c-0.356,2.323-0.672,4.372-1.132,7.358C-37.146,198.561-43.517,197.345-50.469,196.018z"
     fill="#2D2D2D" /><path
     id="path463"
     d="M541.043,228.446c-0.199-2.691-0.351-4.775-0.535-7.257c6.679-0.766,13.017-1.493,19.937-2.286  c0.296,2.734,0.555,5.141,0.844,7.856C554.304,227.339,547.797,227.882,541.043,228.446z"
     fill="#2D2D2D" /><path
     id="path465"
     d="M494.858,413.239c1.46-2.359,2.464-3.981,3.87-6.259c5.73,3.563,11.234,6.988,17.041,10.602  c-1.33,2.331-2.359,4.135-3.836,6.729C506.219,420.605,500.779,417.081,494.858,413.239z"
     fill="#2D2D2D" /><path
     id="path467"
     d="M200.633-30.042c-1.301-7.154-2.409-13.24-3.596-19.758c2.568-0.488,4.763-0.909,7.618-1.453  c1.079,6.766,2.1,13.18,3.204,20.106C205.298-30.755,203.096-30.417,200.633-30.042z"
     fill="#2D2D2D" /><path
     id="path469"
     d="M315.155-28.083c-2.654-0.536-4.507-0.909-6.92-1.395c1.254-6.568,2.437-12.797,3.751-19.686  c2.293,0.349,4.47,0.678,7.459,1.132C318.012-41.361,316.651-35.046,315.155-28.083z"
     fill="#2D2D2D" /><path
     id="path471"
     d="M558.312,204.07c-6.575,1.08-12.159,2.004-17.748,2.897c-0.557,0.091-1.149-0.025-2.104-0.061  c-0.391-2.027-0.786-4.063-1.29-6.677c6.728-1.282,13.132-2.505,19.968-3.81C557.568,199.227,557.912,201.472,558.312,204.07z"
     fill="#2D2D2D" /><path
     id="path473"
     d="M263.244,1002.212c-1.574,1.549-2.631,2.588-4.061,3.993c-1.384-1.262-2.658-2.425-4.269-3.895  c1.319-1.421,2.502-2.695,3.942-4.249C260.327,999.451,261.587,1000.644,263.244,1002.212z" /><path
     id="path475"
     d="M262.805,927.181c0.559,0,1.115,0,1.674,0c0.017,0.158,0.032,0.316,0.051,0.476c-0.564,0.083-1.129,0.167-1.693,0.251  C262.825,927.664,262.814,927.423,262.805,927.181z" /><g
     id="text477"
     style="font-style:normal;font-variant:normal;font-weight:normal;font-stretch:normal;font-size:163.62820435px;font-family:'Coder\'s Crux';-inkscape-font-specification:'Coder\'s Crux';fill:#2d2d2d"
     transform="matrix(1.0207 0 0 1 131.0059 222.0459)"><path
       id="path3890"
       style="font-style:normal;font-variant:normal;font-weight:normal;font-stretch:normal;font-size:163.62820435px;font-family:'Coder\'s Crux';-inkscape-font-specification:'Coder\'s Crux';fill:#2d2d2d"
       d="m 40.907051,-10.226763 0,-51.133814 10.226763,0 0,51.133814 -10.226763,0 z M 0,0 l 0,-71.587339 40.907051,0 0,10.226762 -30.680288,0 0,51.133814 30.680288,0 L 40.907051,0 0,0 Z" /><path
       id="path3892"
       style="font-style:normal;font-variant:normal;font-weight:normal;font-stretch:normal;font-size:163.62820435px;font-family:'Coder\'s Crux';-inkscape-font-specification:'Coder\'s Crux';fill:#2d2d2d"
       d="m 62.319336,0 0,-61.360577 10.226763,0 0,20.453526 30.680291,0 0,-20.453526 10.22676,0 0,61.360577 -10.22676,0 0,-30.680288 -30.680291,0 0,30.680288 -10.226763,0 z m 10.226763,-61.360577 0,-10.226762 30.680291,0 0,10.226762 -30.680291,0 z" /><path
       id="path3894"
       style="font-style:normal;font-variant:normal;font-weight:normal;font-stretch:normal;font-size:163.62820435px;font-family:'Coder\'s Crux';-inkscape-font-specification:'Coder\'s Crux';fill:#2d2d2d"
       d="m 145.0922,0 0,-61.360577 -20.45353,0 0,-10.226762 51.13382,0 0,10.226762 -20.45353,0 0,61.360577 -10.22676,0 z" /><path
       id="path3896"
       style="font-style:normal;font-variant:normal;font-weight:normal;font-stretch:normal;font-size:163.62820435px;font-family:'Coder\'s Crux';-inkscape-font-specification:'Coder\'s Crux';fill:#2d2d2d"
       d="m 186.95801,0 0,-61.360577 10.22676,0 0,20.453526 30.68029,0 0,-20.453526 10.22676,0 0,61.360577 -10.22676,0 0,-30.680288 -30.68029,0 0,30.680288 -10.22676,0 z m 10.22676,-61.360577 0,-10.226762 30.68029,0 0,10.226762 -30.68029,0 z" /></g><g
     id="text479"
     style="font-style:normal;font-variant:normal;font-weight:normal;font-stretch:normal;font-size:163.62820435px;font-family:'Coder\'s Crux';-inkscape-font-specification:'Coder\'s Crux';fill:#2d2d2d"
     transform="matrix(1.0207 0 0 1 35.5918 336.5508)"><path
       id="path3899"
       style="font-style:normal;font-variant:normal;font-weight:normal;font-stretch:normal;font-size:163.62820435px;font-family:'Coder\'s Crux';-inkscape-font-specification:'Coder\'s Crux';fill:#2d2d2d"
       d="m 0,0 0,-10.226763 40.907051,0 L 40.907051,0 0,0 Z m 40.907051,-10.226763 0,-20.453525 10.226763,0 0,20.453525 -10.226763,0 z m -30.680288,-20.453525 0,-10.226763 30.680288,0 0,10.226763 -30.680288,0 z M 0,-40.907051 l 0,-20.453526 10.226763,0 0,20.453526 -10.226763,0 z m 10.226763,-20.453526 0,-10.226762 40.907051,0 0,10.226762 -40.907051,0 z" /><path
       id="path3901"
       style="font-style:normal;font-variant:normal;font-weight:normal;font-stretch:normal;font-size:163.62820435px;font-family:'Coder\'s Crux';-inkscape-font-specification:'Coder\'s Crux';fill:#2d2d2d"
       d="m 72.546099,0 0,-10.226763 30.680291,0 0,10.226763 -30.680291,0 z m -10.226763,-10.226763 0,-51.133814 10.226763,0 0,51.133814 -10.226763,0 z m 40.907054,0 0,-51.133814 10.22676,0 0,51.133814 -10.22676,0 z m -30.680291,-51.133814 0,-10.226762 30.680291,0 0,10.226762 -30.680291,0 z" /><path
       id="path3903"
       style="font-style:normal;font-variant:normal;font-weight:normal;font-stretch:normal;font-size:163.62820435px;font-family:'Coder\'s Crux';-inkscape-font-specification:'Coder\'s Crux';fill:#2d2d2d"
       d="m 134.86543,0 0,-10.226763 30.68029,0 0,10.226763 -30.68029,0 z m 30.68029,-10.226763 0,-10.226763 10.22677,0 0,10.226763 -10.22677,0 z m -40.90705,0 0,-51.133814 10.22676,0 0,51.133814 -10.22676,0 z m 40.90705,-40.907051 0,-10.226763 10.22677,0 0,10.226763 -10.22677,0 z m -30.68029,-10.226763 0,-10.226762 30.68029,0 0,10.226762 -30.68029,0 z" /><path
       id="path3905"
       style="font-style:normal;font-variant:normal;font-weight:normal;font-stretch:normal;font-size:163.62820435px;font-family:'Coder\'s Crux';-inkscape-font-specification:'Coder\'s Crux';fill:#2d2d2d"
       d="m 197.18477,0 0,-10.226763 10.22676,0 0,-51.133814 -10.22676,0 0,-10.226762 30.68029,0 0,10.226762 -10.22676,0 0,51.133814 10.22676,0 0,10.226763 -30.68029,0 z" /><path
       id="path3907"
       style="font-style:normal;font-variant:normal;font-weight:normal;font-stretch:normal;font-size:163.62820435px;font-family:'Coder\'s Crux';-inkscape-font-specification:'Coder\'s Crux';fill:#2d2d2d"
       d="m 249.27734,0 0,-71.587339 51.13382,0 0,10.226762 -40.90705,0 0,20.453526 30.68028,0 0,10.226763 -30.68028,0 0,20.453525 40.90705,0 0,10.226763 -51.13382,0 z" /><path
       id="path3909"
       style="font-style:normal;font-variant:normal;font-weight:normal;font-stretch:normal;font-size:163.62820435px;font-family:'Coder\'s Crux';-inkscape-font-specification:'Coder\'s Crux';fill:#2d2d2d"
       d="m 332.05021,0 0,-61.360577 -20.45353,0 0,-10.226762 51.13381,0 0,10.226762 -20.45352,0 0,61.360577 -10.22676,0 z" /><path
       id="path3911"
       style="font-style:normal;font-variant:normal;font-weight:normal;font-stretch:normal;font-size:163.62820435px;font-family:'Coder\'s Crux';-inkscape-font-specification:'Coder\'s Crux';fill:#2d2d2d"
       d="m 394.36954,0 0,-40.907051 10.22676,0 0,40.907051 -10.22676,0 z m -10.22676,-40.907051 0,-10.226763 10.22676,0 0,10.226763 -10.22676,0 z m 20.45352,0 0,-10.226763 10.22677,0 0,10.226763 -10.22677,0 z m -30.68028,-10.226763 0,-20.453525 10.22676,0 0,20.453525 -10.22676,0 z m 40.90705,0 0,-20.453525 10.22676,0 0,20.453525 -10.22676,0 z" /></g></svg>